<svg version="1.1" xmlns="http://www.w3.org/2000/svg" viewBox="0 0 1152 636" width="1152" height="636">
  <!-- svg-source:excalidraw -->
  
  <defs>
    <style class="style-fonts">
      @font-face {
        font-family: "Virgil";
        src: url("https://excalidraw.com/Virgil.woff2");
      }
      @font-face {
        font-family: "Cascadia";
        src: url("https://excalidraw.com/Cascadia.woff2");
      }
    </style>
  </defs>
  <rect x="0" y="0" width="1152" height="636" fill="#ffffff"></rect><g stroke-linecap="round" transform="translate(156 10) rotate(0 61 16.5)"><path d="M8.25 0 M8.25 0 C30.71 0, 53.17 0, 113.75 0 M8.25 0 C41.59 0, 74.93 0, 113.75 0 M113.75 0 C119.25 0, 122 2.75, 122 8.25 M113.75 0 C119.25 0, 122 2.75, 122 8.25 M122 8.25 C122 13.56, 122 18.88, 122 24.75 M122 8.25 C122 14.37, 122 20.5, 122 24.75 M122 24.75 C122 30.25, 119.25 33, 113.75 33 M122 24.75 C122 30.25, 119.25 33, 113.75 33 M113.75 33 C82.62 33, 51.49 33, 8.25 33 M113.75 33 C84.92 33, 56.09 33, 8.25 33 M8.25 33 C2.75 33, 0 30.25, 0 24.75 M8.25 33 C2.75 33, 0 30.25, 0 24.75 M0 24.75 C0 18.17, 0 11.6, 0 8.25 M0 24.75 C0 19.86, 0 14.98, 0 8.25 M0 8.25 C0 2.75, 2.75 0, 8.25 0 M0 8.25 C0 2.75, 2.75 0, 8.25 0" stroke="#000000" stroke-width="1" fill="none"></path></g><g transform="translate(183.6552734375 15) rotate(0 33.3447265625 11.5)"><text x="33.3447265625" y="0" font-family="Helvetica, Segoe UI Emoji" font-size="20px" fill="#000000" text-anchor="middle" style="white-space: pre;" direction="ltr" dominant-baseline="text-before-edge">Archivo</text></g><g stroke-linecap="round" transform="translate(111 134) rotate(0 102 55)"><path d="M27.5 0 M27.5 0 C78.27 0, 129.05 0, 176.5 0 M27.5 0 C85.96 0, 144.42 0, 176.5 0 M176.5 0 C194.83 0, 204 9.17, 204 27.5 M176.5 0 C194.83 0, 204 9.17, 204 27.5 M204 27.5 C204 41.65, 204 55.81, 204 82.5 M204 27.5 C204 42.08, 204 56.67, 204 82.5 M204 82.5 C204 100.83, 194.83 110, 176.5 110 M204 82.5 C204 100.83, 194.83 110, 176.5 110 M176.5 110 C145.22 110, 113.93 110, 27.5 110 M176.5 110 C120.2 110, 63.9 110, 27.5 110 M27.5 110 C9.17 110, 0 100.83, 0 82.5 M27.5 110 C9.17 110, 0 100.83, 0 82.5 M0 82.5 C0 69.38, 0 56.27, 0 27.5 M0 82.5 C0 69.53, 0 56.57, 0 27.5 M0 27.5 C0 9.17, 9.17 0, 27.5 0 M0 27.5 C0 9.17, 9.17 0, 27.5 0" stroke="#000000" stroke-width="1" fill="none"></path></g><g transform="translate(117.3798828125 166) rotate(0 95.6201171875 23)"><text x="95.6201171875" y="0" font-family="Helvetica, Segoe UI Emoji" font-size="20px" fill="#000000" text-anchor="middle" style="white-space: pre;" direction="ltr" dominant-baseline="text-before-edge">hospital_crear_desde</text><text x="95.6201171875" y="23" font-family="Helvetica, Segoe UI Emoji" font-size="20px" fill="#000000" text-anchor="middle" style="white-space: pre;" direction="ltr" dominant-baseline="text-before-edge">_archivo</text></g><g stroke-linecap="round"><g transform="translate(216.0000000000001 49) rotate(0 -0.5 36.5)"><path d="M0 0 C-0.17 12.17, -0.83 60.83, -1 73 M0 0 C-0.17 12.17, -0.83 60.83, -1 73" stroke="#000000" stroke-width="1" fill="none"></path></g><g transform="translate(216.0000000000001 49) rotate(0 -0.5 36.5)"><path d="M-10.87 44.67 C-7.55 54.22, -4.22 63.76, -1 73 M-10.87 44.67 C-8.26 52.16, -5.65 59.65, -1 73" stroke="#000000" stroke-width="1" fill="none"></path></g><g transform="translate(216.0000000000001 49) rotate(0 -0.5 36.5)"><path d="M9.65 44.95 C6.06 54.4, 2.47 63.85, -1 73 M9.65 44.95 C6.83 52.37, 4.02 59.78, -1 73" stroke="#000000" stroke-width="1" fill="none"></path></g></g><mask></mask><g stroke-linecap="round" transform="translate(535 118) rotate(0 104 74)"><path d="M131.25 18.75 M131.25 18.75 C141.46 26.34, 151.68 33.92, 181.75 56.25 M131.25 18.75 C148.86 31.83, 166.47 44.91, 181.75 56.25 M181.75 56.25 C208 75, 208 75, 181.75 93.75 M181.75 56.25 C208 75, 208 75, 181.75 93.75 M181.75 93.75 C163.19 106.8, 144.63 119.84, 131.25 129.25 M181.75 93.75 C169.35 102.47, 156.95 111.19, 131.25 129.25 M131.25 129.25 C105 148, 105 148, 78.75 129.25 M131.25 129.25 C105 148, 105 148, 78.75 129.25 M78.75 129.25 C62.36 118.17, 45.97 107.08, 26.25 93.75 M78.75 129.25 C59.78 116.42, 40.8 103.59, 26.25 93.75 M26.25 93.75 C0 75, 0 75, 26.25 56.25 M26.25 93.75 C0 75, 0 75, 26.25 56.25 M26.25 56.25 C42.04 44.97, 57.82 33.7, 78.75 18.75 M26.25 56.25 C43.92 43.63, 61.59 31.01, 78.75 18.75 M78.75 18.75 C105 0, 105 0, 131.25 18.75 M78.75 18.75 C105 0, 105 0, 131.25 18.75" stroke="#000000" stroke-width="1" fill="none"></path></g><g transform="translate(594.52734375 180.5) rotate(0 44.47265625 11.5)"><text x="44.47265625" y="0" font-family="Helvetica, Segoe UI Emoji" font-size="20px" fill="#000000" text-anchor="middle" style="white-space: pre;" direction="ltr" dominant-baseline="text-before-edge">validacion</text></g><g stroke-linecap="round"><g transform="translate(321 190.67995184157758) rotate(0 99.73083611582996 -0.4710580996506337)"><path d="M0 0 C33.24 -0.16, 166.22 -0.79, 199.46 -0.94 M0 0 C33.24 -0.16, 166.22 -0.79, 199.46 -0.94" stroke="#000000" stroke-width="1" fill="none"></path></g><g transform="translate(321 190.67995184157758) rotate(0 99.73083611582996 -0.4710580996506337)"><path d="M171.32 9.45 C181.88 5.55, 192.44 1.65, 199.46 -0.94 M171.32 9.45 C177.21 7.28, 183.09 5.1, 199.46 -0.94" stroke="#000000" stroke-width="1" fill="none"></path></g><g transform="translate(321 190.67995184157758) rotate(0 99.73083611582996 -0.4710580996506337)"><path d="M171.22 -11.07 C181.82 -7.27, 192.42 -3.47, 199.46 -0.94 M171.22 -11.07 C177.13 -8.95, 183.04 -6.83, 199.46 -0.94" stroke="#000000" stroke-width="1" fill="none"></path></g></g><mask></mask><g stroke-linecap="round"><g transform="translate(635.4350995033005 271.1550526836011) rotate(0 0.6431614250299162 54.422473658199436)"><path d="M0 0 C0.21 18.14, 1.07 90.7, 1.29 108.84 M0 0 C0.21 18.14, 1.07 90.7, 1.29 108.84" stroke="#000000" stroke-width="1" fill="none"></path></g><g transform="translate(635.4350995033005 271.1550526836011) rotate(0 0.6431614250299162 54.422473658199436)"><path d="M-9.31 80.78 C-5.76 90.17, -2.21 99.57, 1.29 108.84 M-9.31 80.78 C-6.86 87.26, -4.42 93.73, 1.29 108.84" stroke="#000000" stroke-width="1" fill="none"></path></g><g transform="translate(635.4350995033005 271.1550526836011) rotate(0 0.6431614250299162 54.422473658199436)"><path d="M11.21 80.53 C7.89 90.01, 4.57 99.49, 1.29 108.84 M11.21 80.53 C8.92 87.07, 6.63 93.6, 1.29 108.84" stroke="#000000" stroke-width="1" fill="none"></path></g></g><mask></mask><g transform="translate(643 304) rotate(0 38.3447265625 11.5)"><text x="0" y="0" font-family="Helvetica, Segoe UI Emoji" font-size="20px" fill="#000000" text-anchor="start" style="white-space: pre;" direction="ltr" dominant-baseline="text-before-edge">Correcta</text></g><g stroke-linecap="round" transform="translate(534 392) rotate(0 146 28)"><path d="M14 0 M14 0 C80.13 0, 146.26 0, 278 0 M14 0 C74.93 0, 135.87 0, 278 0 M278 0 C287.33 0, 292 4.67, 292 14 M278 0 C287.33 0, 292 4.67, 292 14 M292 14 C292 24.76, 292 35.51, 292 42 M292 14 C292 23.13, 292 32.27, 292 42 M292 42 C292 51.33, 287.33 56, 278 56 M292 42 C292 51.33, 287.33 56, 278 56 M278 56 C207.41 56, 136.81 56, 14 56 M278 56 C202.89 56, 127.78 56, 14 56 M14 56 C4.67 56, 0 51.33, 0 42 M14 56 C4.67 56, 0 51.33, 0 42 M0 42 C0 32.88, 0 23.76, 0 14 M0 42 C0 33.51, 0 25.01, 0 14 M0 14 C0 4.67, 4.67 0, 14 0 M0 14 C0 4.67, 4.67 0, 14 0" stroke="#000000" stroke-width="1" fill="none"></path></g><g transform="translate(547.6953125 408.5) rotate(0 132.3046875 11.5)"><text x="132.3046875" y="0" font-family="Helvetica, Segoe UI Emoji" font-size="20px" fill="#000000" text-anchor="middle" style="white-space: pre;" direction="ltr" dominant-baseline="text-before-edge">pokemon_crear_desde_string</text></g><g stroke-linecap="round"><g transform="translate(553 382) rotate(0 -114 -64)"><path d="M0 0 C-38 -21.33, -190 -106.67, -228 -128 M0 0 C-38 -21.33, -190 -106.67, -228 -128" stroke="#000000" stroke-width="1" fill="none"></path></g><g transform="translate(553 382) rotate(0 -114 -64)"><path d="M-198.4 -123.15 C-210.1 -125.06, -221.8 -126.98, -228 -128 M-198.4 -123.15 C-208.95 -124.88, -219.5 -126.61, -228 -128" stroke="#000000" stroke-width="1" fill="none"></path></g><g transform="translate(553 382) rotate(0 -114 -64)"><path d="M-208.44 -105.25 C-216.17 -114.24, -223.9 -123.23, -228 -128 M-208.44 -105.25 C-215.41 -113.36, -222.39 -121.47, -228 -128" stroke="#000000" stroke-width="1" fill="none"></path></g></g><mask></mask><g transform="translate(372.7601673765829 292.36823790727954) rotate(30.04100803870331 79.28961181640625 9.483556096284417)"><text x="0" y="0" font-family="Helvetica, Segoe UI Emoji" font-size="16.49314103701638px" fill="#000000" text-anchor="start" style="white-space: pre;" direction="ltr" dominant-baseline="text-before-edge">Devuelve el pokemon</text></g><g stroke-linecap="round"><g transform="translate(747.0247596551453 192.52056516217226) rotate(0 112.98643914959234 -0.33027959847999)"><path d="M0 0 C37.66 -0.11, 188.31 -0.55, 225.97 -0.66 M0 0 C37.66 -0.11, 188.31 -0.55, 225.97 -0.66" stroke="#000000" stroke-width="1" fill="none"></path></g><g transform="translate(747.0247596551453 192.52056516217226) rotate(0 112.98643914959234 -0.33027959847999)"><path d="M197.81 9.68 C206.91 6.34, 216 3, 225.97 -0.66 M197.81 9.68 C205.28 6.94, 212.75 4.2, 225.97 -0.66" stroke="#000000" stroke-width="1" fill="none"></path></g><g transform="translate(747.0247596551453 192.52056516217226) rotate(0 112.98643914959234 -0.33027959847999)"><path d="M197.75 -10.84 C206.87 -7.55, 215.98 -4.26, 225.97 -0.66 M197.75 -10.84 C205.24 -8.14, 212.72 -5.44, 225.97 -0.66" stroke="#000000" stroke-width="1" fill="none"></path></g></g><mask></mask><g transform="translate(823 165) rotate(0 44.462890625 11.5)"><text x="0" y="0" font-family="Helvetica, Segoe UI Emoji" font-size="20px" fill="#000000" text-anchor="start" style="white-space: pre;" direction="ltr" dominant-baseline="text-before-edge">Incorrecta</text></g><g stroke-linecap="round" transform="translate(988 150) rotate(0 77 39.5)"><path d="M154 39.5 C154 41.09, 153.81 42.69, 153.44 44.26 C153.07 45.84, 152.5 47.41, 151.76 48.95 C151.02 50.49, 150.09 52.02, 149 53.51 C147.9 54.99, 146.62 56.45, 145.18 57.86 C143.74 59.26, 142.13 60.63, 140.37 61.94 C138.61 63.24, 136.69 64.51, 134.64 65.69 C132.58 66.88, 130.38 68.01, 128.06 69.07 C125.74 70.12, 123.29 71.11, 120.74 72.01 C118.19 72.91, 115.52 73.74, 112.78 74.48 C110.04 75.21, 107.2 75.87, 104.3 76.43 C101.41 77, 98.43 77.47, 95.43 77.85 C92.42 78.23, 89.35 78.52, 86.28 78.71 C83.21 78.9, 80.09 79, 77 79 C73.91 79, 70.79 78.9, 67.72 78.71 C64.65 78.52, 61.58 78.23, 58.57 77.85 C55.57 77.47, 52.59 77, 49.7 76.43 C46.8 75.87, 43.96 75.21, 41.22 74.48 C38.48 73.74, 35.81 72.91, 33.26 72.01 C30.71 71.11, 28.26 70.12, 25.94 69.07 C23.62 68.01, 21.42 66.88, 19.36 65.69 C17.31 64.51, 15.39 63.24, 13.63 61.94 C11.87 60.63, 10.26 59.26, 8.82 57.86 C7.38 56.45, 6.1 54.99, 5 53.51 C3.91 52.02, 2.98 50.49, 2.24 48.95 C1.5 47.41, 0.93 45.84, 0.56 44.26 C0.19 42.69, 0 41.09, 0 39.5 C0 37.91, 0.19 36.31, 0.56 34.74 C0.93 33.16, 1.5 31.59, 2.24 30.05 C2.98 28.51, 3.91 26.98, 5 25.49 C6.1 24.01, 7.38 22.55, 8.82 21.14 C10.26 19.74, 11.87 18.37, 13.63 17.06 C15.39 15.76, 17.31 14.49, 19.36 13.31 C21.42 12.12, 23.62 10.99, 25.94 9.93 C28.26 8.88, 30.71 7.89, 33.26 6.99 C35.81 6.09, 38.48 5.26, 41.22 4.52 C43.96 3.79, 46.8 3.13, 49.7 2.57 C52.59 2, 55.57 1.53, 58.57 1.15 C61.58 0.77, 64.65 0.48, 67.72 0.29 C70.79 0.1, 73.91 0, 77 0 C80.09 0, 83.21 0.1, 86.28 0.29 C89.35 0.48, 92.42 0.77, 95.43 1.15 C98.43 1.53, 101.41 2, 104.3 2.57 C107.2 3.13, 110.04 3.79, 112.78 4.52 C115.52 5.26, 118.19 6.09, 120.74 6.99 C123.29 7.89, 125.74 8.88, 128.06 9.93 C130.38 10.99, 132.58 12.12, 134.64 13.31 C136.69 14.49, 138.61 15.76, 140.37 17.06 C142.13 18.37, 143.74 19.74, 145.18 21.14 C146.62 22.55, 147.9 24.01, 149 25.49 C150.09 26.98, 151.02 28.51, 151.76 30.05 C152.5 31.59, 153.07 33.16, 153.44 34.74 C153.81 36.31, 154 37.91, 154 39.5" stroke="#000000" stroke-width="1" fill="none"></path></g><g transform="translate(1017.2549262861357 166.56928214313137) rotate(0 47.7978515625 23)"><text x="47.7978515625" y="0" font-family="Helvetica, Segoe UI Emoji" font-size="20px" fill="#000000" text-anchor="middle" style="white-space: pre;" direction="ltr" dominant-baseline="text-before-edge">Finaliza el </text><text x="47.7978515625" y="23" font-family="Helvetica, Segoe UI Emoji" font-size="20px" fill="#000000" text-anchor="middle" style="white-space: pre;" direction="ltr" dominant-baseline="text-before-edge">programa</text></g><g mask="url(#mask-Wrt7K_YZx82dM4wghREBc)" stroke-linecap="round"><g transform="translate(209 264) rotate(0 0.6253128182142973 101.55535888701675)"><path d="M-0.72 0.7 C-0.2 34.31, 1.63 168.23, 1.97 202.05 M1.1 0.02 C1.56 33.71, 1.16 169.5, 1.01 203.09" stroke="#000000" stroke-width="1" fill="none"></path></g><g transform="translate(209 264) rotate(0 0.6253128182142973 101.55535888701675)"><path d="M-7.99 174.82 C-8.56 179.56, -3.88 187.03, 1.55 203.91 M-8.44 175.17 C-5.74 182.51, -4.09 189.93, 1.85 202.32" stroke="#000000" stroke-width="1" fill="none"></path></g><g transform="translate(209 264) rotate(0 0.6253128182142973 101.55535888701675)"><path d="M12.53 174.89 C7.76 179.49, 8.25 186.94, 1.55 203.91 M12.08 175.24 C9.02 182.77, 4.92 190.16, 1.85 202.32" stroke="#000000" stroke-width="1" fill="none"></path></g></g><mask id="mask-Wrt7K_YZx82dM4wghREBc"><rect x="0" y="0" fill="#fff" width="311" height="567"></rect><rect x="100.5029296875" y="342.5" fill="#000" width="218.994140625" height="46" opacity="1"></rect></mask><g transform="translate(100.5029296875 342.5) rotate(0 109.1223831307143 23.05535888701675)"><text x="109.4970703125" y="0" font-family="Helvetica, Segoe UI Emoji" font-size="20px" fill="#000000" text-anchor="middle" style="white-space: pre;" direction="ltr" dominant-baseline="text-before-edge">Reasigna memoria para </text><text x="109.4970703125" y="23" font-family="Helvetica, Segoe UI Emoji" font-size="20px" fill="#000000" text-anchor="middle" style="white-space: pre;" direction="ltr" dominant-baseline="text-before-edge">el nuevo pokemon</text></g><g stroke-linecap="round" transform="translate(161 485) rotate(0 116.5 16.5)"><path d="M8.25 0 M8.25 0 C61.16 0, 114.07 0, 224.75 0 M8.25 0 C54.28 0, 100.31 0, 224.75 0 M224.75 0 C230.25 0, 233 2.75, 233 8.25 M224.75 0 C230.25 0, 233 2.75, 233 8.25 M233 8.25 C233 14.31, 233 20.36, 233 24.75 M233 8.25 C233 12.97, 233 17.7, 233 24.75 M233 24.75 C233 30.25, 230.25 33, 224.75 33 M233 24.75 C233 30.25, 230.25 33, 224.75 33 M224.75 33 C143.04 33, 61.32 33, 8.25 33 M224.75 33 C153.87 33, 82.98 33, 8.25 33 M8.25 33 C2.75 33, 0 30.25, 0 24.75 M8.25 33 C2.75 33, 0 30.25, 0 24.75 M0 24.75 C0 21.05, 0 17.35, 0 8.25 M0 24.75 C0 19.99, 0 15.23, 0 8.25 M0 8.25 C0 2.75, 2.75 0, 8.25 0 M0 8.25 C0 2.75, 2.75 0, 8.25 0" stroke="#000000" stroke-width="1" fill="none"></path></g><g transform="translate(182.1630859375 490) rotate(0 95.3369140625 11.5)"><text x="95.3369140625" y="0" font-family="Helvetica, Segoe UI Emoji" font-size="20px" fill="#000000" text-anchor="middle" style="white-space: pre;" direction="ltr" dominant-baseline="text-before-edge">hospital-&gt;pokemones</text></g><g stroke-linecap="round" transform="translate(10 584) rotate(0 64 21)"><path d="M0.91 -1.45 C34.97 0.01, 66.55 1.68, 129.58 1.51 M0.25 0.23 C43.12 -0.67, 87.52 -1.68, 127.64 -0.87 M129.02 -1.6 C128.28 9.8, 125.83 16.01, 129.06 42.14 M128.72 0.93 C128.1 14.78, 128.2 31.18, 127.5 42.18 M127.01 40.34 C90.24 43.19, 54.57 41.98, 1.94 41.19 M128.15 41.3 C99.21 41.99, 71.26 40.56, 0.83 41.19 M0.02 41.2 C1.28 29.69, 0.29 17.31, 1.85 -1.1 M-0.97 42.76 C0.32 31.49, 0.2 20.34, -0.58 -0.49" stroke="#000000" stroke-width="1" fill="none"></path></g><g transform="translate(56.7734375 593.5) rotate(0 17.2265625 11.5)"><text x="17.2265625" y="0" font-family="Helvetica, Segoe UI Emoji" font-size="20px" fill="#000000" text-anchor="middle" style="white-space: pre;" direction="ltr" dominant-baseline="text-before-edge">Null</text></g><g stroke-linecap="round"><g transform="translate(158 527) rotate(0 -17 25.5)"><path d="M0 0 C-12.5 18.74, -24.99 37.49, -34 51 M0 0 C-12.49 18.73, -24.97 37.46, -34 51" stroke="#000000" stroke-width="1" fill="none"></path></g><g transform="translate(158 527) rotate(0 -17 25.5)"><path d="M-26.9 21.85 C-29.51 32.56, -32.12 43.28, -34 51 M-26.9 21.85 C-29.51 32.56, -32.11 43.26, -34 51" stroke="#000000" stroke-width="1" fill="none"></path></g><g transform="translate(158 527) rotate(0 -17 25.5)"><path d="M-9.83 33.24 C-18.71 39.76, -27.59 46.29, -34 51 M-9.83 33.24 C-18.7 39.76, -27.58 46.28, -34 51" stroke="#000000" stroke-width="1" fill="none"></path></g></g><mask></mask><g transform="translate(144 584) rotate(0 -4 -32)" stroke="none"><path fill="#000000" d="M -2.51,0 Q -2.51,0 -2.54,-1.15 -2.57,-2.3 -2.64,-3.98 -2.72,-5.66 -2.68,-7.19 -2.64,-8.73 -2.65,-9.95 -2.66,-11.18 -2.65,-12.56 -2.64,-13.95 -2.64,-16.35 -2.64,-18.74 -2.70,-20.65 -2.76,-22.55 -2.98,-23.88 -3.19,-25.20 -3.29,-26.86 -3.40,-28.51 -4.13,-30.39 -4.87,-32.27 -5.39,-33.49 -5.91,-34.71 -6.24,-35.97 -6.58,-37.23 -6.68,-38.32 -6.79,-39.41 -7.08,-40.58 -7.37,-41.75 -7.58,-42.98 -7.78,-44.20 -7.86,-45.29 -7.93,-46.39 -8.55,-47.89 -9.17,-49.39 -9.60,-51.43 -10.03,-53.47 -10.10,-55.06 -10.17,-56.65 -10.57,-58.03 -10.97,-59.41 -11.11,-61.67 -11.24,-63.93 -11.16,-64.45 -11.09,-64.97 -10.85,-65.44 -10.61,-65.91 -10.24,-66.28 -9.87,-66.65 -9.39,-66.88 -8.92,-67.11 -8.40,-67.17 -7.88,-67.24 -7.36,-67.14 -6.85,-67.03 -6.39,-66.77 -5.94,-66.51 -5.59,-66.11 -5.25,-65.72 -5.04,-65.24 -4.84,-64.75 -4.80,-64.23 -4.76,-63.70 -4.89,-63.20 -5.02,-62.69 -5.31,-62.25 -5.60,-61.81 -6.01,-61.48 -6.42,-61.16 -6.92,-60.98 -7.41,-60.80 -7.94,-60.79 -8.46,-60.78 -8.96,-60.94 -9.46,-61.10 -9.89,-61.41 -10.31,-61.72 -10.61,-62.15 -10.92,-62.58 -11.06,-63.08 -11.21,-63.58 -11.20,-64.11 -11.18,-64.63 -10.99,-65.13 -10.81,-65.62 -10.47,-66.02 -10.14,-66.43 -9.70,-66.71 -9.25,-66.99 -8.74,-67.11 -8.23,-67.23 -7.71,-67.18 -7.18,-67.14 -6.70,-66.93 -6.22,-66.71 -5.84,-66.36 -5.45,-66.01 -5.19,-65.55 -4.94,-65.09 -4.84,-64.57 -4.75,-64.05 -4.75,-64.05 -4.75,-64.06 -4.63,-61.81 -4.52,-59.56 -4.14,-57.38 -3.76,-55.19 -3.73,-54.04 -3.70,-52.88 -3.25,-51.71 -2.79,-50.53 -2.35,-48.63 -1.90,-46.72 -1.82,-45.20 -1.73,-43.68 -1.37,-41.75 -1.01,-39.82 -1.01,-38.61 -1.00,-37.40 -0.42,-35.69 0.15,-33.99 0.58,-32.76 1.00,-31.52 1.38,-30.24 1.76,-28.97 1.90,-27.57 2.04,-26.16 2.40,-24.37 2.76,-22.57 2.70,-20.66 2.64,-18.74 2.64,-16.35 2.64,-13.95 2.65,-12.56 2.66,-11.18 2.65,-9.95 2.64,-8.73 2.68,-7.19 2.72,-5.66 2.64,-3.98 2.57,-2.3 2.54,-1.15 2.51,0 2.47,0.30 2.43,0.60 2.33,0.88 2.22,1.16 2.05,1.41 1.88,1.66 1.65,1.86 1.42,2.06 1.15,2.20 0.89,2.34 0.59,2.42 0.30,2.49 -0.00,2.49 -0.30,2.49 -0.59,2.42 -0.89,2.34 -1.15,2.20 -1.42,2.06 -1.65,1.86 -1.88,1.66 -2.05,1.41 -2.22,1.16 -2.33,0.88 -2.43,0.60 -2.47,0.30 -2.51,-0.00 -2.51,-0.00 L -2.51,0 Z"></path></g><g transform="translate(105 562) rotate(0 31.5 -9.5)" stroke="none"><path fill="#000000" d="M 0,-2.65 Q 0,-2.65 1.15,-2.67 2.3,-2.68 3.69,-2.76 5.08,-2.83 6.32,-3.27 7.56,-3.70 9.12,-4.06 10.68,-4.42 11.92,-4.63 13.15,-4.83 14.74,-5.32 16.33,-5.81 17.92,-6.16 19.51,-6.51 21.79,-7.31 24.07,-8.12 25.78,-8.34 27.49,-8.57 29.80,-9.28 32.11,-10.00 34.24,-10.58 36.37,-11.16 37.74,-11.56 39.11,-11.97 40.80,-12.18 42.50,-12.39 44.82,-13.13 47.14,-13.87 48.68,-14.62 50.21,-15.37 51.30,-15.53 52.38,-15.69 53.42,-16.18 54.45,-16.67 55.89,-17.20 57.32,-17.72 58.18,-18.64 59.04,-19.57 60.29,-20.70 61.54,-21.84 62.04,-22.00 62.53,-22.16 63.04,-22.15 63.56,-22.14 64.05,-21.97 64.54,-21.80 64.94,-21.48 65.35,-21.16 65.63,-20.72 65.92,-20.29 66.05,-19.79 66.18,-19.29 66.14,-18.77 66.11,-18.26 65.91,-17.78 65.71,-17.30 65.37,-16.91 65.03,-16.53 64.58,-16.27 64.13,-16.01 63.62,-15.90 63.12,-15.80 62.60,-15.86 62.09,-15.93 61.63,-16.15 61.16,-16.38 60.79,-16.74 60.42,-17.10 60.18,-17.56 59.95,-18.02 59.87,-18.53 59.80,-19.05 59.89,-19.55 59.98,-20.06 60.23,-20.52 60.48,-20.97 60.86,-21.32 61.24,-21.67 61.72,-21.88 62.19,-22.09 62.70,-22.14 63.22,-22.18 63.72,-22.06 64.23,-21.95 64.66,-21.67 65.10,-21.40 65.43,-21.00 65.76,-20.60 65.94,-20.12 66.13,-19.63 66.15,-19.12 66.17,-18.60 66.02,-18.10 65.87,-17.61 65.58,-17.18 65.28,-16.76 64.86,-16.45 64.45,-16.15 64.45,-16.15 64.45,-16.15 62.70,-14.58 60.95,-13.01 59.45,-12.37 57.95,-11.72 56.64,-11.31 55.32,-10.91 53.16,-10.40 51.01,-9.90 49.90,-9.36 48.80,-8.81 47.42,-8.34 46.03,-7.87 44.62,-7.46 43.20,-7.04 41.99,-6.88 40.78,-6.71 39.38,-6.23 37.99,-5.74 35.92,-5.21 33.85,-4.67 32.48,-4.19 31.12,-3.71 29.71,-3.27 28.31,-2.84 27.18,-2.67 26.05,-2.49 24.82,-2.01 23.59,-1.52 22.39,-1.04 21.19,-0.55 18.87,-0.08 16.55,0.39 14.60,0.86 12.65,1.34 10.94,1.55 9.23,1.75 7.16,2.29 5.08,2.83 3.69,2.76 2.3,2.68 1.15,2.67 0,2.65 -0.31,2.61 -0.63,2.57 -0.93,2.46 -1.23,2.34 -1.49,2.16 -1.75,1.98 -1.97,1.74 -2.18,1.50 -2.33,1.22 -2.48,0.94 -2.55,0.63 -2.63,0.31 -2.63,-0.00 -2.63,-0.32 -2.55,-0.63 -2.48,-0.94 -2.33,-1.22 -2.18,-1.50 -1.97,-1.74 -1.75,-1.98 -1.49,-2.16 -1.23,-2.34 -0.93,-2.46 -0.63,-2.57 -0.31,-2.61 0.00,-2.65 0.00,-2.65 L 0,-2.65 Z"></path></g><g stroke-linecap="round"><g transform="translate(328.77084117897493 527) rotate(0 7.832704512312944 20.612477105823814)"><path d="M0 0 C4.57 12.02, 9.13 24.04, 15.67 41.22 M0 0 C5.89 15.51, 11.79 31.01, 15.67 41.22" stroke="#000000" stroke-width="1" fill="none"></path></g><g transform="translate(328.77084117897493 527) rotate(0 7.832704512312944 20.612477105823814)"><path d="M1.26 24.53 C5.46 29.4, 9.66 34.27, 15.67 41.22 M1.26 24.53 C6.68 30.81, 12.1 37.09, 15.67 41.22" stroke="#000000" stroke-width="1" fill="none"></path></g><g transform="translate(328.77084117897493 527) rotate(0 7.832704512312944 20.612477105823814)"><path d="M15.35 19.18 C15.45 25.6, 15.54 32.03, 15.67 41.22 M15.35 19.18 C15.47 27.47, 15.59 35.76, 15.67 41.22" stroke="#000000" stroke-width="1" fill="none"></path></g></g><mask></mask><g transform="translate(355 587) rotate(0 35.369140625 7.621354071363214)"><text x="0" y="0" font-family="Helvetica, Segoe UI Emoji" font-size="13.25452881976213px" fill="#000000" text-anchor="start" style="white-space: pre;" direction="ltr" dominant-baseline="text-before-edge">pokemon_t*</text></g><g stroke-linecap="round" transform="translate(345 584) rotate(0 45 11.5)"><path d="M0 0 C33.61 0, 67.22 0, 90 0 M0 0 C34.49 0, 68.99 0, 90 0 M90 0 C90 8.34, 90 16.68, 90 23 M90 0 C90 7.64, 90 15.28, 90 23 M90 23 C65.07 23, 40.13 23, 0 23 M90 23 C56.65 23, 23.3 23, 0 23 M0 23 C0 15.5, 0 7.99, 0 0 M0 23 C0 16.88, 0 10.77, 0 0" stroke="#000000" stroke-width="1" fill="none"></path></g><g transform="translate(445 586.5) rotate(0 35.369140625 7.621354071363214)"><text x="0" y="0" font-family="Helvetica, Segoe UI Emoji" font-size="13.25452881976213px" fill="#000000" text-anchor="start" style="white-space: pre;" direction="ltr" dominant-baseline="text-before-edge">pokemon_t*</text></g><g stroke-linecap="round" transform="translate(435 583.5) rotate(0 45 11.5)"><path d="M0 0 C34.17 0, 68.35 0, 90 0 M0 0 C34.01 0, 68.01 0, 90 0 M90 0 C90 7.13, 90 14.25, 90 23 M90 0 C90 5.42, 90 10.84, 90 23 M90 23 C55.52 23, 21.04 23, 0 23 M90 23 C65.48 23, 40.96 23, 0 23 M0 23 C0 14.46, 0 5.93, 0 0 M0 23 C0 18.05, 0 13.09, 0 0" stroke="#000000" stroke-width="1" fill="none"></path></g><g transform="translate(534 586.5) rotate(0 35.369140625 7.621354071363214)"><text x="0" y="0" font-family="Helvetica, Segoe UI Emoji" font-size="13.25452881976213px" fill="#000000" text-anchor="start" style="white-space: pre;" direction="ltr" dominant-baseline="text-before-edge">pokemon_t*</text></g><g stroke-linecap="round" transform="translate(524 583.5) rotate(0 45 11.5)"><path d="M0 0 C18.9 0, 37.79 0, 90 0 M0 0 C32.53 0, 65.05 0, 90 0 M90 0 C90 5.48, 90 10.97, 90 23 M90 0 C90 7.74, 90 15.48, 90 23 M90 23 C71.46 23, 52.91 23, 0 23 M90 23 C69 23, 48 23, 0 23 M0 23 C0 16.48, 0 9.96, 0 0 M0 23 C0 16.06, 0 9.12, 0 0" stroke="#000000" stroke-width="1" fill="none"></path></g></svg>