<svg version="1.1" xmlns="http://www.w3.org/2000/svg" viewBox="0 0 638 834" width="638" height="834">
  <!-- svg-source:excalidraw -->
  
  <defs>
    <style class="style-fonts">
      @font-face {
        font-family: "Virgil";
        src: url("https://excalidraw.com/Virgil.woff2");
      }
      @font-face {
        font-family: "Cascadia";
        src: url("https://excalidraw.com/Cascadia.woff2");
      }
    </style>
  </defs>
  <rect x="0" y="0" width="638" height="834" fill="#ffffff"></rect><g transform="translate(74 13) rotate(0 44.4677734375 11.5)"><text x="0" y="0" font-family="Helvetica, Segoe UI Emoji" font-size="20px" fill="#000000" text-anchor="start" style="white-space: pre;" direction="ltr" dominant-baseline="text-before-edge">Hospital_t</text></g><g stroke-linecap="round" transform="translate(180 111) rotate(0 224 39.5)"><path d="M0 0 C146.83 0, 293.66 0, 448 0 M0 0 C105.4 0, 210.8 0, 448 0 M448 0 C448 27.36, 448 54.72, 448 79 M448 0 C448 17.84, 448 35.68, 448 79 M448 79 C290.4 79, 132.8 79, 0 79 M448 79 C302.58 79, 157.17 79, 0 79 M0 79 C0 52.46, 0 25.92, 0 0 M0 79 C0 55.83, 0 32.66, 0 0" stroke="#000000" stroke-width="1" fill="none"></path></g><g stroke-linecap="round"><g transform="translate(275 111) rotate(0 0 38)"><path d="M0 0 C0 28.08, 0 56.17, 0 76 M0 0 C0 15.52, 0 31.04, 0 76" stroke="#000000" stroke-width="1" fill="none"></path></g></g><mask></mask><g stroke-linecap="round"><g transform="translate(362 111) rotate(0 0 38.5)"><path d="M0 0 C0 30.77, 0 61.55, 0 77 M0 0 C0 24.13, 0 48.25, 0 77" stroke="#000000" stroke-width="1" fill="none"></path></g></g><mask></mask><g stroke-linecap="round"><g transform="translate(448 111) rotate(0 0 38.5)"><path d="M0 0 C0 22.79, 0 45.57, 0 77 M0 0 C0 15.8, 0 31.61, 0 77" stroke="#000000" stroke-width="1" fill="none"></path></g></g><mask></mask><g stroke-linecap="round"><g transform="translate(539 113) rotate(0 0 38.5)"><path d="M0 0 C0 24.92, 0 49.83, 0 77 M0 0 C0 21.71, 0 43.43, 0 77" stroke="#000000" stroke-width="1" fill="none"></path></g></g><mask></mask><g transform="translate(281.647163722826 142.5059918253761) rotate(0 37.81526184082031 7.74700408731195)"><text x="0" y="0" font-family="Helvetica, Segoe UI Emoji" font-size="13.473050586629494px" fill="#000000" text-anchor="start" style="white-space: pre;" direction="ltr" dominant-baseline="text-before-edge">pokemon_t *</text></g><g transform="translate(369.176120923913 143.2529959126881) rotate(0 37.81526184082031 7.74700408731195)"><text x="0" y="0" font-family="Helvetica, Segoe UI Emoji" font-size="13.473050586629494px" fill="#000000" text-anchor="start" style="white-space: pre;" direction="ltr" dominant-baseline="text-before-edge">pokemon_t *</text></g><g transform="translate(454.176120923913 142.2529959126881) rotate(0 37.81526184082031 7.74700408731195)"><text x="0" y="0" font-family="Helvetica, Segoe UI Emoji" font-size="13.473050586629494px" fill="#000000" text-anchor="start" style="white-space: pre;" direction="ltr" dominant-baseline="text-before-edge">pokemon_t *</text></g><g transform="translate(190.17612092391312 142.2529959126881) rotate(0 37.81526184082031 7.74700408731195)"><text x="0" y="0" font-family="Helvetica, Segoe UI Emoji" font-size="13.473050586629494px" fill="#000000" text-anchor="start" style="white-space: pre;" direction="ltr" dominant-baseline="text-before-edge">pokemon_t *</text></g><g transform="translate(547.176120923913 142.2529959126881) rotate(0 37.81526184082031 7.74700408731195)"><text x="0" y="0" font-family="Helvetica, Segoe UI Emoji" font-size="13.473050586629494px" fill="#000000" text-anchor="start" style="white-space: pre;" direction="ltr" dominant-baseline="text-before-edge">pokemon_t *</text></g><g transform="translate(92 55) rotate(0 30.5 52)" stroke="none"><path fill="#000000" d="M 2.58,0.64 Q 2.58,0.64 2.27,1.85 1.97,3.06 1.36,4.02 0.75,4.99 0.36,6.40 -0.02,7.81 -0.47,8.85 -0.93,9.89 -1.54,11.18 -2.16,12.47 -2.45,14.13 -2.74,15.79 -2.71,16.86 -2.68,17.93 -2.75,18.99 -2.83,20.06 -3.35,21.15 -3.86,22.25 -3.74,24.05 -3.63,25.84 -3.62,27.01 -3.61,28.18 -3.61,29.50 -3.60,30.82 -3.59,32.00 -3.58,33.18 -3.58,34.62 -3.58,36.06 -3.57,37.43 -3.57,38.80 -3.56,39.98 -3.55,41.17 -3.56,42.62 -3.56,44.06 -3.56,45.43 -3.56,46.80 -3.55,47.98 -3.54,49.17 -3.54,50.62 -3.55,52.06 -3.54,53.14 -3.52,54.22 -3.05,55.57 -2.57,56.93 -2.37,58.36 -2.17,59.79 -1.36,61.32 -0.54,62.85 0.33,64.55 1.22,66.25 1.71,67.21 2.20,68.17 2.72,69.17 3.23,70.17 3.99,71.37 4.75,72.57 5.71,73.54 6.67,74.51 7.64,75.51 8.60,76.51 9.74,77.08 10.87,77.66 12.54,78.55 14.20,79.44 15.27,79.97 16.33,80.49 17.87,81.13 19.41,81.76 20.33,82.47 21.25,83.18 22.65,83.31 24.05,83.43 25.28,83.43 26.51,83.43 27.74,83.93 28.96,84.43 30.50,84.94 32.04,85.45 33.19,85.43 34.33,85.40 36.37,85.70 38.41,85.99 39.32,86.59 40.23,87.19 41.26,86.78 42.29,86.38 43.37,86.67 44.45,86.97 45.36,87.58 46.26,88.18 47.28,87.76 48.29,87.35 50.37,87.65 52.45,87.95 53.36,88.55 54.28,89.16 55.28,88.74 56.29,88.33 56.79,88.33 57.29,88.33 57.73,88.39 58.16,88.45 58.57,88.61 58.98,88.77 59.35,89.02 59.71,89.27 60.00,89.61 60.29,89.94 60.49,90.33 60.69,90.72 60.79,91.15 60.89,91.58 60.89,92.02 60.89,92.46 60.78,92.89 60.67,93.32 60.46,93.71 60.25,94.10 59.96,94.42 59.66,94.75 59.30,95.00 58.93,95.25 58.52,95.40 58.11,95.55 57.67,95.60 57.23,95.65 55.53,94.19 53.84,92.73 53.26,91.73 52.68,90.72 52.20,89.77 51.73,88.81 50.97,87.62 50.22,86.43 48.83,85.01 47.44,83.59 46.69,80.44 45.93,77.29 48.24,76.70 50.55,76.10 51.80,76.94 53.05,77.77 54.14,78.11 55.23,78.44 56.26,78.95 57.28,79.47 58.31,79.98 59.34,80.50 61.28,81.49 63.21,82.48 64.77,83.50 66.32,84.51 67.37,85.41 68.42,86.30 69.77,87.69 71.12,89.07 70.91,90.89 70.70,92.72 70.36,93.76 70.03,94.79 69.16,95.83 68.29,96.87 67.08,97.54 65.87,98.21 64.67,98.94 63.47,99.66 62.49,100.65 61.51,101.63 60.75,102.40 59.99,103.16 59.09,104.07 58.18,104.98 57.12,105.49 56.07,106.00 55.67,106.44 55.27,106.88 54.75,107.17 54.23,107.45 53.64,107.56 53.06,107.66 52.47,107.58 51.88,107.49 51.35,107.22 50.82,106.95 50.41,106.53 49.99,106.11 49.73,105.57 49.48,105.04 49.40,104.45 49.33,103.86 49.45,103.28 49.56,102.69 49.86,102.18 50.16,101.67 50.60,101.27 51.05,100.88 51.60,100.65 52.15,100.42 52.74,100.38 53.33,100.34 53.91,100.49 54.48,100.64 54.98,100.96 55.47,101.29 55.84,101.76 56.21,102.22 56.41,102.78 56.61,103.34 56.62,103.93 56.63,104.53 56.45,105.09 56.27,105.66 55.91,106.14 55.56,106.62 55.08,106.96 54.59,107.30 54.02,107.47 53.45,107.64 52.86,107.61 52.27,107.59 51.71,107.38 51.16,107.17 50.70,106.79 50.24,106.42 49.92,105.91 49.61,105.41 49.47,104.83 49.33,104.25 49.39,103.66 49.44,103.07 49.68,102.53 49.92,101.99 49.92,101.99 49.92,101.99 51.59,100.80 53.25,99.61 54.29,98.60 55.33,97.60 56.35,97.04 57.37,96.48 58.43,95.39 59.50,94.30 60.48,93.43 61.46,92.55 62.56,91.98 63.65,91.41 64.31,90.28 64.97,89.15 64.76,90.38 64.56,91.62 63.28,90.86 62.00,90.11 60.99,89.63 59.99,89.16 59.00,88.64 58.01,88.12 56.59,87.18 55.17,86.24 54.19,85.76 53.21,85.27 51.46,84.61 49.71,83.95 49.01,83.01 48.31,82.07 49.40,81.91 50.50,81.74 50.50,79.56 50.49,77.38 51.50,78.35 52.51,79.33 53.60,80.42 54.68,81.52 56.09,83.08 57.50,84.63 58.47,86.57 59.43,88.50 59.90,89.88 60.37,91.25 58.83,89.79 57.29,88.33 57.72,88.39 58.16,88.45 58.57,88.61 58.98,88.77 59.35,89.02 59.71,89.27 60.00,89.61 60.29,89.94 60.49,90.33 60.69,90.72 60.79,91.15 60.89,91.58 60.89,92.02 60.89,92.46 60.78,92.89 60.67,93.32 60.46,93.71 60.25,94.10 59.96,94.42 59.66,94.75 59.30,95.00 58.93,95.25 58.52,95.40 58.11,95.55 57.67,95.60 57.23,95.65 55.67,95.63 54.12,95.62 52.72,95.46 51.32,95.30 50.29,94.96 49.25,94.63 47.68,94.62 46.12,94.60 44.73,94.43 43.33,94.27 42.27,93.93 41.20,93.59 40.06,93.54 38.92,93.50 37.56,93.03 36.21,92.56 35.12,92.54 34.03,92.52 32.63,92.42 31.24,92.31 29.98,91.87 28.72,91.43 27.29,90.96 25.85,90.49 24.56,90.42 23.27,90.35 21.57,89.92 19.87,89.49 18.41,88.74 16.95,88.00 15.53,87.75 14.11,87.50 13.17,86.89 12.23,86.27 10.57,85.67 8.91,85.08 7.85,84.48 6.80,83.89 5.93,83.02 5.07,82.14 3.73,80.83 2.40,79.52 1.51,78.67 0.63,77.82 -0.92,76.10 -2.47,74.38 -3.08,72.90 -3.68,71.41 -4.18,70.40 -4.68,69.39 -5.21,68.35 -5.74,67.30 -6.21,65.83 -6.67,64.35 -7.59,63.19 -8.50,62.02 -8.62,60.09 -8.75,58.15 -9.34,57.25 -9.93,56.35 -10.19,54.76 -10.45,53.17 -10.45,51.98 -10.44,50.80 -10.44,49.43 -10.44,48.06 -10.44,46.62 -10.44,45.17 -10.43,43.98 -10.42,42.80 -10.42,41.43 -10.42,40.06 -10.43,38.62 -10.43,37.17 -10.42,35.98 -10.40,34.80 -10.40,33.43 -10.40,32.07 -10.40,30.64 -10.39,29.22 -10.37,28.13 -10.35,27.04 -10.33,25.55 -10.31,24.05 -10.19,22.70 -10.08,21.35 -9.66,19.54 -9.24,17.73 -9.09,16.07 -8.94,14.42 -8.40,12.86 -7.86,11.30 -7.25,10.12 -6.64,8.95 -6.16,7.68 -5.67,6.42 -5.04,4.87 -4.41,3.33 -3.77,2.43 -3.12,1.53 -2.85,0.44 -2.58,-0.64 -2.46,-0.94 -2.35,-1.24 -2.16,-1.50 -1.98,-1.77 -1.74,-1.98 -1.50,-2.19 -1.21,-2.34 -0.93,-2.49 -0.62,-2.56 -0.31,-2.64 0.00,-2.64 0.32,-2.64 0.64,-2.56 0.95,-2.48 1.23,-2.33 1.51,-2.18 1.75,-1.97 1.99,-1.75 2.17,-1.49 2.36,-1.22 2.47,-0.92 2.58,-0.62 2.62,-0.30 2.66,0.00 2.62,0.32 2.58,0.64 2.58,0.64 L 2.58,0.64 Z"></path></g><g transform="translate(68 49) rotate(0 39 115.5)" stroke="none"><path fill="#000000" d="M 2.58,0.64 Q 2.58,0.64 2.31,1.79 2.03,2.95 1.51,4.70 0.98,6.45 0.54,7.65 0.09,8.85 -0.31,10.38 -0.72,11.91 -1.22,13.15 -1.72,14.40 -2.15,15.57 -2.59,16.75 -3.16,17.71 -3.73,18.67 -4.63,20.35 -5.53,22.03 -6.49,23.76 -7.45,25.50 -7.99,26.60 -8.52,27.70 -9.03,28.74 -9.55,29.78 -10.49,31.76 -11.43,33.73 -11.98,34.75 -12.54,35.77 -13.10,37.84 -13.65,39.91 -14.15,41.15 -14.66,42.40 -15.16,43.52 -15.67,44.63 -16.17,45.68 -16.67,46.73 -17.15,47.91 -17.63,49.09 -18.15,50.45 -18.68,51.82 -19.21,53.07 -19.74,54.32 -20.24,55.61 -20.74,56.90 -21.30,59.12 -21.86,61.34 -22.31,62.63 -22.77,63.92 -23.28,65.33 -23.78,66.73 -24.00,68.94 -24.22,71.15 -24.60,72.79 -24.97,74.43 -25.13,76.76 -25.28,79.09 -25.32,80.50 -25.36,81.92 -25.69,83.40 -26.01,84.87 -26.13,87.01 -26.25,89.15 -26.25,90.26 -26.26,91.37 -26.32,92.98 -26.39,94.60 -26.38,95.86 -26.37,97.13 -26.38,98.53 -26.39,99.93 -26.37,101.10 -26.36,102.27 -26.36,103.63 -26.37,104.99 -26.38,106.43 -26.40,107.87 -26.38,109.05 -26.36,110.24 -26.36,111.61 -26.37,112.97 -26.35,114.13 -26.33,115.29 -26.31,116.35 -26.28,117.42 -26.29,118.73 -26.29,120.05 -26.01,121.80 -25.73,123.56 -25.56,124.81 -25.40,126.07 -25.36,127.49 -25.31,128.91 -24.66,130.66 -24.01,132.42 -23.76,134.05 -23.52,135.68 -22.98,137.85 -22.44,140.02 -22.14,141.18 -21.84,142.33 -21.45,143.33 -21.05,144.32 -20.60,145.31 -20.15,146.29 -19.67,147.28 -19.18,148.27 -18.68,149.28 -18.18,150.28 -17.86,151.57 -17.54,152.85 -16.63,154.36 -15.72,155.86 -15.02,157.50 -14.32,159.15 -13.79,160.71 -13.26,162.27 -12.24,164.16 -11.22,166.06 -10.67,167.59 -10.11,169.12 -9.66,170.50 -9.21,171.88 -8.28,173.31 -7.35,174.74 -6.74,175.98 -6.13,177.21 -5.55,178.20 -4.97,179.20 -4.41,180.18 -3.86,181.17 -3.21,182.79 -2.57,184.42 -1.72,185.78 -0.87,187.14 0.09,188.62 1.06,190.10 1.89,190.82 2.71,191.54 4.26,193.24 5.80,194.95 6.99,195.85 8.18,196.76 9.33,197.83 10.47,198.90 11.79,199.81 13.10,200.72 14.61,201.57 16.12,202.43 17.52,203.07 18.92,203.72 19.95,204.16 20.99,204.59 22.02,205.03 23.05,205.48 23.97,206.06 24.88,206.65 25.95,207.11 27.01,207.58 28.02,208.02 29.02,208.46 30.75,209.02 32.49,209.58 33.49,210.06 34.50,210.53 36.15,211.08 37.79,211.64 39.39,212.14 40.98,212.65 42.98,213.12 44.98,213.58 46.63,214.03 48.29,214.47 49.16,215.28 50.03,216.09 51.09,216.33 52.14,216.58 53.18,217.08 54.21,217.58 55.67,218.06 57.14,218.55 58.20,218.98 59.26,219.41 60.46,219.90 61.66,220.39 63.62,220.90 65.59,221.40 66.95,221.43 68.32,221.46 69.41,221.48 70.50,221.51 71.74,222.00 72.99,222.48 74.27,222.48 75.54,222.47 76.78,222.97 78.02,223.46 79.66,223.47 81.30,223.47 82.56,223.94 83.81,224.41 85.07,224.41 86.32,224.41 87.41,224.44 88.50,224.47 89.76,224.96 91.01,225.45 92.17,225.41 93.32,225.38 94.79,225.38 96.26,225.38 97.76,225.38 99.26,225.38 101.14,225.90 103.02,226.42 105.21,226.90 107.40,227.39 107.96,227.55 108.53,227.71 109.01,228.04 109.50,228.37 109.85,228.84 110.21,229.30 110.39,229.86 110.58,230.42 110.58,231.01 110.57,231.59 110.39,232.15 110.20,232.70 109.84,233.17 109.48,233.64 109.00,233.97 108.51,234.29 107.94,234.45 107.38,234.60 106.79,234.57 106.20,234.54 105.66,234.32 105.11,234.10 104.67,233.72 104.22,233.34 103.92,232.83 103.62,232.33 103.50,231.75 103.37,231.18 103.44,230.60 103.50,230.01 103.75,229.48 104.00,228.95 104.40,228.52 104.81,228.10 105.33,227.83 105.85,227.55 106.43,227.46 107.01,227.37 107.59,227.46 108.16,227.56 108.68,227.84 109.20,228.11 109.60,228.54 110.01,228.97 110.25,229.50 110.49,230.04 110.56,230.62 110.62,231.20 110.49,231.78 110.36,232.35 110.06,232.85 109.75,233.35 109.30,233.73 108.86,234.11 108.31,234.33 107.76,234.54 107.18,234.57 106.59,234.60 106.59,234.60 106.59,234.60 104.66,234.03 102.73,233.47 101.37,233.01 100.02,232.55 98.63,232.58 97.25,232.61 95.74,232.60 94.23,232.59 93.16,232.57 92.10,232.56 90.75,232.43 89.41,232.30 88.32,231.93 87.23,231.57 86.16,231.55 85.09,231.53 83.75,231.40 82.41,231.27 81.07,230.90 79.73,230.52 78.07,230.40 76.40,230.28 75.25,229.90 74.10,229.52 72.76,229.39 71.42,229.26 69.80,228.88 68.18,228.50 67.01,228.45 65.85,228.40 64.15,227.88 62.45,227.37 60.43,226.86 58.40,226.35 57.25,226.21 56.09,226.06 54.18,225.11 52.27,224.15 51.27,223.65 50.27,223.14 48.66,222.55 47.05,221.95 45.95,221.15 44.85,220.35 43.38,219.84 41.91,219.33 40.65,219.20 39.39,219.08 37.89,218.55 36.38,218.02 34.72,217.47 33.06,216.91 31.04,215.93 29.02,214.94 27.74,214.69 26.45,214.43 24.81,213.78 23.17,213.13 21.80,212.28 20.44,211.43 18.84,210.80 17.24,210.18 16.30,209.67 15.37,209.15 14.24,208.62 13.11,208.08 12.11,207.56 11.10,207.03 9.59,206.01 8.08,204.99 6.52,203.78 4.96,202.57 3.90,201.59 2.84,200.60 1.70,199.64 0.56,198.68 -0.24,197.74 -1.04,196.79 -2.16,195.91 -3.28,195.04 -4.30,193.52 -5.32,192.00 -6.33,190.44 -7.35,188.89 -7.94,187.97 -8.52,187.06 -8.97,186.04 -9.41,185.02 -9.87,183.97 -10.33,182.92 -10.91,182.02 -11.50,181.12 -11.92,179.92 -12.35,178.71 -12.83,177.43 -13.31,176.15 -14.33,174.34 -15.35,172.53 -15.82,171.07 -16.30,169.61 -17.23,167.68 -18.15,165.76 -18.74,164.24 -19.33,162.71 -19.70,161.22 -20.07,159.72 -20.71,158.40 -21.36,157.08 -22.31,154.90 -23.27,152.72 -23.76,151.71 -24.25,150.69 -24.75,149.63 -25.24,148.57 -25.74,147.45 -26.23,146.32 -26.71,145.05 -27.19,143.78 -27.69,141.47 -28.18,139.16 -28.70,136.80 -29.22,134.44 -29.68,133.24 -30.13,132.04 -30.48,130.60 -30.83,129.16 -30.97,126.99 -31.11,124.82 -31.40,122.43 -31.70,120.05 -31.70,118.73 -31.71,117.42 -31.68,116.35 -31.66,115.29 -31.64,114.13 -31.62,112.97 -31.62,111.61 -31.63,110.24 -31.61,109.05 -31.59,107.87 -31.61,106.42 -31.62,104.98 -31.63,103.62 -31.63,102.26 -31.61,101.09 -31.59,99.92 -31.60,98.51 -31.60,97.11 -31.59,95.84 -31.58,94.57 -31.62,92.91 -31.67,91.26 -31.62,90.10 -31.58,88.93 -31.52,87.51 -31.47,86.09 -31.01,83.94 -30.55,81.80 -30.54,80.33 -30.53,78.86 -30.47,77.40 -30.41,75.94 -30.24,74.61 -30.06,73.29 -29.79,72.05 -29.51,70.81 -29.42,69.30 -29.33,67.80 -29.06,66.43 -28.79,65.06 -28.34,63.62 -27.89,62.18 -27.12,59.99 -26.34,57.79 -26.06,56.43 -25.77,55.06 -25.27,53.63 -24.77,52.19 -24.31,51.09 -23.84,49.99 -23.37,48.53 -22.90,47.07 -22.38,45.65 -21.87,44.24 -21.38,43.24 -20.90,42.24 -20.45,41.25 -19.99,40.25 -19.59,39.25 -19.19,38.24 -18.85,37.02 -18.51,35.79 -18.14,34.42 -17.76,33.05 -17.18,31.92 -16.60,30.80 -15.78,28.98 -14.96,27.17 -14.48,26.15 -14.00,25.14 -13.53,24.11 -13.06,23.08 -12.04,21.12 -11.01,19.17 -10.51,18.20 -10.02,17.22 -9.48,16.26 -8.95,15.30 -8.35,14.20 -7.74,13.10 -7.03,11.38 -6.32,9.67 -5.94,8.46 -5.55,7.24 -4.76,5.48 -3.98,3.72 -3.58,2.68 -3.18,1.64 -2.88,0.50 -2.58,-0.64 -2.47,-0.94 -2.35,-1.24 -2.17,-1.51 -1.99,-1.77 -1.74,-1.98 -1.50,-2.20 -1.22,-2.34 -0.93,-2.49 -0.62,-2.57 -0.31,-2.64 0.00,-2.64 0.33,-2.64 0.64,-2.56 0.95,-2.49 1.23,-2.34 1.52,-2.19 1.76,-1.97 2.00,-1.76 2.18,-1.49 2.36,-1.23 2.47,-0.93 2.59,-0.62 2.63,-0.31 2.66,0.00 2.62,0.32 2.58,0.64 2.58,0.64 L 2.58,0.64 Z"></path></g><g transform="translate(166 257) rotate(0 16 24)" stroke="none"><path fill="#000000" d="M 1.87,-1.87 Q 1.87,-1.87 2.45,-1.34 3.03,-0.81 3.95,-0.03 4.88,0.75 6.07,1.42 7.26,2.08 8.36,3.06 9.46,4.04 10.88,4.83 12.31,5.62 13.41,6.73 14.52,7.84 15.54,8.68 16.56,9.52 18.08,10.71 19.60,11.89 21.04,12.89 22.49,13.90 23.23,14.96 23.97,16.02 25.08,16.86 26.19,17.71 27.41,19.21 28.63,20.72 30.10,21.82 31.56,22.93 32.32,23.80 33.07,24.67 34.58,26.38 36.08,28.09 36.79,30.48 37.51,32.87 37.12,33.94 36.73,35.00 34.62,35.95 32.51,36.91 31.02,37.25 29.53,37.59 28.15,38.18 26.77,38.77 24.85,39.32 22.93,39.87 21.81,40.52 20.69,41.18 19.62,41.68 18.55,42.18 17.02,42.81 15.48,43.45 13.90,43.79 12.31,44.14 10.90,44.84 9.49,45.55 7.59,46.29 5.69,47.03 4.18,47.56 2.68,48.08 1.69,48.59 0.70,49.09 -0.31,50.06 -1.33,51.04 -1.86,51.22 -2.38,51.41 -2.95,51.42 -3.51,51.43 -4.04,51.25 -4.58,51.08 -5.03,50.75 -5.48,50.42 -5.80,49.96 -6.12,49.50 -6.28,48.96 -6.44,48.42 -6.42,47.86 -6.39,47.30 -6.19,46.77 -5.99,46.25 -5.64,45.82 -5.28,45.38 -4.80,45.09 -4.33,44.79 -3.78,44.66 -3.23,44.53 -2.67,44.59 -2.12,44.64 -1.60,44.87 -1.09,45.10 -0.68,45.48 -0.26,45.86 0.00,46.35 0.27,46.84 0.36,47.39 0.46,47.95 0.38,48.50 0.30,49.06 0.04,49.55 -0.20,50.05 -0.61,50.45 -1.01,50.84 -1.51,51.08 -2.02,51.32 -2.58,51.39 -3.13,51.46 -3.68,51.35 -4.23,51.24 -4.72,50.95 -5.20,50.67 -5.57,50.25 -5.94,49.83 -6.16,49.31 -6.37,48.79 -6.41,48.23 -6.45,47.67 -6.31,47.13 -6.16,46.58 -5.86,46.11 -5.55,45.65 -5.10,45.30 -4.66,44.95 -4.66,44.95 -4.66,44.95 -2.91,43.79 -1.15,42.63 -0.08,42.12 0.97,41.62 2.51,41.12 4.05,40.62 5.45,40.02 6.84,39.43 7.97,39.05 9.09,38.67 10.98,38.08 12.87,37.49 13.99,37.11 15.11,36.73 16.08,36.20 17.05,35.66 18.30,35.16 19.55,34.65 21.28,34.10 23.02,33.56 24.41,33.08 25.79,32.61 26.93,32.08 28.08,31.56 29.39,31.55 30.69,31.55 29.81,30.69 28.93,29.83 27.90,28.69 26.86,27.54 25.86,26.60 24.86,25.65 24.08,24.35 23.30,23.04 22.06,22.35 20.82,21.65 19.68,20.67 18.54,19.69 17.60,18.56 16.65,17.43 14.84,16.14 13.04,14.86 11.93,14.08 10.83,13.30 9.43,11.97 8.03,10.65 6.56,9.60 5.09,8.55 4.26,7.71 3.43,6.87 2.65,5.96 1.88,5.05 0.57,4.08 -0.73,3.11 -1.30,2.49 -1.87,1.87 -2.07,1.62 -2.27,1.37 -2.40,1.08 -2.53,0.78 -2.59,0.47 -2.64,0.16 -2.62,-0.15 -2.61,-0.47 -2.51,-0.78 -2.41,-1.08 -2.25,-1.36 -2.08,-1.63 -1.86,-1.86 -1.63,-2.08 -1.36,-2.25 -1.08,-2.42 -0.78,-2.51 -0.47,-2.61 -0.15,-2.62 0.16,-2.64 0.47,-2.59 0.78,-2.53 1.08,-2.40 1.37,-2.27 1.62,-2.07 1.87,-1.87 1.87,-1.87 L 1.87,-1.87 Z"></path></g><g transform="translate(185 83.51309211676278) rotate(0 75.19982147216797 7.743453941618597)"><text x="0" y="0" font-family="Helvetica, Segoe UI Emoji" font-size="13.46687642020626px" fill="#000000" text-anchor="start" style="white-space: pre;" direction="ltr" dominant-baseline="text-before-edge">pokemon_t **pokemones</text></g><g transform="translate(223 270) rotate(0 113.408203125 11.5)"><text x="0" y="0" font-family="Helvetica, Segoe UI Emoji" font-size="20px" fill="#000000" text-anchor="start" style="white-space: pre;" direction="ltr" dominant-baseline="text-before-edge">size_t cantidad_pokemon</text></g><g transform="translate(56 38) rotate(0 38 170.5)" stroke="none"><path fill="#000000" d="M 0,2.67 Q 0,2.67 -1.12,2.68 -2.24,2.69 -3.80,3.76 -5.36,4.83 -6.74,5.66 -8.11,6.48 -9.12,7.52 -10.12,8.56 -11.13,9.22 -12.14,9.88 -13.52,11.23 -14.91,12.57 -15.75,13.58 -16.60,14.58 -18.29,16.15 -19.99,17.72 -20.90,18.93 -21.81,20.13 -23.20,21.56 -24.58,22.99 -25.57,24.23 -26.56,25.47 -27.55,26.91 -28.55,28.36 -29.53,29.83 -30.52,31.30 -31.01,33.00 -31.51,34.69 -32.00,35.76 -32.50,36.82 -33.00,37.84 -33.50,38.86 -34.03,40.38 -34.56,41.90 -35.11,43.64 -35.65,45.38 -36.09,47.04 -36.52,48.70 -37.01,49.76 -37.49,50.82 -37.61,51.91 -37.72,52.99 -38.13,55.23 -38.53,57.47 -38.66,58.88 -38.78,60.29 -39.23,61.43 -39.69,62.57 -39.70,63.69 -39.71,64.82 -39.75,66.71 -39.80,68.60 -40.16,70.01 -40.52,71.41 -41.02,73.47 -41.52,75.52 -41.65,77.11 -41.79,78.71 -41.83,80.63 -41.86,82.55 -42.21,84.78 -42.56,87.02 -42.69,88.57 -42.81,90.12 -42.83,91.87 -42.85,93.62 -42.84,95.29 -42.83,96.96 -42.83,98.76 -42.83,100.56 -42.45,102.33 -42.07,104.10 -41.57,105.64 -41.08,107.19 -41.00,108.29 -40.92,109.39 -40.67,111.01 -40.42,112.63 -40.24,113.88 -40.07,115.13 -40.01,116.24 -39.95,117.35 -39.92,119.42 -39.89,121.49 -39.89,123.50 -39.88,125.51 -39.86,127.10 -39.84,128.70 -39.87,130.91 -39.91,133.12 -39.92,135.16 -39.93,137.20 -39.94,138.29 -39.94,139.38 -39.97,141.73 -40.01,144.07 -40.05,145.48 -40.09,146.90 -40.09,149.03 -40.08,151.16 -40.08,152.26 -40.08,153.37 -40.10,154.70 -40.12,156.03 -40.12,157.17 -40.12,158.31 -40.13,160.68 -40.14,163.05 -40.14,164.19 -40.13,165.32 -40.10,167.11 -40.06,168.91 -40.06,170.08 -40.07,171.26 -40.10,172.62 -40.13,173.98 -40.13,175.12 -40.13,176.26 -39.71,178.19 -39.30,180.12 -38.62,181.75 -37.94,183.37 -37.66,184.67 -37.37,185.98 -36.84,187.64 -36.30,189.30 -35.76,191.21 -35.22,193.12 -34.75,194.57 -34.28,196.02 -33.88,197.76 -33.48,199.50 -32.90,201.64 -32.32,203.79 -32.24,204.98 -32.15,206.17 -31.70,208.13 -31.25,210.09 -30.78,212.41 -30.31,214.73 -29.63,216.04 -28.95,217.36 -28.48,218.32 -28.01,219.28 -27.69,220.61 -27.37,221.93 -26.83,223.59 -26.29,225.24 -25.60,226.28 -24.92,227.32 -24.09,229.54 -23.27,231.75 -22.75,232.98 -22.23,234.21 -21.36,235.51 -20.50,236.81 -19.70,238.48 -18.91,240.16 -17.56,242.00 -16.21,243.85 -14.97,245.72 -13.73,247.58 -13.25,248.60 -12.76,249.62 -11.90,250.94 -11.04,252.25 -9.89,253.96 -8.74,255.66 -7.96,256.94 -7.18,258.23 -5.93,259.57 -4.67,260.92 -3.57,262.82 -2.46,264.73 -1.36,265.86 -0.26,266.99 0.32,268.03 0.91,269.08 1.76,270.07 2.62,271.07 3.26,272.08 3.90,273.09 5.23,274.48 6.56,275.87 7.83,276.84 9.09,277.81 10.77,279.33 12.45,280.85 13.50,281.72 14.55,282.59 15.57,283.52 16.59,284.45 18.10,285.08 19.60,285.72 21.41,287.23 23.23,288.74 24.82,289.60 26.41,290.47 28.07,291.02 29.72,291.56 30.77,292.06 31.82,292.55 32.74,293.15 33.67,293.74 35.34,294.65 37.02,295.55 37.97,296.05 38.93,296.54 40.37,297.18 41.82,297.82 43.01,298.33 44.20,298.85 45.29,299.84 46.39,300.84 47.57,301.26 48.76,301.69 49.91,302.23 51.07,302.78 52.28,303.63 53.49,304.48 54.74,305.09 55.99,305.69 57.01,306.18 58.04,306.68 59.38,307.12 60.72,307.56 62.45,308.62 64.17,309.68 65.58,310.13 66.99,310.59 68.35,311.03 69.71,311.48 71.36,312.02 73.02,312.57 74.09,313.08 75.17,313.59 76.19,314.09 77.21,314.59 78.65,315.06 80.08,315.53 81.58,316.02 83.08,316.51 84.15,317.03 85.21,317.54 86.67,317.90 88.13,318.25 89.35,318.36 90.57,318.48 91.78,318.98 92.99,319.48 95.03,319.86 97.07,320.25 98.20,320.55 99.32,320.84 100.26,321.51 101.19,322.19 102.24,321.79 103.29,321.40 104.78,321.40 106.26,321.40 107.76,321.39 109.26,321.39 110.76,321.38 112.26,321.38 111.28,322.10 110.31,322.82 110.65,323.84 110.99,324.86 110.35,323.78 109.71,322.69 108.46,321.55 107.22,320.42 106.30,319.52 105.39,318.63 104.50,318.05 103.60,317.47 102.63,316.95 101.65,316.42 100.74,315.54 99.83,314.66 98.77,314.02 97.71,313.39 96.53,312.31 95.35,311.23 94.32,310.21 93.30,309.19 92.21,307.66 91.12,306.12 90.33,305.31 89.54,304.51 88.41,303.58 87.27,302.65 87.15,302.24 87.03,301.83 87.00,301.40 86.98,300.98 87.06,300.56 87.14,300.14 87.32,299.75 87.50,299.36 87.77,299.03 88.03,298.69 88.37,298.43 88.71,298.17 89.10,298.00 89.49,297.83 89.91,297.75 90.33,297.68 90.76,297.71 91.19,297.74 91.59,297.87 92.00,298.00 92.36,298.22 92.73,298.45 93.03,298.75 93.33,299.06 93.54,299.42 93.76,299.79 91.56,298.83 89.37,297.86 90.61,297.77 91.85,297.69 93.47,298.54 95.09,299.39 96.31,300.53 97.53,301.66 99.05,302.69 100.57,303.72 101.89,304.64 103.21,305.56 104.40,306.46 105.59,307.35 106.94,308.50 108.29,309.64 109.55,310.08 110.80,310.53 112.52,311.60 114.24,312.68 115.79,314.05 117.33,315.42 118.89,316.11 120.45,316.80 121.47,317.74 122.49,318.68 123.64,319.72 124.79,320.76 124.68,322.72 124.57,324.68 124.03,325.63 123.49,326.58 122.31,327.73 121.12,328.88 120.11,329.43 119.10,329.98 118.11,330.95 117.12,331.92 115.43,332.57 113.74,333.22 112.74,333.72 111.74,334.22 109.87,335.15 108.01,336.08 106.93,336.63 105.85,337.18 104.13,338.47 102.41,339.75 101.20,340.43 99.99,341.11 99.00,341.59 98.00,342.06 96.80,343.14 95.59,344.21 95.04,344.38 94.49,344.55 93.90,344.53 93.32,344.52 92.78,344.32 92.23,344.12 91.78,343.76 91.33,343.39 91.02,342.91 90.70,342.42 90.56,341.85 90.42,341.29 90.47,340.71 90.51,340.13 90.74,339.60 90.97,339.07 91.36,338.64 91.74,338.20 92.25,337.92 92.75,337.63 93.32,337.52 93.89,337.41 94.47,337.49 95.04,337.56 95.56,337.82 96.08,338.08 96.49,338.49 96.91,338.90 97.16,339.42 97.42,339.94 97.50,340.51 97.58,341.09 97.47,341.66 97.36,342.23 97.08,342.73 96.79,343.24 96.36,343.63 95.93,344.01 95.40,344.24 94.87,344.47 94.29,344.52 93.71,344.57 93.15,344.43 92.58,344.29 92.09,343.98 91.60,343.67 91.24,343.22 90.88,342.76 90.67,342.22 90.47,341.68 90.46,341.10 90.44,340.52 90.61,339.96 90.78,339.41 91.12,338.93 91.46,338.46 91.93,338.12 92.40,337.78 92.40,337.78 92.40,337.78 94.56,336.16 96.73,334.53 97.87,334.15 99.01,333.77 100.35,332.64 101.69,331.51 103.53,330.49 105.37,329.46 106.44,328.70 107.51,327.93 108.62,327.73 109.73,327.52 110.74,327.02 111.75,326.52 113.11,325.64 114.46,324.75 115.82,323.77 117.18,322.78 118.17,322.40 119.16,322.01 118.51,322.94 117.86,323.87 116.06,322.55 114.25,321.24 113.45,320.42 112.64,319.60 111.33,318.75 110.02,317.90 108.46,316.92 106.90,315.95 105.48,315.41 104.06,314.87 103.03,314.02 102.01,313.16 100.95,312.50 99.88,311.83 98.96,311.04 98.03,310.25 96.44,309.07 94.85,307.88 93.86,307.35 92.86,306.82 92.54,305.57 92.22,304.32 89.75,303.48 87.27,302.65 87.15,302.24 87.03,301.83 87.00,301.40 86.98,300.98 87.06,300.56 87.14,300.14 87.32,299.75 87.50,299.36 87.77,299.03 88.03,298.69 88.37,298.43 88.71,298.17 89.10,298.00 89.49,297.83 89.91,297.75 90.33,297.68 90.76,297.71 91.19,297.74 91.59,297.87 92.00,298.00 92.36,298.22 92.73,298.45 93.03,298.75 93.33,299.06 93.54,299.42 93.76,299.79 93.59,299.64 93.43,299.49 94.81,300.50 96.18,301.52 97.18,302.89 98.18,304.27 99.16,305.23 100.14,306.20 101.32,307.27 102.49,308.35 103.49,308.93 104.50,309.50 105.31,310.26 106.12,311.01 107.60,311.90 109.09,312.80 110.80,314.55 112.51,316.31 113.96,317.38 115.40,318.45 116.12,319.93 116.84,321.41 117.13,322.89 117.41,324.38 117.03,325.42 116.65,326.46 115.54,327.24 114.44,328.02 112.85,328.31 111.26,328.61 109.76,328.61 108.26,328.60 106.75,328.59 105.25,328.59 103.72,328.57 102.19,328.56 101.04,328.51 99.89,328.45 98.13,327.86 96.37,327.27 95.21,326.89 94.04,326.51 92.71,326.38 91.39,326.25 90.10,325.84 88.82,325.43 87.18,325.12 85.53,324.81 84.40,324.50 83.27,324.19 82.28,323.69 81.28,323.20 79.82,322.70 78.35,322.20 76.81,321.67 75.27,321.14 74.24,320.62 73.22,320.10 72.26,319.61 71.30,319.13 69.80,318.61 68.30,318.10 67.25,317.63 66.19,317.15 64.22,316.59 62.25,316.02 61.16,315.45 60.06,314.89 58.60,313.96 57.15,313.04 55.79,312.65 54.44,312.26 53.41,311.73 52.37,311.20 51.27,310.65 50.16,310.10 48.67,308.95 47.18,307.81 45.96,307.19 44.74,306.58 43.33,305.58 41.91,304.58 40.17,303.82 38.44,303.06 37.31,302.52 36.17,301.97 35.17,301.47 34.17,300.97 33.18,300.45 32.19,299.94 30.71,299.00 29.23,298.06 27.44,297.27 25.64,296.47 23.61,295.43 21.58,294.39 19.88,293.18 18.17,291.97 16.85,291.17 15.52,290.37 14.10,289.76 12.67,289.15 11.85,288.45 11.03,287.76 9.94,286.97 8.85,286.17 7.95,285.00 7.05,283.83 5.45,282.67 3.86,281.50 2.35,279.99 0.84,278.48 -0.63,276.84 -2.12,275.21 -3.30,273.68 -4.48,272.15 -5.31,270.74 -6.15,269.33 -7.14,267.75 -8.12,266.17 -9.26,264.98 -10.41,263.79 -11.89,261.93 -13.37,260.08 -13.92,258.80 -14.47,257.52 -15.80,255.66 -17.13,253.80 -17.89,252.34 -18.65,250.88 -19.48,249.75 -20.31,248.61 -21.28,246.94 -22.25,245.27 -23.35,244.17 -24.44,243.07 -24.94,242.08 -25.44,241.10 -25.94,239.87 -26.43,238.64 -27.39,236.92 -28.34,235.20 -28.80,233.48 -29.26,231.77 -30.20,230.24 -31.15,228.71 -31.75,227.14 -32.35,225.57 -32.86,223.71 -33.38,221.84 -33.85,220.86 -34.33,219.88 -34.79,218.89 -35.24,217.90 -35.78,215.68 -36.32,213.46 -36.81,211.39 -37.30,209.32 -37.67,207.96 -38.05,206.59 -38.17,204.80 -38.29,203.01 -38.89,201.02 -39.49,199.04 -40.28,197.47 -41.08,195.90 -41.20,194.36 -41.32,192.81 -41.81,191.17 -42.31,189.52 -42.82,187.59 -43.32,185.65 -43.79,184.54 -44.26,183.43 -44.73,181.30 -45.20,179.17 -45.53,177.74 -45.86,176.32 -45.86,175.15 -45.86,173.98 -45.89,172.62 -45.92,171.26 -45.93,170.08 -45.93,168.91 -45.89,167.11 -45.86,165.32 -45.85,164.19 -45.85,163.05 -45.86,160.68 -45.87,158.31 -45.87,157.17 -45.87,156.03 -45.89,154.70 -45.91,153.37 -45.91,152.26 -45.91,151.16 -45.90,149.03 -45.90,146.90 -45.94,145.48 -45.98,144.07 -46.02,141.73 -46.05,139.38 -46.05,138.29 -46.06,137.20 -46.07,135.16 -46.08,133.12 -46.12,130.91 -46.15,128.70 -46.13,127.11 -46.11,125.52 -46.12,123.53 -46.13,121.55 -46.17,119.62 -46.20,117.69 -46.33,116.06 -46.45,114.43 -46.85,112.12 -47.25,109.80 -47.31,108.54 -47.36,107.28 -47.90,105.36 -48.45,103.43 -48.80,101.07 -49.16,98.70 -49.14,97.12 -49.12,95.53 -49.10,93.57 -49.09,91.60 -48.98,89.83 -48.87,88.06 -48.72,86.80 -48.57,85.53 -48.33,84.01 -48.09,82.48 -48.06,80.40 -48.02,78.33 -47.95,77.20 -47.88,76.07 -47.41,74.09 -46.94,72.12 -46.55,70.29 -46.16,68.47 -46.14,66.45 -46.11,64.43 -46.04,63.35 -45.97,62.27 -45.45,60.20 -44.92,58.13 -44.74,56.88 -44.56,55.63 -44.30,54.02 -44.03,52.42 -43.62,50.35 -43.21,48.28 -42.55,46.72 -41.88,45.16 -41.36,43.60 -40.83,42.03 -40.58,40.76 -40.32,39.49 -39.70,37.84 -39.08,36.19 -38.62,35.22 -38.17,34.25 -37.46,32.58 -36.75,30.91 -36.37,29.54 -35.99,28.18 -34.96,26.65 -33.94,25.12 -32.87,23.57 -31.80,22.03 -30.42,20.31 -29.05,18.60 -28.29,17.80 -27.53,17.00 -26.54,15.94 -25.54,14.88 -24.59,13.75 -23.64,12.63 -22.68,11.82 -21.73,11.02 -20.91,9.92 -20.09,8.83 -18.79,7.85 -17.49,6.88 -16.51,5.77 -15.52,4.66 -14.39,3.84 -13.26,3.02 -11.74,1.96 -10.22,0.90 -9.19,0.35 -8.15,-0.20 -6.49,-1.11 -4.83,-2.02 -3.59,-2.36 -2.35,-2.69 -1.17,-2.68 0,-2.67 0.32,-2.63 0.64,-2.59 0.94,-2.48 1.24,-2.37 1.50,-2.18 1.77,-2.00 1.98,-1.76 2.20,-1.52 2.35,-1.23 2.50,-0.94 2.58,-0.63 2.65,-0.32 2.65,0.00 2.65,0.32 2.58,0.63 2.50,0.94 2.35,1.23 2.20,1.52 1.98,1.76 1.77,2.00 1.50,2.18 1.24,2.37 0.94,2.48 0.64,2.59 0.32,2.63 -0.00,2.67 -0.00,2.67 L 0,2.67 Z"></path></g><g transform="translate(210 352) rotate(0 131.201171875 11.5)"><text x="0" y="0" font-family="Helvetica, Segoe UI Emoji" font-size="20px" fill="#000000" text-anchor="start" style="white-space: pre;" direction="ltr" dominant-baseline="text-before-edge">size_t cantidad_entrenadores</text></g><g stroke-linecap="round" transform="translate(64 10) rotate(0 54 15.5)"><path d="M7.75 0 M7.75 0 C37.12 0, 66.48 0, 100.25 0 M7.75 0 C38.62 0, 69.49 0, 100.25 0 M100.25 0 C105.42 0, 108 2.58, 108 7.75 M100.25 0 C105.42 0, 108 2.58, 108 7.75 M108 7.75 C108 12.85, 108 17.96, 108 23.25 M108 7.75 C108 12.64, 108 17.52, 108 23.25 M108 23.25 C108 28.42, 105.42 31, 100.25 31 M108 23.25 C108 28.42, 105.42 31, 100.25 31 M100.25 31 C76.55 31, 52.85 31, 7.75 31 M100.25 31 C73.28 31, 46.31 31, 7.75 31 M7.75 31 C2.58 31, 0 28.42, 0 23.25 M7.75 31 C2.58 31, 0 28.42, 0 23.25 M0 23.25 C0 17.63, 0 12, 0 7.75 M0 23.25 C0 18.28, 0 13.3, 0 7.75 M0 7.75 C0 2.58, 2.58 0, 7.75 0 M0 7.75 C0 2.58, 2.58 0, 7.75 0" stroke="#000000" stroke-width="1" fill="none"></path></g><g stroke-linecap="round" transform="translate(218 266.5) rotate(0 118 16.5)"><path d="M8.25 0 M8.25 0 C63.61 0, 118.97 0, 227.75 0 M8.25 0 C58.18 0, 108.1 0, 227.75 0 M227.75 0 C233.25 0, 236 2.75, 236 8.25 M227.75 0 C233.25 0, 236 2.75, 236 8.25 M236 8.25 C236 11.87, 236 15.5, 236 24.75 M236 8.25 C236 14.4, 236 20.55, 236 24.75 M236 24.75 C236 30.25, 233.25 33, 227.75 33 M236 24.75 C236 30.25, 233.25 33, 227.75 33 M227.75 33 C158.17 33, 88.6 33, 8.25 33 M227.75 33 C168.05 33, 108.35 33, 8.25 33 M8.25 33 C2.75 33, 0 30.25, 0 24.75 M8.25 33 C2.75 33, 0 30.25, 0 24.75 M0 24.75 C0 18.92, 0 13.1, 0 8.25 M0 24.75 C0 19.66, 0 14.57, 0 8.25 M0 8.25 C0 2.75, 2.75 0, 8.25 0 M0 8.25 C0 2.75, 2.75 0, 8.25 0" stroke="#000000" stroke-width="1" fill="none"></path></g><g stroke-linecap="round" transform="translate(205 349.5) rotate(0 136.5 15.5)"><path d="M7.75 0 M7.75 0 C103.33 0, 198.92 0, 265.25 0 M7.75 0 C103.95 0, 200.15 0, 265.25 0 M265.25 0 C270.42 0, 273 2.58, 273 7.75 M265.25 0 C270.42 0, 273 2.58, 273 7.75 M273 7.75 C273 12.11, 273 16.46, 273 23.25 M273 7.75 C273 12.82, 273 17.9, 273 23.25 M273 23.25 C273 28.42, 270.42 31, 265.25 31 M273 23.25 C273 28.42, 270.42 31, 265.25 31 M265.25 31 C198.83 31, 132.41 31, 7.75 31 M265.25 31 C179.66 31, 94.07 31, 7.75 31 M7.75 31 C2.58 31, 0 28.42, 0 23.25 M7.75 31 C2.58 31, 0 28.42, 0 23.25 M0 23.25 C0 18.51, 0 13.76, 0 7.75 M0 23.25 C0 19.38, 0 15.51, 0 7.75 M0 7.75 C0 2.58, 2.58 0, 7.75 0 M0 7.75 C0 2.58, 2.58 0, 7.75 0" stroke="#000000" stroke-width="1" fill="none"></path></g><g stroke-linecap="round" transform="translate(10 486.5) rotate(0 65.5 23)"><path d="M11.5 0 M11.5 0 C39.6 0, 67.7 0, 119.5 0 M11.5 0 C44.68 0, 77.86 0, 119.5 0 M119.5 0 C127.17 0, 131 3.83, 131 11.5 M119.5 0 C127.17 0, 131 3.83, 131 11.5 M131 11.5 C131 16.97, 131 22.43, 131 34.5 M131 11.5 C131 19.63, 131 27.76, 131 34.5 M131 34.5 C131 42.17, 127.17 46, 119.5 46 M131 34.5 C131 42.17, 127.17 46, 119.5 46 M119.5 46 C92.83 46, 66.16 46, 11.5 46 M119.5 46 C87.54 46, 55.57 46, 11.5 46 M11.5 46 C3.83 46, 0 42.17, 0 34.5 M11.5 46 C3.83 46, 0 42.17, 0 34.5 M0 34.5 C0 26.51, 0 18.52, 0 11.5 M0 34.5 C0 27.47, 0 20.44, 0 11.5 M0 11.5 C0 3.83, 3.83 0, 11.5 0 M0 11.5 C0 3.83, 3.83 0, 11.5 0" stroke="#000000" stroke-width="1" fill="none"></path></g><g transform="translate(26.0224609375 498) rotate(0 49.4775390625 11.5)"><text x="49.4775390625" y="0" font-family="Helvetica, Segoe UI Emoji" font-size="20px" fill="#000000" text-anchor="middle" style="white-space: pre;" direction="ltr" dominant-baseline="text-before-edge">pokemon_t</text></g><g stroke-linecap="round" transform="translate(184 544) rotate(0 91.5 22.5)"><path d="M11.25 0 M11.25 0 C62.78 0, 114.31 0, 171.75 0 M11.25 0 C71.42 0, 131.58 0, 171.75 0 M171.75 0 C179.25 0, 183 3.75, 183 11.25 M171.75 0 C179.25 0, 183 3.75, 183 11.25 M183 11.25 C183 18.55, 183 25.85, 183 33.75 M183 11.25 C183 16.66, 183 22.07, 183 33.75 M183 33.75 C183 41.25, 179.25 45, 171.75 45 M183 33.75 C183 41.25, 179.25 45, 171.75 45 M171.75 45 C120.17 45, 68.6 45, 11.25 45 M171.75 45 C116.76 45, 61.77 45, 11.25 45 M11.25 45 C3.75 45, 0 41.25, 0 33.75 M11.25 45 C3.75 45, 0 41.25, 0 33.75 M0 33.75 C0 25.93, 0 18.11, 0 11.25 M0 33.75 C0 28.09, 0 22.44, 0 11.25 M0 11.25 C0 3.75, 3.75 0, 11.25 0 M0 11.25 C0 3.75, 3.75 0, 11.25 0" stroke="#000000" stroke-width="1" fill="none"></path></g><g transform="translate(238.8154296875 555) rotate(0 36.6845703125 11.5)"><text x="36.6845703125" y="0" font-family="Helvetica, Segoe UI Emoji" font-size="20px" fill="#000000" text-anchor="middle" style="white-space: pre;" direction="ltr" dominant-baseline="text-before-edge">size_t id</text></g><g stroke-linecap="round" transform="translate(187.5 614.5) rotate(0 91.5 22.5)"><path d="M11.25 0 M11.25 0 C45 0, 78.75 0, 171.75 0 M11.25 0 C45.96 0, 80.68 0, 171.75 0 M171.75 0 C179.25 0, 183 3.75, 183 11.25 M171.75 0 C179.25 0, 183 3.75, 183 11.25 M183 11.25 C183 16.16, 183 21.07, 183 33.75 M183 11.25 C183 19.4, 183 27.56, 183 33.75 M183 33.75 C183 41.25, 179.25 45, 171.75 45 M183 33.75 C183 41.25, 179.25 45, 171.75 45 M171.75 45 C125.39 45, 79.04 45, 11.25 45 M171.75 45 C118.33 45, 64.9 45, 11.25 45 M11.25 45 C3.75 45, 0 41.25, 0 33.75 M11.25 45 C3.75 45, 0 41.25, 0 33.75 M0 33.75 C0 26.12, 0 18.5, 0 11.25 M0 33.75 C0 27.54, 0 21.33, 0 11.25 M0 11.25 C0 3.75, 3.75 0, 11.25 0 M0 11.25 C0 3.75, 3.75 0, 11.25 0" stroke="#000000" stroke-width="1" fill="none"></path></g><g transform="translate(226.1923828125 625.5) rotate(0 52.8076171875 11.5)"><text x="52.8076171875" y="0" font-family="Helvetica, Segoe UI Emoji" font-size="20px" fill="#000000" text-anchor="middle" style="white-space: pre;" direction="ltr" dominant-baseline="text-before-edge">size_t salud</text></g><g stroke-linecap="round" transform="translate(185 684) rotate(0 192.5 30)"><path d="M15 0 M15 0 C149.55 0, 284.11 0, 370 0 M15 0 C126.5 0, 238 0, 370 0 M370 0 C380 0, 385 5, 385 15 M370 0 C380 0, 385 5, 385 15 M385 15 C385 21.34, 385 27.68, 385 45 M385 15 C385 23.35, 385 31.7, 385 45 M385 45 C385 55, 380 60, 370 60 M385 45 C385 55, 380 60, 370 60 M370 60 C291.94 60, 213.88 60, 15 60 M370 60 C249.67 60, 129.33 60, 15 60 M15 60 C5 60, 0 55, 0 45 M15 60 C5 60, 0 55, 0 45 M0 45 C0 35.5, 0 26, 0 15 M0 45 C0 36.87, 0 28.75, 0 15 M0 15 C0 5, 5 0, 15 0 M0 15 C0 5, 5 0, 15 0" stroke="#000000" stroke-width="1" fill="none"></path></g><g transform="translate(190.751953125 702.5) rotate(0 186.748046875 11.5)"><text x="186.748046875" y="0" font-family="Helvetica, Segoe UI Emoji" font-size="20px" fill="#000000" text-anchor="middle" style="white-space: pre;" direction="ltr" dominant-baseline="text-before-edge">char nombre_entrenador[MAX_NOMBRE]</text></g><g stroke-linecap="round" transform="translate(185.5 764) rotate(0 192.5 30)"><path d="M15 0 M15 0 C139.47 0, 263.94 0, 370 0 M15 0 C96.3 0, 177.6 0, 370 0 M370 0 C380 0, 385 5, 385 15 M370 0 C380 0, 385 5, 385 15 M385 15 C385 21.94, 385 28.88, 385 45 M385 15 C385 22.24, 385 29.48, 385 45 M385 45 C385 55, 380 60, 370 60 M385 45 C385 55, 380 60, 370 60 M370 60 C293.62 60, 217.23 60, 15 60 M370 60 C247.72 60, 125.44 60, 15 60 M15 60 C5 60, 0 55, 0 45 M15 60 C5 60, 0 55, 0 45 M0 45 C0 33.37, 0 21.74, 0 15 M0 45 C0 37.8, 0 30.6, 0 15 M0 15 C0 5, 5 0, 15 0 M0 15 C0 5, 5 0, 15 0" stroke="#000000" stroke-width="1" fill="none"></path></g><g transform="translate(242.404296875 782.5) rotate(0 135.595703125 11.5)"><text x="135.595703125" y="0" font-family="Helvetica, Segoe UI Emoji" font-size="20px" fill="#000000" text-anchor="middle" style="white-space: pre;" direction="ltr" dominant-baseline="text-before-edge">char nombre[MAX_NOMBRE] </text></g><g transform="translate(102 536) rotate(0 29.5 21)" stroke="none"><path fill="#000000" d="M 2.66,0 Q 2.66,0 2.68,1.15 2.70,2.3 2.35,4.28 2.00,6.27 2.01,7.88 2.02,9.49 1.57,10.64 1.12,11.78 1.19,13.05 1.26,14.32 1.27,15.58 1.28,16.84 1.30,18.01 1.32,19.18 1.25,20.72 1.18,22.25 1.98,23.16 2.79,24.06 3.85,25.57 4.92,27.09 6.54,27.84 8.17,28.58 10.02,29.04 11.87,29.49 13.03,29.90 14.18,30.30 15.55,30.40 16.91,30.50 18.46,30.52 20.02,30.55 21.40,30.56 22.79,30.56 24.39,30.57 25.99,30.58 27.39,30.58 28.78,30.58 30.73,31.04 32.69,31.50 34.00,31.52 35.31,31.53 36.70,31.54 38.08,31.55 39.15,31.54 40.23,31.53 41.74,31.52 43.25,31.50 44.75,31.48 46.26,31.47 48.04,31.47 49.83,31.47 51.00,31.47 52.18,31.46 53.62,31.47 55.06,31.48 56.14,31.48 57.22,31.47 57.64,31.52 58.06,31.57 58.46,31.72 58.86,31.87 59.21,32.11 59.56,32.36 59.84,32.67 60.12,32.99 60.32,33.37 60.52,33.75 60.62,34.16 60.72,34.57 60.72,35.00 60.72,35.42 60.62,35.83 60.52,36.25 60.32,36.62 60.12,37.00 59.84,37.32 59.56,37.63 59.21,37.88 58.86,38.12 58.46,38.27 58.06,38.42 57.64,38.47 57.22,38.52 55.91,37.94 54.61,37.35 53.52,36.83 52.44,36.30 51.34,35.28 50.25,34.25 49.24,33.24 48.24,32.23 47.24,31.23 46.25,30.22 45.32,28.84 44.39,27.46 43.17,26.20 41.96,24.95 41.81,23.29 41.67,21.63 42.89,20.48 44.10,19.33 45.78,19.29 47.45,19.26 48.57,19.81 49.70,20.37 50.54,21.02 51.38,21.67 52.53,22.77 53.68,23.86 54.85,25.44 56.02,27.02 56.96,27.95 57.90,28.89 58.44,29.89 58.98,30.90 60.22,32.15 61.46,33.41 62.24,36.53 63.01,39.66 61.40,40.93 59.79,42.21 58.23,42.75 56.66,43.29 55.46,43.58 54.25,43.86 52.37,44.72 50.49,45.59 49.91,45.57 49.32,45.56 48.77,45.36 48.22,45.16 47.76,44.79 47.30,44.42 46.98,43.93 46.67,43.44 46.52,42.87 46.38,42.30 46.43,41.71 46.47,41.13 46.70,40.59 46.94,40.05 47.33,39.61 47.72,39.17 48.23,38.88 48.74,38.59 49.31,38.48 49.89,38.37 50.47,38.45 51.05,38.53 51.58,38.79 52.10,39.05 52.52,39.46 52.94,39.87 53.20,40.40 53.46,40.92 53.54,41.50 53.62,42.09 53.51,42.66 53.40,43.24 53.11,43.75 52.83,44.26 52.39,44.65 51.95,45.05 51.42,45.28 50.88,45.51 50.29,45.56 49.71,45.61 49.14,45.47 48.57,45.33 48.07,45.01 47.58,44.70 47.21,44.24 46.84,43.79 46.64,43.24 46.43,42.69 46.42,42.10 46.40,41.51 46.57,40.95 46.74,40.39 47.08,39.91 47.43,39.44 47.90,39.09 48.38,38.75 48.94,38.58 49.50,38.40 49.50,38.40 49.50,38.40 50.68,37.93 51.86,37.45 53.34,36.96 54.82,36.46 56.67,35.88 58.53,35.29 58.53,37.42 58.54,39.55 57.52,38.58 56.49,37.60 55.05,36.49 53.60,35.39 52.66,34.04 51.73,32.70 51.09,31.58 50.45,30.46 49.61,29.64 48.78,28.82 47.84,27.90 46.90,26.99 46.19,26.10 45.48,25.21 47.04,23.90 48.60,22.58 49.91,23.91 51.22,25.24 52.22,26.23 53.22,27.22 54.20,28.18 55.18,29.14 56.20,30.30 57.22,31.47 57.64,31.52 58.06,31.57 58.46,31.72 58.86,31.87 59.21,32.11 59.56,32.36 59.84,32.67 60.12,32.99 60.32,33.37 60.52,33.74 60.62,34.16 60.72,34.57 60.72,34.99 60.72,35.42 60.62,35.83 60.52,36.24 60.32,36.62 60.12,37.00 59.84,37.32 59.56,37.63 59.21,37.88 58.86,38.12 58.46,38.27 58.06,38.42 57.64,38.47 57.22,38.52 56.14,38.51 55.06,38.51 53.62,38.52 52.18,38.53 51.00,38.52 49.83,38.52 48.04,38.52 46.26,38.52 44.75,38.51 43.25,38.49 41.73,38.47 40.22,38.45 39.13,38.44 38.04,38.42 36.54,38.41 35.04,38.40 33.66,38.30 32.29,38.19 30.53,37.80 28.78,37.41 27.39,37.41 25.99,37.41 24.38,37.42 22.78,37.43 21.37,37.42 19.97,37.42 18.33,37.42 16.68,37.42 14.98,37.29 13.28,37.16 11.82,36.67 10.35,36.18 8.77,35.68 7.18,35.18 5.67,34.62 4.16,34.06 3.06,33.47 1.95,32.88 0.72,31.61 -0.50,30.33 -1.64,29.16 -2.78,28.00 -3.48,26.62 -4.17,25.24 -4.68,24.13 -5.18,23.02 -5.25,21.10 -5.32,19.18 -5.30,18.00 -5.28,16.82 -5.22,14.97 -5.17,13.11 -5.02,11.81 -4.86,10.50 -4.42,9.31 -3.97,8.11 -3.81,6.83 -3.65,5.55 -3.17,3.92 -2.70,2.3 -2.68,1.15 -2.66,0 -2.62,-0.31 -2.58,-0.63 -2.47,-0.93 -2.36,-1.23 -2.17,-1.50 -1.99,-1.76 -1.75,-1.98 -1.51,-2.19 -1.23,-2.34 -0.94,-2.49 -0.63,-2.57 -0.32,-2.64 0.00,-2.64 0.32,-2.64 0.63,-2.57 0.94,-2.49 1.23,-2.34 1.51,-2.19 1.75,-1.98 1.99,-1.76 2.17,-1.50 2.36,-1.23 2.47,-0.93 2.58,-0.63 2.62,-0.31 2.66,0.00 2.66,0.00 L 2.66,0 Z"></path></g><g transform="translate(73 554) rotate(0 50 48.5)" stroke="none"><path fill="#000000" d="M 2.64,0 Q 2.64,0 2.62,1.41 2.60,2.83 3.25,4.16 3.90,5.50 4.66,6.86 5.42,8.22 6.09,9.29 6.76,10.36 7.82,11.82 8.88,13.28 9.26,14.62 9.65,15.96 10.21,18.00 10.76,20.04 11.45,21.69 12.13,23.33 12.40,25.00 12.66,26.66 12.95,27.93 13.24,29.19 13.42,30.53 13.61,31.87 14.12,33.94 14.63,36.01 15.49,38.34 16.34,40.67 16.70,41.94 17.06,43.21 17.47,44.24 17.89,45.27 18.35,46.27 18.82,47.27 19.31,48.27 19.79,49.27 20.32,50.68 20.84,52.09 21.30,53.14 21.77,54.20 23.10,56.13 24.43,58.05 25.02,59.11 25.61,60.17 27.13,61.92 28.65,63.67 29.65,65.09 30.66,66.51 32.49,68.10 34.32,69.70 36.28,71.21 38.25,72.71 39.94,73.85 41.63,75.00 43.50,75.95 45.37,76.90 47.04,77.92 48.71,78.94 50.18,79.41 51.65,79.89 52.61,80.39 53.57,80.89 55.04,81.35 56.52,81.81 57.50,82.25 58.48,82.69 60.17,83.13 61.85,83.57 63.10,83.67 64.36,83.77 65.50,84.24 66.64,84.70 68.01,84.69 69.38,84.67 70.67,85.06 71.96,85.45 73.36,85.54 74.75,85.64 76.75,86.04 78.76,86.44 79.99,86.54 81.23,86.64 82.65,86.66 84.07,86.68 85.56,86.68 87.04,86.68 88.13,86.66 89.22,86.64 90.83,86.24 92.45,85.84 93.77,85.71 95.10,85.57 93.90,85.65 92.69,85.72 91.26,85.10 89.82,84.48 88.27,83.44 86.72,82.40 85.20,81.82 83.67,81.25 82.54,80.62 81.41,80.00 80.55,79.36 79.70,78.72 78.61,78.39 77.52,78.06 77.21,77.76 76.90,77.46 76.67,77.09 76.44,76.72 76.31,76.31 76.18,75.90 76.14,75.46 76.11,75.03 76.19,74.61 76.26,74.18 76.43,73.78 76.61,73.39 76.87,73.04 77.13,72.70 77.47,72.43 77.81,72.16 78.20,71.97 78.59,71.79 79.02,71.71 79.44,71.63 79.88,71.65 80.31,71.67 80.72,71.79 81.14,71.92 81.51,72.14 81.88,72.36 79.95,72.22 78.02,72.08 79.36,71.82 80.70,71.56 82.01,72.06 83.33,72.56 84.78,73.52 86.24,74.48 87.76,75.52 89.29,76.56 90.30,77.07 91.31,77.58 92.80,78.57 94.30,79.56 95.70,80.03 97.11,80.50 98.70,81.38 100.29,82.25 101.70,83.66 103.10,85.07 102.89,86.90 102.68,88.72 101.94,90.20 101.21,91.68 100.14,92.37 99.07,93.06 97.96,93.63 96.85,94.20 95.84,94.72 94.83,95.24 93.42,96.67 92.02,98.10 91.60,98.46 91.18,98.82 90.80,99.28 90.43,99.74 89.93,100.05 89.42,100.37 88.85,100.51 88.27,100.65 87.68,100.60 87.09,100.55 86.55,100.31 86.00,100.07 85.56,99.67 85.12,99.27 84.84,98.76 84.55,98.24 84.44,97.66 84.33,97.07 84.41,96.49 84.50,95.90 84.76,95.37 85.03,94.84 85.45,94.42 85.87,94.01 86.41,93.74 86.94,93.48 87.53,93.41 88.12,93.33 88.70,93.45 89.28,93.56 89.79,93.86 90.31,94.15 90.70,94.60 91.10,95.04 91.33,95.59 91.56,96.13 91.60,96.72 91.65,97.31 91.50,97.89 91.35,98.46 91.03,98.96 90.71,99.46 90.24,99.83 89.78,100.20 89.22,100.40 88.66,100.60 88.07,100.61 87.48,100.62 86.91,100.45 86.35,100.27 85.87,99.92 85.39,99.57 85.04,99.09 84.70,98.60 84.53,98.04 84.36,97.47 84.38,96.87 84.40,96.28 84.61,95.73 84.82,95.17 84.82,95.17 84.81,95.17 86.60,93.83 88.38,92.49 89.42,91.09 90.46,89.69 92.02,88.98 93.58,88.28 95.35,87.13 97.12,85.98 97.34,87.28 97.55,88.58 96.44,87.91 95.34,87.24 93.77,86.70 92.21,86.16 91.10,85.59 89.98,85.03 88.56,84.07 87.13,83.12 86.02,82.55 84.90,81.97 83.43,81.06 81.95,80.15 80.68,79.38 79.40,78.61 80.56,78.35 81.72,78.09 79.62,78.08 77.52,78.06 77.21,77.76 76.90,77.46 76.67,77.09 76.44,76.72 76.31,76.31 76.18,75.90 76.14,75.46 76.11,75.03 76.19,74.61 76.26,74.18 76.43,73.78 76.61,73.39 76.87,73.04 77.13,72.70 77.47,72.43 77.81,72.16 78.20,71.98 78.59,71.79 79.02,71.71 79.44,71.63 79.88,71.65 80.31,71.67 80.72,71.79 81.14,71.92 81.51,72.14 81.88,72.36 82.32,72.59 82.76,72.82 84.40,73.43 86.04,74.04 87.41,74.96 88.79,75.87 89.92,76.46 91.06,77.04 92.50,77.92 93.95,78.81 94.93,79.38 95.91,79.95 97.46,80.89 99.02,81.83 100.20,82.85 101.38,83.87 101.84,85.29 102.31,86.71 102.13,87.84 101.96,88.97 101.07,89.85 100.17,90.73 99.29,91.32 98.40,91.91 97.36,92.20 96.32,92.48 95.12,92.44 93.91,92.39 92.69,92.86 91.47,93.33 89.81,93.33 88.16,93.33 86.94,93.31 85.72,93.29 84.17,93.26 82.63,93.24 80.90,93.15 79.17,93.05 77.91,92.86 76.66,92.67 75.53,92.43 74.39,92.19 73.30,92.14 72.20,92.08 70.15,91.67 68.09,91.25 66.76,91.10 65.43,90.94 63.79,90.43 62.16,89.91 60.90,89.69 59.64,89.47 58.37,89.11 57.10,88.74 55.12,87.72 53.15,86.69 51.87,86.34 50.60,85.99 49.38,85.43 48.16,84.88 46.22,83.80 44.28,82.72 42.71,81.71 41.14,80.71 39.09,79.49 37.05,78.27 35.92,77.49 34.79,76.72 33.90,75.95 33.02,75.17 31.88,74.36 30.74,73.54 29.79,72.65 28.84,71.77 27.66,70.72 26.48,69.67 25.55,68.52 24.62,67.36 23.64,66.30 22.65,65.24 21.70,64.04 20.75,62.84 20.24,61.88 19.72,60.91 19.18,59.99 18.63,59.08 17.69,57.77 16.74,56.46 16.21,55.26 15.69,54.06 15.21,52.88 14.74,51.69 14.24,50.63 13.74,49.58 13.24,48.46 12.74,47.33 12.24,46.07 11.74,44.81 11.13,42.56 10.52,40.30 9.63,37.80 8.74,35.30 8.20,32.97 7.67,30.63 7.12,28.17 6.56,25.71 6.08,24.63 5.61,23.55 5.10,21.60 4.60,19.66 4.16,18.48 3.72,17.31 3.36,16.21 3.00,15.11 1.90,13.55 0.80,11.98 0.39,10.74 -0.02,9.50 -0.56,8.58 -1.11,7.66 -1.54,6.57 -1.98,5.49 -2.29,4.20 -2.60,2.91 -2.62,1.45 -2.64,0 -2.60,-0.31 -2.56,-0.63 -2.45,-0.93 -2.34,-1.22 -2.16,-1.49 -1.97,-1.75 -1.74,-1.96 -1.50,-2.17 -1.21,-2.32 -0.93,-2.47 -0.62,-2.54 -0.31,-2.62 0.00,-2.62 0.31,-2.62 0.62,-2.54 0.93,-2.47 1.22,-2.32 1.50,-2.17 1.74,-1.96 1.97,-1.75 2.16,-1.49 2.34,-1.22 2.45,-0.93 2.56,-0.63 2.60,-0.31 2.64,0.00 2.64,0.00 L 2.64,0 Z"></path></g><g transform="translate(52 554) rotate(0 56 79.5)" stroke="none"><path fill="#000000" d="M 2.44,-0.48 Q 2.44,-0.48 2.73,0.94 3.01,2.38 3.17,3.68 3.34,4.98 3.64,6.17 3.95,7.35 4.65,9.22 5.36,11.08 5.87,13.75 6.39,16.41 6.91,18.71 7.44,21.00 7.75,22.18 8.06,23.35 8.22,24.98 8.39,26.61 8.48,27.86 8.56,29.11 8.58,30.52 8.60,31.93 8.60,33.38 8.59,34.83 8.84,36.07 9.08,37.32 9.24,38.63 9.40,39.95 9.46,41.41 9.51,42.87 9.52,44.33 9.53,45.80 9.99,47.95 10.45,50.09 10.54,51.20 10.62,52.32 10.89,53.38 11.16,54.45 11.64,56.05 12.12,57.65 12.55,58.94 12.98,60.24 13.23,61.55 13.47,62.87 14.03,64.85 14.58,66.84 15.28,68.11 15.98,69.38 16.46,70.34 16.93,71.30 17.26,72.62 17.59,73.94 18.32,75.64 19.04,77.33 19.33,78.63 19.63,79.93 20.34,81.15 21.05,82.36 21.37,83.68 21.70,84.99 22.22,86.62 22.75,88.24 23.22,89.58 23.70,90.92 24.64,92.34 25.59,93.76 26.20,94.99 26.81,96.23 27.27,97.61 27.73,98.99 28.70,100.38 29.67,101.76 30.35,103.01 31.03,104.26 31.44,105.63 31.86,107.00 32.55,108.62 33.23,110.23 33.68,111.20 34.13,112.17 34.63,113.58 35.12,115.00 35.91,116.08 36.70,117.15 37.31,118.16 37.92,119.17 38.43,120.14 38.93,121.10 40.25,122.51 41.56,123.93 42.54,124.99 43.52,126.04 44.53,126.82 45.54,127.60 46.95,128.56 48.36,129.53 50.01,130.52 51.67,131.51 52.89,132.01 54.11,132.52 55.50,133.09 56.89,133.65 57.84,134.18 58.79,134.71 60.20,135.17 61.61,135.63 62.81,136.17 64.01,136.72 65.57,137.55 67.14,138.39 68.78,139.06 70.43,139.73 71.66,140.08 72.90,140.44 74.91,140.99 76.92,141.54 78.12,141.52 79.32,141.50 80.70,141.51 82.08,141.53 83.15,141.52 84.23,141.51 85.74,141.50 87.25,141.48 88.75,141.47 90.26,141.46 91.76,141.44 93.26,141.43 94.54,141.44 95.83,141.45 97.81,141.93 99.79,142.42 100.98,142.97 102.16,143.52 103.20,144.03 104.23,144.54 105.35,144.75 106.47,144.95 107.37,145.59 108.26,146.23 109.38,146.10 110.49,145.98 111.39,146.59 112.28,147.20 110.43,147.30 108.58,147.39 108.03,148.42 107.48,149.46 106.40,148.61 105.32,147.76 104.09,147.13 102.86,146.50 101.75,145.59 100.64,144.68 99.11,143.66 97.57,142.64 96.47,141.56 95.36,140.49 93.75,139.37 92.14,138.26 92.25,136.27 92.37,134.28 92.98,133.29 93.60,132.29 94.65,131.92 95.70,131.55 97.61,131.79 99.51,132.03 100.65,132.49 101.79,132.95 103.25,133.86 104.72,134.77 105.39,135.82 106.06,136.87 106.95,137.84 107.83,138.81 108.46,139.86 109.08,140.90 110.06,142.84 111.04,144.77 112.06,145.85 113.08,146.93 114.12,148.52 115.16,150.11 115.38,151.60 115.60,153.08 115.29,154.28 114.99,155.47 114.23,156.58 113.46,157.68 112.42,158.06 111.37,158.44 110.10,158.54 108.83,158.63 107.57,158.61 106.31,158.59 104.36,159.05 102.42,159.50 101.01,159.89 99.60,160.29 98.51,160.38 97.41,160.46 94.99,161.49 92.58,162.51 92.00,162.51 91.42,162.51 90.88,162.33 90.33,162.15 89.87,161.80 89.41,161.45 89.09,160.97 88.76,160.50 88.61,159.94 88.45,159.38 88.48,158.81 88.51,158.23 88.73,157.70 88.94,157.16 89.31,156.72 89.68,156.28 90.18,155.98 90.67,155.69 91.23,155.56 91.80,155.44 92.37,155.50 92.94,155.56 93.47,155.80 93.99,156.04 94.41,156.44 94.83,156.84 95.10,157.34 95.37,157.85 95.46,158.42 95.56,158.99 95.47,159.56 95.37,160.13 95.10,160.64 94.83,161.15 94.42,161.55 94.00,161.94 93.48,162.18 92.95,162.43 92.38,162.49 91.81,162.55 91.24,162.43 90.68,162.31 90.19,162.01 89.69,161.71 89.32,161.27 88.94,160.84 88.73,160.30 88.52,159.76 88.48,159.19 88.45,158.61 88.61,158.06 88.76,157.50 89.08,157.02 89.41,156.55 89.86,156.20 90.32,155.85 90.87,155.66 91.41,155.48 91.41,155.48 91.41,155.48 92.17,155.06 92.92,154.64 94.28,154.04 95.63,153.45 96.90,153.42 98.16,153.39 99.40,152.91 100.64,152.43 102.02,152.35 103.40,152.28 105.54,151.80 107.67,151.32 108.75,151.31 109.82,151.29 109.56,152.37 109.30,153.44 108.42,152.43 107.53,151.41 106.86,150.41 106.20,149.42 104.95,147.66 103.70,145.89 103.16,144.87 102.61,143.84 101.57,142.66 100.53,141.48 99.44,140.39 98.34,139.30 98.11,138.15 97.88,137.00 98.53,136.03 99.18,135.06 100.05,135.98 100.92,136.90 102.41,137.91 103.91,138.92 105.34,139.76 106.77,140.60 107.90,141.15 109.03,141.70 110.60,142.82 112.18,143.95 113.13,145.32 114.08,146.69 114.28,147.94 114.48,149.19 113.39,150.72 112.30,152.24 109.60,152.36 106.90,152.49 105.36,151.96 103.81,151.44 102.04,150.93 100.28,150.42 99.31,149.83 98.34,149.24 97.09,148.89 95.83,148.54 94.54,148.55 93.26,148.56 91.76,148.55 90.26,148.53 88.75,148.52 87.25,148.51 85.73,148.49 84.22,148.47 83.13,148.46 82.04,148.45 80.54,148.44 79.03,148.43 77.66,148.32 76.28,148.21 75.07,147.78 73.86,147.35 72.56,147.22 71.25,147.10 69.67,146.53 68.10,145.97 66.21,144.98 64.32,143.99 63.32,143.48 62.32,142.96 61.29,142.43 60.27,141.91 59.20,141.41 58.13,140.91 56.81,140.55 55.48,140.19 54.35,139.67 53.22,139.16 51.49,138.33 49.76,137.50 48.79,137.01 47.81,136.51 46.48,135.74 45.15,134.97 43.63,133.93 42.11,132.88 41.05,132.15 39.99,131.41 38.90,130.21 37.82,129.01 36.81,127.65 35.80,126.29 34.20,124.30 32.59,122.31 31.61,120.82 30.63,119.33 30.03,118.26 29.42,117.20 28.94,116.05 28.45,114.90 27.95,113.89 27.44,112.87 26.95,111.83 26.46,110.78 26.03,109.25 25.61,107.73 25.03,106.83 24.45,105.94 24.12,104.68 23.79,103.42 22.66,101.75 21.52,100.08 21.11,98.89 20.69,97.69 20.22,96.41 19.74,95.14 18.76,93.40 17.78,91.67 17.19,90.14 16.61,88.61 16.17,87.40 15.74,86.19 15.26,84.76 14.77,83.33 14.20,81.52 13.63,79.71 13.15,78.64 12.67,77.57 12.16,75.71 11.66,73.84 10.74,71.93 9.83,70.01 9.35,68.04 8.87,66.07 8.30,64.05 7.73,62.03 7.29,60.81 6.85,59.59 6.38,57.64 5.91,55.69 5.56,54.15 5.21,52.61 5.12,50.74 5.03,48.86 4.71,47.39 4.39,45.91 4.36,44.49 4.32,43.06 4.27,41.77 4.22,40.49 4.13,39.40 4.05,38.31 3.71,36.60 3.37,34.89 3.34,33.46 3.31,32.03 3.27,30.71 3.24,29.39 3.20,28.27 3.16,27.16 3.03,25.93 2.90,24.70 2.41,22.29 1.93,19.88 1.53,18.42 1.14,16.95 1.02,15.72 0.89,14.49 0.45,12.67 0.01,10.85 -0.47,9.72 -0.95,8.60 -1.33,7.05 -1.70,5.51 -1.78,4.43 -1.86,3.36 -2.15,1.92 -2.44,0.48 -2.47,0.18 -2.49,-0.11 -2.44,-0.40 -2.39,-0.70 -2.27,-0.98 -2.15,-1.25 -1.97,-1.49 -1.79,-1.73 -1.56,-1.92 -1.32,-2.11 -1.05,-2.24 -0.78,-2.37 -0.48,-2.43 -0.19,-2.49 0.10,-2.47 0.41,-2.46 0.69,-2.37 0.98,-2.29 1.24,-2.14 1.50,-1.99 1.72,-1.78 1.94,-1.57 2.10,-1.31 2.26,-1.06 2.35,-0.77 2.44,-0.48 2.44,-0.48 L 2.44,-0.48 Z"></path></g><g transform="translate(31 545) rotate(0 67 126)" stroke="none"><path fill="#000000" d="M 2.36,-1.18 Q 2.36,-1.18 2.94,-0.02 3.52,1.13 3.89,2.47 4.26,3.82 4.50,5.64 4.74,7.47 5.22,8.88 5.70,10.29 5.79,11.36 5.87,12.43 5.92,14.47 5.98,16.50 5.96,17.80 5.94,19.09 5.94,20.21 5.94,21.33 5.87,23.98 5.81,26.63 5.76,28.18 5.71,29.72 5.68,31.23 5.64,32.75 5.65,33.97 5.66,35.18 5.87,36.64 6.07,38.10 6.12,40.09 6.17,42.09 6.41,43.92 6.64,45.75 6.78,47.54 6.92,49.32 6.88,51.54 6.83,53.75 7.12,55.39 7.42,57.03 7.79,58.91 8.17,60.78 8.34,62.86 8.50,64.94 8.55,66.97 8.60,69.00 8.86,71.20 9.12,73.40 9.49,75.48 9.87,77.56 10.11,79.39 10.34,81.22 10.43,83.17 10.52,85.12 10.61,86.81 10.69,88.49 10.98,90.23 11.27,91.97 11.45,93.69 11.62,95.41 11.73,97.01 11.83,98.61 12.16,99.98 12.49,101.34 12.67,102.96 12.85,104.58 12.97,105.84 13.09,107.09 13.15,108.51 13.21,109.92 13.27,111.08 13.33,112.24 13.80,114.53 14.28,116.82 14.36,118.00 14.45,119.18 14.95,121.16 15.44,123.14 15.51,124.55 15.58,125.96 15.59,127.41 15.60,128.86 15.62,130.05 15.65,131.23 15.65,132.59 15.64,133.95 16.01,136.67 16.38,139.38 16.40,140.99 16.43,142.61 16.43,144.15 16.44,145.70 16.44,147.23 16.43,148.75 16.43,150.25 16.42,151.76 16.68,153.04 16.94,154.32 17.02,156.26 17.10,158.19 17.15,159.86 17.19,161.52 17.16,163.39 17.13,165.25 17.17,166.61 17.22,167.97 17.51,169.19 17.79,170.42 17.90,172.33 18.01,174.23 18.32,175.70 18.63,177.16 18.80,178.83 18.98,180.50 19.31,181.88 19.64,183.25 19.86,184.58 20.07,185.90 20.66,188.00 21.24,190.10 21.57,191.25 21.90,192.40 22.79,193.92 23.67,195.44 24.01,196.71 24.35,197.98 25.22,198.97 26.09,199.97 26.66,201.34 27.23,202.71 27.97,204.01 28.70,205.31 30.07,206.66 31.45,208.01 32.19,208.84 32.93,209.67 33.81,210.62 34.69,211.58 35.52,212.74 36.34,213.91 37.09,214.79 37.85,215.67 39.11,216.71 40.38,217.75 41.44,218.68 42.50,219.62 44.13,220.76 45.77,221.89 47.31,222.89 48.84,223.89 49.90,224.66 50.95,225.44 52.71,226.53 54.47,227.63 55.68,228.27 56.89,228.91 57.94,229.40 58.99,229.89 60.04,230.38 61.08,230.86 63.01,231.80 64.93,232.73 66.03,233.11 67.13,233.48 69.06,233.96 70.99,234.45 72.58,234.54 74.16,234.63 75.97,235.11 77.78,235.59 79.05,235.58 80.31,235.57 82.11,236.07 83.91,236.58 85.52,236.55 87.13,236.53 88.53,236.55 89.93,236.57 91.21,237.00 92.48,237.43 93.83,237.47 95.18,237.51 97.03,238.02 98.88,238.52 100.50,238.51 102.13,238.50 103.97,238.50 105.82,238.51 107.00,238.50 108.18,238.50 110.08,238.89 111.99,239.29 113.44,239.39 114.89,239.49 116.04,239.49 117.20,239.50 118.72,239.49 120.25,239.48 121.75,239.46 123.26,239.45 122.56,241.46 121.86,243.47 120.60,242.38 119.33,241.28 117.99,239.92 116.65,238.56 115.55,237.49 114.46,236.43 113.35,235.77 112.24,235.11 111.10,233.51 109.97,231.90 110.16,230.14 110.35,228.37 111.95,227.30 113.55,226.24 115.34,226.70 117.14,227.16 118.09,227.84 119.05,228.53 120.66,229.90 122.28,231.28 123.04,232.06 123.79,232.85 125.02,233.72 126.24,234.58 127.42,235.68 128.60,236.78 129.60,237.77 130.59,238.77 131.64,239.74 132.69,240.72 133.76,241.27 134.83,241.82 135.78,242.79 136.74,243.75 137.07,245.55 137.39,247.35 136.82,248.79 136.24,250.23 135.21,251.04 134.18,251.86 133.09,251.88 132.00,251.91 130.54,252.69 129.09,253.48 127.94,253.53 126.79,253.58 125.69,253.95 124.59,254.32 121.88,254.97 119.18,255.62 118.59,255.55 118.01,255.48 117.48,255.24 116.95,254.99 116.52,254.58 116.10,254.18 115.83,253.66 115.55,253.14 115.46,252.56 115.37,251.98 115.47,251.40 115.56,250.82 115.84,250.30 116.12,249.79 116.55,249.39 116.97,248.98 117.51,248.74 118.04,248.50 118.62,248.44 119.21,248.37 119.78,248.50 120.35,248.63 120.85,248.94 121.36,249.24 121.73,249.69 122.11,250.14 122.33,250.69 122.54,251.23 122.57,251.82 122.60,252.40 122.44,252.97 122.28,253.53 121.95,254.02 121.62,254.50 121.15,254.85 120.68,255.21 120.12,255.39 119.56,255.58 118.98,255.57 118.39,255.57 117.84,255.38 117.28,255.19 116.82,254.83 116.35,254.48 116.02,253.99 115.70,253.50 115.54,252.94 115.39,252.37 115.42,251.78 115.46,251.20 115.68,250.65 115.90,250.11 116.28,249.67 116.66,249.22 117.16,248.92 117.67,248.62 118.24,248.50 118.82,248.37 118.82,248.37 118.81,248.37 119.24,248.80 119.67,249.22 121.32,248.33 122.96,247.43 124.21,246.94 125.46,246.45 126.58,246.86 127.70,247.27 128.82,247.09 129.94,246.91 128.75,245.73 127.56,244.55 126.20,243.63 124.84,242.71 123.85,241.76 122.87,240.80 121.94,239.99 121.00,239.18 119.91,238.45 118.83,237.73 118.24,236.76 117.65,235.79 116.37,235.11 115.09,234.44 114.38,233.37 113.68,232.31 114.76,231.63 115.84,230.94 115.71,229.76 115.57,228.57 116.85,229.87 118.14,231.16 119.05,232.13 119.97,233.09 121.60,234.29 123.23,235.49 124.54,236.90 125.85,238.32 126.68,239.85 127.50,241.37 126.46,243.67 125.41,245.96 123.33,246.24 121.25,246.52 119.73,246.51 118.21,246.49 117.11,246.48 116.01,246.46 114.43,246.43 112.85,246.40 111.25,246.12 109.64,245.85 108.35,245.67 107.07,245.48 105.64,245.49 104.21,245.49 103.12,245.48 102.02,245.46 100.45,245.43 98.89,245.39 97.40,244.89 95.92,244.39 94.75,244.37 93.58,244.36 92.50,244.27 91.43,244.19 89.79,243.82 88.15,243.45 86.94,243.43 85.73,243.41 84.08,243.28 82.43,243.15 81.24,242.75 80.04,242.36 78.67,242.25 77.30,242.14 76.11,241.71 74.92,241.29 73.72,241.25 72.52,241.22 71.45,241.14 70.38,241.05 69.07,240.62 67.77,240.19 66.14,239.82 64.50,239.46 62.96,238.82 61.42,238.17 60.36,237.66 59.30,237.14 58.29,236.45 57.28,235.76 56.24,235.20 55.20,234.63 53.98,233.94 52.76,233.25 51.21,232.22 49.66,231.18 48.66,230.70 47.66,230.21 45.93,228.97 44.19,227.73 42.59,226.59 40.98,225.45 39.85,224.69 38.72,223.93 37.90,223.21 37.09,222.50 35.34,220.94 33.58,219.38 32.06,217.46 30.55,215.55 29.57,214.57 28.59,213.59 27.32,212.02 26.05,210.45 24.98,209.53 23.92,208.61 23.33,207.65 22.75,206.69 22.24,205.07 21.73,203.44 20.86,202.36 19.99,201.28 19.52,200.21 19.05,199.14 18.55,197.54 18.05,195.95 17.55,194.84 17.06,193.73 16.62,191.42 16.19,189.11 15.83,187.79 15.48,186.48 15.40,185.36 15.32,184.24 14.95,182.58 14.59,180.92 14.47,179.49 14.35,178.06 13.99,176.31 13.62,174.55 13.48,172.93 13.33,171.32 13.04,169.66 12.74,168.01 12.77,166.66 12.80,165.30 12.72,163.49 12.65,161.67 12.59,160.09 12.52,158.51 12.36,156.87 12.20,155.23 11.88,153.51 11.55,151.79 11.54,150.28 11.53,148.78 11.51,147.28 11.49,145.78 11.45,144.27 11.41,142.77 11.33,141.27 11.25,139.76 11.11,138.35 10.96,136.93 10.65,135.47 10.34,134.01 10.32,132.64 10.31,131.28 10.32,130.11 10.32,128.95 10.29,127.57 10.25,126.19 10.14,124.18 10.04,122.16 9.71,120.81 9.38,119.45 9.36,118.37 9.35,117.28 9.28,116.17 9.21,115.05 8.92,113.69 8.63,112.32 8.67,111.16 8.71,109.99 8.72,108.64 8.73,107.30 8.74,106.12 8.75,104.94 8.67,103.54 8.59,102.13 8.29,100.44 8.00,98.75 7.99,97.22 7.99,95.69 7.91,94.11 7.83,92.52 7.52,90.54 7.20,88.56 7.22,86.91 7.24,85.25 7.18,83.40 7.11,81.55 6.99,79.86 6.87,78.16 6.40,76.00 5.93,73.85 5.54,71.49 5.16,69.13 5.06,67.19 4.96,65.26 4.77,63.42 4.57,61.57 4.11,59.64 3.65,57.70 3.31,55.78 2.98,53.87 2.81,51.78 2.64,49.68 2.49,48.09 2.35,46.50 1.90,44.45 1.45,42.40 1.26,40.68 1.07,38.96 0.70,37.08 0.33,35.20 0.34,33.98 0.35,32.75 0.31,31.23 0.28,29.72 0.23,28.18 0.18,26.64 0.11,23.99 0.05,21.34 0.04,20.23 0.04,19.11 0.01,17.84 -0.01,16.56 -0.02,14.67 -0.03,12.78 -0.06,11.48 -0.08,10.19 -0.49,8.24 -0.89,6.29 -1.06,4.88 -1.22,3.46 -1.79,2.32 -2.36,1.18 -2.47,0.88 -2.57,0.58 -2.60,0.26 -2.64,-0.05 -2.59,-0.36 -2.55,-0.68 -2.43,-0.97 -2.31,-1.27 -2.12,-1.53 -1.94,-1.79 -1.70,-1.99 -1.45,-2.20 -1.17,-2.34 -0.88,-2.48 -0.57,-2.55 -0.26,-2.62 0.05,-2.62 0.37,-2.61 0.67,-2.53 0.98,-2.45 1.26,-2.29 1.54,-2.14 1.77,-1.92 2.01,-1.71 2.18,-1.44 2.36,-1.18 2.36,-1.18 L 2.36,-1.18 Z"></path></g></svg>