<svg version="1.1" xmlns="http://www.w3.org/2000/svg" viewBox="0 0 1422.2239999999997 544.25" width="1422.2239999999997" height="544.25">
  <!-- svg-source:excalidraw -->
  
  <defs>
    <style class="style-fonts">
      @font-face {
        font-family: "Virgil";
        src: url("https://excalidraw.com/Virgil.woff2");
      }
      @font-face {
        font-family: "Cascadia";
        src: url("https://excalidraw.com/Cascadia.woff2");
      }
    </style>
  </defs>
  <rect x="0" y="0" width="1422.2239999999997" height="544.25" fill="#ffffff"></rect><g stroke-linecap="round" transform="translate(976.612 154.93599999999998) rotate(0 203.61199999999997 27.03200000000001)"><path d="M0 0 C133.17 0, 266.33 0, 407.22 0 M0 0 C82.08 0, 164.16 0, 407.22 0 M407.22 0 C407.22 13.01, 407.22 26.01, 407.22 54.06 M407.22 0 C407.22 17.71, 407.22 35.42, 407.22 54.06 M407.22 54.06 C280.75 54.06, 154.29 54.06, 0 54.06 M407.22 54.06 C273.65 54.06, 140.07 54.06, 0 54.06 M0 54.06 C0 43.02, 0 31.97, 0 0 M0 54.06 C0 37.58, 0 21.1, 0 0" stroke="#000000" stroke-width="1" fill="none"></path></g><g stroke-linecap="round" transform="translate(976.612 155.808) rotate(0 28.77600000000001 26.596000000000004)"><path d="M0 0 C14.77 0, 29.54 0, 57.55 0 M0 0 C15.83 0, 31.67 0, 57.55 0 M57.55 0 C57.55 20.63, 57.55 41.26, 57.55 53.19 M57.55 0 C57.55 19.4, 57.55 38.8, 57.55 53.19 M57.55 53.19 C37.93 53.19, 18.31 53.19, 0 53.19 M57.55 53.19 C41.51 53.19, 25.48 53.19, 0 53.19 M0 53.19 C0 41.35, 0 29.51, 0 0 M0 53.19 C0 36.48, 0 19.76, 0 0" stroke="#000000" stroke-width="1" fill="none"></path></g><g stroke-linecap="round" transform="translate(1035.036 155.372) rotate(0 28.77600000000001 26.596000000000004)"><path d="M0 0 C11.72 0, 23.44 0, 57.55 0 M0 0 C22.75 0, 45.5 0, 57.55 0 M57.55 0 C57.55 11.85, 57.55 23.7, 57.55 53.19 M57.55 0 C57.55 12.23, 57.55 24.46, 57.55 53.19 M57.55 53.19 C44.23 53.19, 30.91 53.19, 0 53.19 M57.55 53.19 C42.93 53.19, 28.31 53.19, 0 53.19 M0 53.19 C0 36.68, 0 20.17, 0 0 M0 53.19 C0 34.87, 0 16.56, 0 0" stroke="#000000" stroke-width="1" fill="none"></path></g><g stroke-linecap="round" transform="translate(1092.588 155.372) rotate(0 28.77600000000001 26.596000000000004)"><path d="M0 0 C12.31 0, 24.62 0, 57.55 0 M0 0 C19.04 0, 38.08 0, 57.55 0 M57.55 0 C57.55 20.44, 57.55 40.89, 57.55 53.19 M57.55 0 C57.55 16.68, 57.55 33.36, 57.55 53.19 M57.55 53.19 C35.58 53.19, 13.61 53.19, 0 53.19 M57.55 53.19 C40.33 53.19, 23.11 53.19, 0 53.19 M0 53.19 C0 39.16, 0 25.13, 0 0 M0 53.19 C0 32.93, 0 12.67, 0 0" stroke="#000000" stroke-width="1" fill="none"></path></g><g stroke-linecap="round" transform="translate(1148.396 155.372) rotate(0 28.77600000000001 26.596000000000004)"><path d="M0 0 C20.86 0, 41.73 0, 57.55 0 M0 0 C19.12 0, 38.23 0, 57.55 0 M57.55 0 C57.55 16.95, 57.55 33.91, 57.55 53.19 M57.55 0 C57.55 14.56, 57.55 29.11, 57.55 53.19 M57.55 53.19 C40.82 53.19, 24.09 53.19, 0 53.19 M57.55 53.19 C40 53.19, 22.45 53.19, 0 53.19 M0 53.19 C0 41.38, 0 29.58, 0 0 M0 53.19 C0 34.13, 0 15.06, 0 0" stroke="#000000" stroke-width="1" fill="none"></path></g><g stroke-linecap="round" transform="translate(1207.692 154.5) rotate(0 28.77600000000001 26.596000000000004)"><path d="M0 0 C13.61 0, 27.23 0, 57.55 0 M0 0 C12.67 0, 25.34 0, 57.55 0 M57.55 0 C57.55 15.98, 57.55 31.95, 57.55 53.19 M57.55 0 C57.55 15.6, 57.55 31.21, 57.55 53.19 M57.55 53.19 C45.37 53.19, 33.2 53.19, 0 53.19 M57.55 53.19 C35.46 53.19, 13.37 53.19, 0 53.19 M0 53.19 C0 41.41, 0 29.64, 0 0 M0 53.19 C0 32.89, 0 12.59, 0 0" stroke="#000000" stroke-width="1" fill="none"></path></g><g stroke-linecap="round" transform="translate(1266.116 155.372) rotate(0 28.77600000000001 26.596000000000004)"><path d="M0 0 C19.2 0, 38.4 0, 57.55 0 M0 0 C18.66 0, 37.33 0, 57.55 0 M57.55 0 C57.55 15.7, 57.55 31.4, 57.55 53.19 M57.55 0 C57.55 17.56, 57.55 35.13, 57.55 53.19 M57.55 53.19 C43.75 53.19, 29.94 53.19, 0 53.19 M57.55 53.19 C44.72 53.19, 31.89 53.19, 0 53.19 M0 53.19 C0 33.19, 0 13.19, 0 0 M0 53.19 C0 32.84, 0 12.48, 0 0" stroke="#000000" stroke-width="1" fill="none"></path></g><g stroke-linecap="round" transform="translate(1325.4119999999998 154.5) rotate(0 28.775999999999954 26.596000000000004)"><path d="M0 0 C14.76 0, 29.52 0, 57.55 0 M0 0 C13.1 0, 26.21 0, 57.55 0 M57.55 0 C57.55 12.18, 57.55 24.37, 57.55 53.19 M57.55 0 C57.55 14.01, 57.55 28.01, 57.55 53.19 M57.55 53.19 C37.17 53.19, 16.79 53.19, 0 53.19 M57.55 53.19 C36.56 53.19, 15.56 53.19, 0 53.19 M0 53.19 C0 42.37, 0 31.54, 0 0 M0 53.19 C0 32.16, 0 11.13, 0 0" stroke="#000000" stroke-width="1" fill="none"></path></g><g transform="translate(800.612 19) rotate(0 95.3369140625 11.5)"><text x="0" y="0" font-family="Helvetica, Segoe UI Emoji" font-size="20px" fill="#000000" text-anchor="start" style="white-space: pre;" direction="ltr" dominant-baseline="text-before-edge">hospital-&gt;pokemones</text></g><g stroke-linecap="round" transform="translate(789.612 10) rotate(0 106.5 21)"><path d="M10.5 0 M10.5 0 C83.63 0, 156.76 0, 202.5 0 M10.5 0 C59.86 0, 109.22 0, 202.5 0 M202.5 0 C209.5 0, 213 3.5, 213 10.5 M202.5 0 C209.5 0, 213 3.5, 213 10.5 M213 10.5 C213 17.85, 213 25.21, 213 31.5 M213 10.5 C213 15.19, 213 19.89, 213 31.5 M213 31.5 C213 38.5, 209.5 42, 202.5 42 M213 31.5 C213 38.5, 209.5 42, 202.5 42 M202.5 42 C129.96 42, 57.41 42, 10.5 42 M202.5 42 C157.14 42, 111.78 42, 10.5 42 M10.5 42 C3.5 42, 0 38.5, 0 31.5 M10.5 42 C3.5 42, 0 38.5, 0 31.5 M0 31.5 C0 24.25, 0 17.01, 0 10.5 M0 31.5 C0 26.84, 0 22.18, 0 10.5 M0 10.5 C0 3.5, 3.5 0, 10.5 0 M0 10.5 C0 3.5, 3.5 0, 10.5 0" stroke="#000000" stroke-width="1" fill="none"></path></g><g stroke-linecap="round"><g transform="translate(933.5522733680052 58.103999999999985) rotate(0 28.733712734697463 46.23600000000002)"><path d="M0 0 C9.58 15.41, 47.89 77.06, 57.47 92.47 M0 0 C9.58 15.41, 47.89 77.06, 57.47 92.47" stroke="#000000" stroke-width="1" fill="none"></path></g><g transform="translate(933.5522733680052 58.103999999999985) rotate(0 28.733712734697463 46.23600000000002)"><path d="M33.87 73.94 C40.05 78.79, 46.22 83.64, 57.47 92.47 M33.87 73.94 C40.03 78.78, 46.2 83.62, 57.47 92.47" stroke="#000000" stroke-width="1" fill="none"></path></g><g transform="translate(933.5522733680052 58.103999999999985) rotate(0 28.733712734697463 46.23600000000002)"><path d="M51.3 63.11 C52.92 70.79, 54.53 78.48, 57.47 92.47 M51.3 63.11 C52.91 70.78, 54.52 78.45, 57.47 92.47" stroke="#000000" stroke-width="1" fill="none"></path></g></g><mask></mask><g transform="translate(801.612 283) rotate(0 76.1669921875 11.5)"><text x="0" y="0" font-family="Helvetica, Segoe UI Emoji" font-size="20px" fill="#000000" text-anchor="start" style="white-space: pre;" direction="ltr" dominant-baseline="text-before-edge">Luego del realloc</text></g><g stroke-linecap="round" transform="translate(782.612 270) rotate(0 92.5 25)"><path d="M12.5 0 M12.5 0 C56.08 0, 99.66 0, 172.5 0 M12.5 0 C53.15 0, 93.8 0, 172.5 0 M172.5 0 C180.83 0, 185 4.17, 185 12.5 M172.5 0 C180.83 0, 185 4.17, 185 12.5 M185 12.5 C185 18.55, 185 24.61, 185 37.5 M185 12.5 C185 20.26, 185 28.02, 185 37.5 M185 37.5 C185 45.83, 180.83 50, 172.5 50 M185 37.5 C185 45.83, 180.83 50, 172.5 50 M172.5 50 C129.95 50, 87.4 50, 12.5 50 M172.5 50 C132.46 50, 92.41 50, 12.5 50 M12.5 50 C4.17 50, 0 45.83, 0 37.5 M12.5 50 C4.17 50, 0 45.83, 0 37.5 M0 37.5 C0 28.31, 0 19.11, 0 12.5 M0 37.5 C0 31.82, 0 26.13, 0 12.5 M0 12.5 C0 4.17, 4.17 0, 12.5 0 M0 12.5 C0 4.17, 4.17 0, 12.5 0" stroke="#000000" stroke-width="1" fill="none"></path></g><g transform="translate(992.612 199) rotate(0 8 -12)" stroke="none"><path fill="#000000" d="M -2.59,-0.64 Q -2.59,-0.64 -2.31,-1.80 -2.03,-2.97 -1.54,-4.05 -1.04,-5.14 -0.52,-6.16 -0.00,-7.18 0.44,-8.16 0.89,-9.13 1.35,-10.49 1.80,-11.85 2.40,-12.92 2.99,-13.99 3.95,-15.14 4.91,-16.29 5.44,-17.30 5.97,-18.31 7.51,-19.65 9.05,-20.98 10.33,-22.20 11.61,-23.41 12.22,-24.38 12.82,-25.35 13.12,-25.82 13.42,-26.29 13.85,-26.64 14.28,-26.99 14.81,-27.19 15.33,-27.38 15.89,-27.40 16.45,-27.42 16.98,-27.26 17.52,-27.09 17.97,-26.77 18.43,-26.45 18.75,-25.99 19.08,-25.54 19.25,-25.01 19.41,-24.48 19.40,-23.92 19.39,-23.36 19.20,-22.83 19.01,-22.31 18.66,-21.87 18.31,-21.43 17.84,-21.13 17.37,-20.83 16.83,-20.69 16.29,-20.55 15.73,-20.60 15.18,-20.64 14.66,-20.86 14.15,-21.08 13.73,-21.45 13.31,-21.82 13.04,-22.31 12.76,-22.79 12.65,-23.34 12.54,-23.89 12.62,-24.44 12.69,-25.00 12.94,-25.50 13.18,-26.00 13.58,-26.40 13.97,-26.79 14.47,-27.04 14.97,-27.29 15.52,-27.37 16.07,-27.45 16.62,-27.34 17.17,-27.24 17.66,-26.97 18.15,-26.69 18.52,-26.28 18.90,-25.87 19.12,-25.35 19.34,-24.84 19.39,-24.28 19.44,-23.73 19.31,-23.19 19.17,-22.64 19.17,-22.64 19.17,-22.64 17.80,-21.13 16.43,-19.61 15.34,-18.50 14.25,-17.39 13.41,-16.59 12.56,-15.80 11.70,-15.02 10.84,-14.24 10.21,-13.13 9.59,-12.03 8.41,-10.31 7.24,-8.59 6.56,-7.07 5.87,-5.56 5.23,-4.49 4.60,-3.42 3.89,-2.52 3.18,-1.62 2.88,-0.49 2.59,0.64 2.47,0.94 2.36,1.24 2.17,1.51 1.99,1.77 1.75,1.99 1.51,2.20 1.22,2.35 0.93,2.50 0.62,2.57 0.31,2.65 -0.00,2.65 -0.33,2.65 -0.64,2.57 -0.95,2.49 -1.24,2.34 -1.52,2.19 -1.76,1.97 -2.00,1.76 -2.18,1.49 -2.37,1.23 -2.48,0.93 -2.59,0.63 -2.63,0.31 -2.67,-0.00 -2.63,-0.32 -2.59,-0.64 -2.59,-0.64 L -2.59,-0.64 Z"></path></g><g transform="translate(985.612 177) rotate(0 8.5 7)" stroke="none"><path fill="#000000" d="M 1.88,-1.88 Q 1.88,-1.88 2.76,-1.02 3.64,-0.15 4.25,0.76 4.86,1.67 6.56,2.85 8.26,4.03 9.66,4.99 11.06,5.96 12.54,6.73 14.02,7.51 15.13,7.74 16.25,7.98 18.15,10.33 20.06,12.69 20.19,13.21 20.31,13.73 20.27,14.27 20.22,14.81 20.01,15.30 19.80,15.79 19.43,16.19 19.07,16.59 18.60,16.86 18.14,17.12 17.61,17.22 17.08,17.32 16.54,17.25 16.01,17.17 15.53,16.93 15.05,16.69 14.67,16.31 14.29,15.93 14.05,15.45 13.81,14.96 13.74,14.43 13.67,13.90 13.77,13.37 13.87,12.84 14.14,12.37 14.41,11.90 14.81,11.54 15.21,11.19 15.70,10.97 16.20,10.76 16.74,10.72 17.27,10.68 17.80,10.81 18.32,10.94 18.77,11.23 19.22,11.52 19.56,11.94 19.90,12.36 20.08,12.87 20.27,13.38 20.28,13.91 20.29,14.45 20.13,14.97 19.97,15.48 19.66,15.92 19.34,16.36 18.90,16.67 18.47,16.98 17.95,17.14 17.44,17.29 16.90,17.28 16.36,17.26 15.85,17.08 15.35,16.89 14.93,16.55 14.51,16.21 14.22,15.76 13.93,15.30 13.93,15.30 13.93,15.30 12.65,14.07 11.37,12.83 10.33,12.27 9.28,11.71 8.10,11.03 6.93,10.36 6.01,9.80 5.09,9.24 4.46,8.26 3.82,7.28 2.59,6.68 1.35,6.07 0.58,4.84 -0.19,3.60 -1.04,2.74 -1.88,1.88 -2.08,1.63 -2.28,1.38 -2.41,1.08 -2.55,0.79 -2.60,0.47 -2.66,0.16 -2.64,-0.16 -2.62,-0.48 -2.53,-0.78 -2.43,-1.09 -2.26,-1.37 -2.10,-1.64 -1.87,-1.87 -1.64,-2.10 -1.37,-2.27 -1.09,-2.43 -0.78,-2.53 -0.48,-2.62 -0.15,-2.64 0.16,-2.66 0.47,-2.60 0.79,-2.55 1.08,-2.41 1.38,-2.28 1.63,-2.08 1.88,-1.88 1.88,-1.88 L 1.88,-1.88 Z"></path></g><g transform="translate(1046.612 197) rotate(0 13 -10.5)" stroke="none"><path fill="#000000" d="M -1.88,-1.88 Q -1.88,-1.88 -1.01,-2.76 -0.15,-3.64 0.92,-4.66 1.99,-5.69 2.87,-6.35 3.75,-7.02 4.95,-8.24 6.15,-9.47 7.18,-10.16 8.21,-10.85 9.15,-11.71 10.10,-12.57 11.11,-13.22 12.11,-13.87 13.33,-15.03 14.55,-16.20 15.78,-17.40 17.01,-18.60 18.49,-19.64 19.96,-20.69 21.95,-22.16 23.93,-23.63 24.40,-23.89 24.88,-24.15 25.41,-24.25 25.94,-24.34 26.48,-24.26 27.01,-24.18 27.50,-23.94 27.98,-23.69 28.36,-23.30 28.74,-22.92 28.97,-22.43 29.21,-21.94 29.27,-21.40 29.34,-20.87 29.23,-20.33 29.12,-19.80 28.85,-19.34 28.58,-18.87 28.17,-18.51 27.76,-18.15 27.26,-17.95 26.76,-17.74 26.22,-17.70 25.68,-17.66 25.16,-17.80 24.64,-17.94 24.18,-18.23 23.73,-18.53 23.40,-18.96 23.06,-19.38 22.88,-19.89 22.70,-20.40 22.69,-20.94 22.68,-21.49 22.85,-22.00 23.01,-22.52 23.33,-22.95 23.66,-23.39 24.10,-23.70 24.54,-24.01 25.06,-24.16 25.58,-24.32 26.12,-24.30 26.66,-24.28 27.17,-24.08 27.68,-23.89 28.09,-23.55 28.51,-23.20 28.80,-22.74 29.09,-22.28 29.21,-21.75 29.33,-21.23 29.28,-20.69 29.23,-20.15 29.01,-19.65 28.79,-19.16 28.43,-18.76 28.06,-18.36 28.06,-18.36 28.06,-18.36 26.39,-17.16 24.73,-15.96 23.59,-15.43 22.46,-14.90 21.44,-13.92 20.41,-12.94 18.93,-11.89 17.44,-10.84 15.85,-9.39 14.26,-7.94 12.86,-6.81 11.45,-5.68 10.36,-4.89 9.28,-4.11 7.80,-3.12 6.33,-2.14 4.96,-0.97 3.60,0.19 2.74,1.03 1.88,1.88 1.63,2.08 1.38,2.28 1.08,2.41 0.79,2.54 0.47,2.60 0.16,2.66 -0.15,2.64 -0.48,2.62 -0.78,2.52 -1.09,2.43 -1.37,2.26 -1.64,2.09 -1.87,1.87 -2.10,1.64 -2.26,1.36 -2.43,1.09 -2.52,0.78 -2.62,0.48 -2.64,0.15 -2.66,-0.16 -2.60,-0.47 -2.54,-0.79 -2.41,-1.08 -2.28,-1.38 -2.08,-1.63 -1.88,-1.88 -1.88,-1.88 L -1.88,-1.88 Z"></path></g><g transform="translate(1051.612 171) rotate(0 16.5 11)" stroke="none"><path fill="#000000" d="M 2.37,-1.18 Q 2.37,-1.18 2.95,-0.03 3.52,1.10 4.45,2.20 5.38,3.30 6.64,4.56 7.90,5.82 9.09,6.78 10.29,7.74 11.76,8.85 13.22,9.96 15.04,10.87 16.86,11.78 18.24,12.23 19.63,12.68 21.34,13.57 23.04,14.46 24.42,15.08 25.81,15.70 27.21,16.16 28.62,16.62 29.81,17.17 31.01,17.72 32.48,18.25 33.95,18.79 34.44,19.02 34.92,19.26 35.31,19.64 35.70,20.02 35.94,20.50 36.18,20.98 36.26,21.52 36.34,22.06 36.24,22.59 36.15,23.12 35.88,23.59 35.62,24.07 35.22,24.43 34.82,24.80 34.33,25.02 33.83,25.24 33.29,25.28 32.75,25.33 32.23,25.21 31.70,25.08 31.24,24.79 30.78,24.51 30.44,24.09 30.10,23.67 29.91,23.16 29.71,22.65 29.69,22.11 29.68,21.57 29.83,21.05 29.98,20.53 30.30,20.09 30.61,19.65 31.04,19.33 31.48,19.01 32.00,18.85 32.51,18.68 33.06,18.69 33.60,18.70 34.11,18.89 34.62,19.07 35.04,19.40 35.47,19.74 35.76,20.19 36.06,20.65 36.19,21.17 36.33,21.69 36.29,22.23 36.25,22.77 36.04,23.27 35.83,23.77 35.47,24.18 35.11,24.58 34.65,24.86 34.18,25.13 33.65,25.23 33.11,25.34 32.58,25.27 32.04,25.20 32.04,25.20 32.04,25.20 30.65,24.57 29.26,23.94 28.26,23.42 27.26,22.91 26.19,22.41 25.12,21.92 23.80,21.55 22.47,21.19 21.33,20.66 20.19,20.13 19.23,19.66 18.27,19.18 17.20,18.52 16.13,17.86 14.81,17.48 13.49,17.10 12.35,16.51 11.21,15.92 9.73,14.84 8.26,13.76 7.02,12.94 5.78,12.13 4.77,10.95 3.76,9.78 2.95,8.95 2.14,8.12 1.05,6.75 -0.03,5.39 -0.63,4.44 -1.22,3.49 -1.80,2.33 -2.37,1.18 -2.48,0.88 -2.58,0.58 -2.62,0.26 -2.65,-0.05 -2.60,-0.36 -2.56,-0.68 -2.44,-0.98 -2.32,-1.27 -2.13,-1.53 -1.95,-1.79 -1.70,-2.00 -1.46,-2.21 -1.17,-2.35 -0.89,-2.49 -0.57,-2.56 -0.26,-2.64 0.05,-2.63 0.37,-2.62 0.68,-2.54 0.98,-2.46 1.27,-2.30 1.55,-2.15 1.78,-1.93 2.02,-1.72 2.19,-1.45 2.37,-1.18 2.37,-1.18 L 2.37,-1.18 Z"></path></g><g transform="translate(1120.612 191) rotate(0 11 -11.5)" stroke="none"><path fill="#000000" d="M -2.22,-1.48 Q -2.22,-1.48 -1.66,-2.35 -1.11,-3.23 -0.44,-4.36 0.23,-5.48 1.05,-6.29 1.88,-7.11 2.93,-8.60 3.99,-10.09 4.91,-10.72 5.84,-11.35 6.77,-12.25 7.70,-13.15 8.86,-14.31 10.03,-15.47 10.97,-16.01 11.90,-16.54 12.91,-17.52 13.92,-18.49 14.95,-19.51 15.97,-20.53 16.96,-21.55 17.95,-22.56 18.46,-23.42 18.97,-24.28 19.26,-24.73 19.54,-25.18 19.96,-25.52 20.37,-25.85 20.87,-26.03 21.36,-26.22 21.90,-26.24 22.43,-26.25 22.94,-26.10 23.44,-25.94 23.88,-25.63 24.31,-25.33 24.62,-24.90 24.93,-24.46 25.09,-23.96 25.25,-23.45 25.24,-22.92 25.22,-22.39 25.04,-21.89 24.86,-21.39 24.53,-20.97 24.20,-20.56 23.75,-20.27 23.30,-19.98 22.79,-19.85 22.27,-19.72 21.74,-19.76 21.21,-19.80 20.72,-20.01 20.23,-20.22 19.84,-20.57 19.44,-20.93 19.18,-21.39 18.91,-21.85 18.81,-22.37 18.71,-22.90 18.78,-23.42 18.85,-23.95 19.09,-24.43 19.32,-24.90 19.70,-25.28 20.07,-25.66 20.55,-25.90 21.02,-26.13 21.55,-26.21 22.07,-26.28 22.60,-26.18 23.12,-26.08 23.58,-25.82 24.05,-25.56 24.40,-25.17 24.76,-24.77 24.97,-24.29 25.18,-23.80 25.23,-23.27 25.27,-22.74 25.14,-22.22 25.02,-21.71 25.02,-21.71 25.02,-21.71 23.27,-19.33 21.52,-16.95 20.46,-15.93 19.39,-14.90 18.12,-13.74 16.86,-12.58 15.59,-11.75 14.33,-10.91 13.15,-9.77 11.96,-8.64 11.08,-7.80 10.20,-6.96 9.01,-6.12 7.81,-5.27 6.45,-4.05 5.10,-2.84 4.25,-1.52 3.41,-0.21 2.81,0.63 2.22,1.48 2.01,1.72 1.80,1.97 1.54,2.15 1.28,2.34 0.98,2.46 0.68,2.58 0.36,2.62 0.04,2.67 -0.27,2.63 -0.59,2.60 -0.90,2.49 -1.20,2.38 -1.47,2.20 -1.73,2.02 -1.95,1.79 -2.17,1.55 -2.32,1.27 -2.48,0.98 -2.56,0.67 -2.64,0.36 -2.65,0.04 -2.65,-0.27 -2.58,-0.59 -2.51,-0.90 -2.36,-1.19 -2.22,-1.48 -2.22,-1.48 L -2.22,-1.48 Z"></path></g><g transform="translate(1120.612 162) rotate(0 10.5 15.5)" stroke="none"><path fill="#000000" d="M 2.60,0 Q 2.60,0 2.62,1.15 2.64,2.3 2.67,3.36 2.69,4.42 3.37,6.39 4.05,8.36 4.95,9.82 5.84,11.29 6.35,12.26 6.86,13.23 8.07,14.64 9.29,16.05 10.04,17.54 10.79,19.04 11.71,19.90 12.62,20.76 14.14,22.43 15.65,24.10 16.61,24.89 17.56,25.68 19.55,26.80 21.55,27.93 22.02,28.10 22.50,28.27 22.90,28.58 23.29,28.89 23.57,29.31 23.84,29.73 23.97,30.22 24.10,30.71 24.06,31.21 24.03,31.71 23.83,32.18 23.64,32.64 23.31,33.02 22.97,33.40 22.54,33.66 22.10,33.91 21.61,34.01 21.11,34.11 20.61,34.05 20.11,33.98 19.66,33.76 19.20,33.54 18.84,33.19 18.48,32.84 18.26,32.39 18.03,31.94 17.95,31.44 17.88,30.94 17.97,30.45 18.06,29.95 18.30,29.51 18.55,29.07 18.92,28.73 19.29,28.39 19.75,28.18 20.21,27.98 20.71,27.93 21.22,27.89 21.71,28.00 22.20,28.12 22.62,28.39 23.05,28.65 23.37,29.04 23.69,29.43 23.87,29.90 24.05,30.38 24.07,30.88 24.09,31.38 23.94,31.87 23.80,32.35 23.51,32.76 23.22,33.18 22.81,33.47 22.41,33.77 21.93,33.92 21.45,34.08 20.94,34.07 20.44,34.06 20.44,34.06 20.44,34.06 17.26,32.37 14.07,30.67 12.39,29.08 10.70,27.49 9.86,26.45 9.01,25.40 7.92,24.45 6.83,23.50 6.20,22.51 5.57,21.52 4.57,19.93 3.58,18.35 2.63,17.14 1.68,15.93 0.76,14.14 -0.15,12.36 -0.70,11.34 -1.26,10.33 -1.62,9.33 -1.98,8.33 -2.34,6.38 -2.69,4.42 -2.67,3.36 -2.64,2.3 -2.62,1.15 -2.60,0 -2.56,-0.31 -2.52,-0.62 -2.41,-0.91 -2.30,-1.20 -2.12,-1.46 -1.94,-1.72 -1.71,-1.93 -1.47,-2.14 -1.20,-2.28 -0.92,-2.43 -0.61,-2.50 -0.31,-2.58 0.00,-2.58 0.31,-2.58 0.61,-2.50 0.92,-2.43 1.20,-2.28 1.47,-2.14 1.71,-1.93 1.94,-1.72 2.12,-1.46 2.30,-1.20 2.41,-0.91 2.52,-0.62 2.56,-0.31 2.60,0.00 2.60,0.00 L 2.60,0 Z"></path></g><g transform="translate(1161.612 193) rotate(0 13 -11)" stroke="none"><path fill="#000000" d="M -1.18,-2.36 Q -1.18,-2.36 -0.03,-2.94 1.11,-3.52 2.32,-4.13 3.53,-4.74 4.62,-5.88 5.72,-7.02 7.50,-7.98 9.29,-8.94 10.02,-9.80 10.74,-10.65 11.85,-11.57 12.96,-12.49 14.32,-13.75 15.68,-15.00 16.64,-15.59 17.59,-16.19 19.12,-17.63 20.65,-19.08 21.77,-20.84 22.90,-22.60 23.07,-23.08 23.25,-23.56 23.57,-23.96 23.90,-24.36 24.33,-24.63 24.76,-24.90 25.26,-25.02 25.75,-25.14 26.26,-25.10 26.77,-25.06 27.24,-24.85 27.71,-24.65 28.09,-24.31 28.47,-23.96 28.72,-23.52 28.96,-23.07 29.06,-22.57 29.15,-22.07 29.08,-21.56 29.01,-21.05 28.78,-20.60 28.55,-20.14 28.19,-19.78 27.83,-19.42 27.37,-19.20 26.91,-18.97 26.40,-18.90 25.89,-18.84 25.39,-18.94 24.89,-19.04 24.45,-19.29 24.00,-19.54 23.67,-19.92 23.33,-20.31 23.13,-20.78 22.93,-21.25 22.89,-21.76 22.85,-22.27 22.97,-22.76 23.10,-23.26 23.38,-23.69 23.65,-24.12 24.05,-24.43 24.45,-24.75 24.93,-24.93 25.41,-25.10 25.93,-25.11 26.44,-25.12 26.92,-24.97 27.41,-24.82 27.83,-24.52 28.24,-24.22 28.54,-23.80 28.83,-23.38 28.98,-22.90 29.13,-22.41 29.11,-21.90 29.09,-21.38 29.09,-21.39 29.09,-21.39 27.04,-18.00 24.98,-14.62 23.52,-13.26 22.06,-11.90 20.93,-11.25 19.81,-10.60 18.93,-9.74 18.05,-8.87 16.80,-7.95 15.55,-7.03 14.67,-5.95 13.78,-4.87 12.89,-4.27 12.00,-3.67 10.20,-2.91 8.41,-2.14 7.52,-1.12 6.63,-0.10 5.06,0.56 3.48,1.22 2.33,1.79 1.18,2.36 0.88,2.47 0.58,2.58 0.26,2.61 -0.05,2.64 -0.36,2.60 -0.68,2.55 -0.98,2.43 -1.27,2.32 -1.53,2.13 -1.79,1.94 -2.00,1.70 -2.20,1.46 -2.35,1.17 -2.49,0.89 -2.56,0.57 -2.63,0.26 -2.62,-0.05 -2.62,-0.37 -2.53,-0.67 -2.45,-0.98 -2.30,-1.26 -2.14,-1.54 -1.93,-1.78 -1.71,-2.01 -1.45,-2.19 -1.18,-2.36 -1.18,-2.36 L -1.18,-2.36 Z"></path></g><g transform="translate(1170.612 171) rotate(0 11 16.5)" stroke="none"><path fill="#000000" d="M 2.64,0 Q 2.64,0 2.66,1.15 2.68,2.3 3.13,3.44 3.59,4.58 4.59,5.89 5.60,7.21 6.22,8.23 6.83,9.25 7.67,10.53 8.52,11.82 9.02,12.78 9.52,13.74 10.67,15.34 11.81,16.94 12.88,18.52 13.95,20.10 15.04,21.35 16.12,22.61 17.29,23.78 18.45,24.96 19.13,25.99 19.81,27.01 22.04,28.84 24.26,30.67 24.58,31.09 24.89,31.51 25.05,32.02 25.21,32.52 25.20,33.04 25.19,33.57 25.02,34.06 24.84,34.56 24.52,34.97 24.20,35.39 23.76,35.67 23.32,35.96 22.81,36.10 22.30,36.23 21.78,36.19 21.25,36.16 20.77,35.96 20.28,35.75 19.88,35.41 19.49,35.06 19.22,34.61 18.96,34.15 18.85,33.64 18.75,33.12 18.81,32.60 18.88,32.08 19.10,31.61 19.33,31.13 19.70,30.76 20.07,30.38 20.53,30.14 21.00,29.90 21.52,29.82 22.04,29.75 22.56,29.84 23.08,29.93 23.54,30.18 24.00,30.44 24.35,30.82 24.71,31.21 24.92,31.69 25.14,32.17 25.19,32.70 25.24,33.22 25.12,33.73 25.00,34.24 24.72,34.69 24.44,35.13 24.03,35.47 23.63,35.80 23.14,35.99 22.65,36.18 22.12,36.20 21.60,36.22 21.09,36.07 20.59,35.92 20.16,35.62 19.73,35.32 19.73,35.32 19.73,35.32 18.09,33.72 16.45,32.12 15.18,30.74 13.91,29.36 12.72,28.11 11.53,26.86 10.63,25.91 9.73,24.97 8.72,23.45 7.70,21.94 6.61,20.36 5.51,18.78 4.53,17.32 3.55,15.85 2.21,13.92 0.88,12.00 0.40,10.60 -0.07,9.21 -0.84,7.73 -1.60,6.26 -2.14,4.28 -2.68,2.3 -2.66,1.15 -2.64,0 -2.60,-0.31 -2.56,-0.63 -2.45,-0.93 -2.34,-1.22 -2.15,-1.49 -1.97,-1.75 -1.74,-1.96 -1.50,-2.17 -1.21,-2.32 -0.93,-2.47 -0.62,-2.54 -0.31,-2.62 0.00,-2.62 0.31,-2.62 0.62,-2.54 0.93,-2.47 1.21,-2.32 1.50,-2.17 1.74,-1.96 1.97,-1.75 2.15,-1.49 2.34,-1.22 2.45,-0.93 2.56,-0.63 2.60,-0.31 2.64,0.00 2.64,0.00 L 2.64,0 Z"></path></g><g stroke-linecap="round" transform="translate(1004.9999999999999 477.1859999999999) rotate(0 203.61199999999997 27.031999999999982)"><path d="M0 0 C118.87 0, 237.74 0, 407.22 0 M0 0 C85.27 0, 170.55 0, 407.22 0 M407.22 0 C407.22 17.07, 407.22 34.14, 407.22 54.06 M407.22 0 C407.22 15.16, 407.22 30.33, 407.22 54.06 M407.22 54.06 C303.4 54.06, 199.57 54.06, 0 54.06 M407.22 54.06 C288.05 54.06, 168.87 54.06, 0 54.06 M0 54.06 C0 35.24, 0 16.42, 0 0 M0 54.06 C0 35.7, 0 17.34, 0 0" stroke="#000000" stroke-width="1" fill="none"></path></g><g stroke-linecap="round" transform="translate(1004.9999999999999 478.058) rotate(0 28.77600000000001 26.596000000000004)"><path d="M0 0 C22.47 0, 44.94 0, 57.55 0 M0 0 C20.76 0, 41.52 0, 57.55 0 M57.55 0 C57.55 20.46, 57.55 40.93, 57.55 53.19 M57.55 0 C57.55 13.91, 57.55 27.82, 57.55 53.19 M57.55 53.19 C39.89 53.19, 22.23 53.19, 0 53.19 M57.55 53.19 C37.02 53.19, 16.49 53.19, 0 53.19 M0 53.19 C0 41.02, 0 28.84, 0 0 M0 53.19 C0 33.59, 0 13.98, 0 0" stroke="#000000" stroke-width="1" fill="none"></path></g><g stroke-linecap="round" transform="translate(1063.424 477.62200000000007) rotate(0 28.77600000000001 26.596000000000004)"><path d="M0 0 C20.91 0, 41.81 0, 57.55 0 M0 0 C12.35 0, 24.7 0, 57.55 0 M57.55 0 C57.55 11.49, 57.55 22.98, 57.55 53.19 M57.55 0 C57.55 17.23, 57.55 34.46, 57.55 53.19 M57.55 53.19 C38.52 53.19, 19.48 53.19, 0 53.19 M57.55 53.19 C38.03 53.19, 18.5 53.19, 0 53.19 M0 53.19 C0 39.29, 0 25.38, 0 0 M0 53.19 C0 38.34, 0 23.48, 0 0" stroke="#000000" stroke-width="1" fill="none"></path></g><g stroke-linecap="round" transform="translate(1120.976 477.62200000000007) rotate(0 28.77600000000001 26.596000000000004)"><path d="M0 0 C12.61 0, 25.22 0, 57.55 0 M0 0 C12.5 0, 25 0, 57.55 0 M57.55 0 C57.55 13.11, 57.55 26.22, 57.55 53.19 M57.55 0 C57.55 17.29, 57.55 34.57, 57.55 53.19 M57.55 53.19 C38.27 53.19, 18.99 53.19, 0 53.19 M57.55 53.19 C45.39 53.19, 33.22 53.19, 0 53.19 M0 53.19 C0 42.04, 0 30.88, 0 0 M0 53.19 C0 35.76, 0 18.34, 0 0" stroke="#000000" stroke-width="1" fill="none"></path></g><g stroke-linecap="round" transform="translate(1176.784 477.62200000000007) rotate(0 28.77600000000001 26.596000000000004)"><path d="M0 0 C16.65 0, 33.3 0, 57.55 0 M0 0 C21.14 0, 42.29 0, 57.55 0 M57.55 0 C57.55 13.66, 57.55 27.33, 57.55 53.19 M57.55 0 C57.55 18.82, 57.55 37.64, 57.55 53.19 M57.55 53.19 C40.8 53.19, 24.05 53.19, 0 53.19 M57.55 53.19 C44.79 53.19, 32.02 53.19, 0 53.19 M0 53.19 C0 42.08, 0 30.97, 0 0 M0 53.19 C0 42.29, 0 31.38, 0 0" stroke="#000000" stroke-width="1" fill="none"></path></g><g stroke-linecap="round" transform="translate(1236.08 476.75) rotate(0 28.775999999999954 26.596000000000004)"><path d="M0 0 C15.34 0, 30.69 0, 57.55 0 M0 0 C19.91 0, 39.82 0, 57.55 0 M57.55 0 C57.55 11.65, 57.55 23.29, 57.55 53.19 M57.55 0 C57.55 11.54, 57.55 23.07, 57.55 53.19 M57.55 53.19 C43.09 53.19, 28.62 53.19, 0 53.19 M57.55 53.19 C39.54 53.19, 21.53 53.19, 0 53.19 M0 53.19 C0 36.72, 0 20.25, 0 0 M0 53.19 C0 40.64, 0 28.1, 0 0" stroke="#000000" stroke-width="1" fill="none"></path></g><g stroke-linecap="round" transform="translate(1294.504 477.62200000000007) rotate(0 28.775999999999954 26.596000000000004)"><path d="M0 0 C22.98 0, 45.95 0, 57.55 0 M0 0 C18.74 0, 37.49 0, 57.55 0 M57.55 0 C57.55 11.93, 57.55 23.87, 57.55 53.19 M57.55 0 C57.55 19.92, 57.55 39.83, 57.55 53.19 M57.55 53.19 C38.27 53.19, 18.99 53.19, 0 53.19 M57.55 53.19 C40.26 53.19, 22.97 53.19, 0 53.19 M0 53.19 C0 32.31, 0 11.43, 0 0 M0 53.19 C0 38.77, 0 24.35, 0 0" stroke="#000000" stroke-width="1" fill="none"></path></g><g stroke-linecap="round" transform="translate(1353.8000000000002 476.75) rotate(0 28.775999999999954 26.596000000000004)"><path d="M0 0 C17.81 0, 35.62 0, 57.55 0 M0 0 C17.21 0, 34.42 0, 57.55 0 M57.55 0 C57.55 14.71, 57.55 29.42, 57.55 53.19 M57.55 0 C57.55 13.38, 57.55 26.75, 57.55 53.19 M57.55 53.19 C35.61 53.19, 13.67 53.19, 0 53.19 M57.55 53.19 C37.29 53.19, 17.02 53.19, 0 53.19 M0 53.19 C0 36.73, 0 20.27, 0 0 M0 53.19 C0 35.39, 0 17.59, 0 0" stroke="#000000" stroke-width="1" fill="none"></path></g><g mask="url(#mask-DLzW21lk7M8ImouIWd0Ef)" stroke-linecap="round"><g transform="translate(957.612 327) rotate(0 25 71)"><path d="M0 0 C8.33 23.67, 41.67 118.33, 50 142 M0 0 C8.33 23.67, 41.67 118.33, 50 142" stroke="#000000" stroke-width="1" fill="none"></path></g><g transform="translate(957.612 327) rotate(0 25 71)"><path d="M30.96 118.82 C36.82 125.95, 42.68 133.09, 50 142 M30.96 118.82 C38.35 127.81, 45.74 136.81, 50 142" stroke="#000000" stroke-width="1" fill="none"></path></g><g transform="translate(957.612 327) rotate(0 25 71)"><path d="M50.32 112 C50.22 121.23, 50.12 130.47, 50 142 M50.32 112 C50.19 123.64, 50.07 135.29, 50 142" stroke="#000000" stroke-width="1" fill="none"></path></g></g><mask id="mask-DLzW21lk7M8ImouIWd0Ef"><rect x="0" y="0" fill="#fff" width="1107.612" height="569"></rect><rect x="881.9918828125001" y="375" fill="#000" width="201.240234375" height="46" opacity="1"></rect></mask><g transform="translate(881.9918828125001 375) rotate(0 100.6201171875 23)"><text x="100.6201171875" y="0" font-family="Helvetica, Segoe UI Emoji" font-size="20px" fill="#000000" text-anchor="middle" style="white-space: pre;" direction="ltr" dominant-baseline="text-before-edge">Si hay espacio en esa </text><text x="100.6201171875" y="23" font-family="Helvetica, Segoe UI Emoji" font-size="20px" fill="#000000" text-anchor="middle" style="white-space: pre;" direction="ltr" dominant-baseline="text-before-edge">zona</text></g><g mask="url(#mask-b-NgJAwnJ4t8dgklGnDDB)" stroke-linecap="round"><g transform="translate(782.612 330) rotate(0 -60.5 56.5)"><path d="M0 0 C-20.17 18.83, -100.83 94.17, -121 113 M0 0 C-20.17 18.83, -100.83 94.17, -121 113" stroke="#000000" stroke-width="1" fill="none"></path></g><g transform="translate(782.612 330) rotate(0 -60.5 56.5)"><path d="M-107.4 86.26 C-111.85 95.02, -116.31 103.78, -121 113 M-107.4 86.26 C-110.55 92.46, -113.71 98.66, -121 113" stroke="#000000" stroke-width="1" fill="none"></path></g><g transform="translate(782.612 330) rotate(0 -60.5 56.5)"><path d="M-93.39 101.26 C-102.44 105.1, -111.48 108.95, -121 113 M-93.39 101.26 C-99.79 103.98, -106.2 106.7, -121 113" stroke="#000000" stroke-width="1" fill="none"></path></g></g><mask id="mask-b-NgJAwnJ4t8dgklGnDDB"><rect x="0" y="0" fill="#fff" width="1003.612" height="543"></rect><rect x="632.6100468750001" y="375" fill="#000" width="179.00390625" height="23" opacity="1"></rect></mask><g transform="translate(632.610046875 375) rotate(0 89.501953125 11.5)"><text x="89.501953125" y="0" font-family="Helvetica, Segoe UI Emoji" font-size="20px" fill="#000000" text-anchor="middle" style="white-space: pre;" direction="ltr" dominant-baseline="text-before-edge">sino lo asigna a otra</text></g><g stroke-linecap="round" transform="translate(10 480.1859999999999) rotate(0 203.612 27.031999999999982)"><path d="M0 0 C124.2 0, 248.41 0, 407.22 0 M0 0 C144.32 0, 288.65 0, 407.22 0 M407.22 0 C407.22 12.81, 407.22 25.61, 407.22 54.06 M407.22 0 C407.22 19.6, 407.22 39.2, 407.22 54.06 M407.22 54.06 C313.28 54.06, 219.34 54.06, 0 54.06 M407.22 54.06 C298.6 54.06, 189.98 54.06, 0 54.06 M0 54.06 C0 36.1, 0 18.14, 0 0 M0 54.06 C0 37.84, 0 21.61, 0 0" stroke="#000000" stroke-width="1" fill="none"></path></g><g stroke-linecap="round" transform="translate(10 481.058) rotate(0 28.775999999999996 26.596000000000004)"><path d="M0 0 C19.8 0, 39.61 0, 57.55 0 M0 0 C18.38 0, 36.75 0, 57.55 0 M57.55 0 C57.55 19.13, 57.55 38.27, 57.55 53.19 M57.55 0 C57.55 11.72, 57.55 23.44, 57.55 53.19 M57.55 53.19 C43.32 53.19, 29.08 53.19, 0 53.19 M57.55 53.19 C42.3 53.19, 27.06 53.19, 0 53.19 M0 53.19 C0 39.43, 0 25.67, 0 0 M0 53.19 C0 33.46, 0 13.73, 0 0" stroke="#000000" stroke-width="1" fill="none"></path></g><g stroke-linecap="round" transform="translate(68.42399999999998 480.62200000000007) rotate(0 28.775999999999996 26.596000000000004)"><path d="M0 0 C14.78 0, 29.56 0, 57.55 0 M0 0 C11.89 0, 23.77 0, 57.55 0 M57.55 0 C57.55 13.8, 57.55 27.59, 57.55 53.19 M57.55 0 C57.55 19.18, 57.55 38.36, 57.55 53.19 M57.55 53.19 C41.23 53.19, 24.91 53.19, 0 53.19 M57.55 53.19 C37.12 53.19, 16.69 53.19, 0 53.19 M0 53.19 C0 35.12, 0 17.04, 0 0 M0 53.19 C0 36.13, 0 19.06, 0 0" stroke="#000000" stroke-width="1" fill="none"></path></g><g stroke-linecap="round" transform="translate(125.976 480.62200000000007) rotate(0 28.775999999999996 26.596000000000004)"><path d="M0 0 C12.26 0, 24.53 0, 57.55 0 M0 0 C19.47 0, 38.93 0, 57.55 0 M57.55 0 C57.55 12.45, 57.55 24.9, 57.55 53.19 M57.55 0 C57.55 11.47, 57.55 22.93, 57.55 53.19 M57.55 53.19 C35.75 53.19, 13.95 53.19, 0 53.19 M57.55 53.19 C36.87 53.19, 16.18 53.19, 0 53.19 M0 53.19 C0 35.88, 0 18.57, 0 0 M0 53.19 C0 41.14, 0 29.08, 0 0" stroke="#000000" stroke-width="1" fill="none"></path></g><g stroke-linecap="round" transform="translate(181.784 480.62200000000007) rotate(0 28.776 26.596000000000004)"><path d="M0 0 C13.8 0, 27.59 0, 57.55 0 M0 0 C21.5 0, 42.99 0, 57.55 0 M57.55 0 C57.55 19.23, 57.55 38.46, 57.55 53.19 M57.55 0 C57.55 10.64, 57.55 21.28, 57.55 53.19 M57.55 53.19 C39.95 53.19, 22.34 53.19, 0 53.19 M57.55 53.19 C44.44 53.19, 31.32 53.19, 0 53.19 M0 53.19 C0 34, 0 14.8, 0 0 M0 53.19 C0 32.84, 0 12.49, 0 0" stroke="#000000" stroke-width="1" fill="none"></path></g><g stroke-linecap="round" transform="translate(241.08000000000004 479.75) rotate(0 28.776 26.596000000000004)"><path d="M0 0 C19.81 0, 39.62 0, 57.55 0 M0 0 C16.86 0, 33.72 0, 57.55 0 M57.55 0 C57.55 20.93, 57.55 41.86, 57.55 53.19 M57.55 0 C57.55 18.66, 57.55 37.31, 57.55 53.19 M57.55 53.19 C43.52 53.19, 29.49 53.19, 0 53.19 M57.55 53.19 C42.28 53.19, 27.01 53.19, 0 53.19 M0 53.19 C0 39.29, 0 25.39, 0 0 M0 53.19 C0 38.1, 0 23, 0 0" stroke="#000000" stroke-width="1" fill="none"></path></g><g stroke-linecap="round" transform="translate(299.504 480.62200000000007) rotate(0 28.775999999999996 26.596000000000004)"><path d="M0 0 C13.84 0, 27.69 0, 57.55 0 M0 0 C21.02 0, 42.03 0, 57.55 0 M57.55 0 C57.55 15.59, 57.55 31.18, 57.55 53.19 M57.55 0 C57.55 18.68, 57.55 37.36, 57.55 53.19 M57.55 53.19 C35.88 53.19, 14.2 53.19, 0 53.19 M57.55 53.19 C39.84 53.19, 22.14 53.19, 0 53.19 M0 53.19 C0 33.21, 0 13.23, 0 0 M0 53.19 C0 35.34, 0 17.49, 0 0" stroke="#000000" stroke-width="1" fill="none"></path></g><g stroke-linecap="round" transform="translate(358.80000000000007 479.75) rotate(0 28.775999999999996 26.596000000000004)"><path d="M0 0 C22.1 0, 44.2 0, 57.55 0 M0 0 C13.17 0, 26.33 0, 57.55 0 M57.55 0 C57.55 17.14, 57.55 34.29, 57.55 53.19 M57.55 0 C57.55 21.1, 57.55 42.2, 57.55 53.19 M57.55 53.19 C44.42 53.19, 31.28 53.19, 0 53.19 M57.55 53.19 C37.01 53.19, 16.46 53.19, 0 53.19 M0 53.19 C0 35.25, 0 17.31, 0 0 M0 53.19 C0 39.08, 0 24.96, 0 0" stroke="#000000" stroke-width="1" fill="none"></path></g><g stroke-linecap="round" transform="translate(419 479.1859999999999) rotate(0 203.61200000000002 27.031999999999982)"><path d="M0 0 C126.67 0, 253.34 0, 407.22 0 M0 0 C144.57 0, 289.14 0, 407.22 0 M407.22 0 C407.22 17.36, 407.22 34.71, 407.22 54.06 M407.22 0 C407.22 17.34, 407.22 34.68, 407.22 54.06 M407.22 54.06 C291.3 54.06, 175.37 54.06, 0 54.06 M407.22 54.06 C292.15 54.06, 177.07 54.06, 0 54.06 M0 54.06 C0 38.34, 0 22.62, 0 0 M0 54.06 C0 40.42, 0 26.78, 0 0" stroke="#000000" stroke-width="1" fill="none"></path></g><g stroke-linecap="round" transform="translate(419 480.058) rotate(0 28.775999999999996 26.596000000000004)"><path d="M0 0 C16.99 0, 33.97 0, 57.55 0 M0 0 C18.47 0, 36.94 0, 57.55 0 M57.55 0 C57.55 16.91, 57.55 33.82, 57.55 53.19 M57.55 0 C57.55 20.14, 57.55 40.29, 57.55 53.19 M57.55 53.19 C36.64 53.19, 15.73 53.19, 0 53.19 M57.55 53.19 C37.85 53.19, 18.15 53.19, 0 53.19 M0 53.19 C0 39.6, 0 26, 0 0 M0 53.19 C0 38.01, 0 22.83, 0 0" stroke="#000000" stroke-width="1" fill="none"></path></g><g stroke-linecap="round" transform="translate(477.424 479.62200000000007) rotate(0 28.77600000000001 26.596000000000004)"><path d="M0 0 C18.01 0, 36.02 0, 57.55 0 M0 0 C13.06 0, 26.12 0, 57.55 0 M57.55 0 C57.55 19.46, 57.55 38.93, 57.55 53.19 M57.55 0 C57.55 11.75, 57.55 23.5, 57.55 53.19 M57.55 53.19 C38.36 53.19, 19.16 53.19, 0 53.19 M57.55 53.19 C42.62 53.19, 27.68 53.19, 0 53.19 M0 53.19 C0 38.3, 0 23.4, 0 0 M0 53.19 C0 39.99, 0 26.78, 0 0" stroke="#000000" stroke-width="1" fill="none"></path></g><g stroke-linecap="round" transform="translate(534.976 479.62200000000007) rotate(0 28.77600000000001 26.596000000000004)"><path d="M0 0 C15.98 0, 31.96 0, 57.55 0 M0 0 C16.84 0, 33.69 0, 57.55 0 M57.55 0 C57.55 13.69, 57.55 27.38, 57.55 53.19 M57.55 0 C57.55 11.65, 57.55 23.31, 57.55 53.19 M57.55 53.19 C39.27 53.19, 20.98 53.19, 0 53.19 M57.55 53.19 C41.55 53.19, 25.55 53.19, 0 53.19 M0 53.19 C0 41.62, 0 30.05, 0 0 M0 53.19 C0 38.95, 0 24.72, 0 0" stroke="#000000" stroke-width="1" fill="none"></path></g><g stroke-linecap="round" transform="translate(590.784 479.62200000000007) rotate(0 28.77600000000001 26.596000000000004)"><path d="M0 0 C11.8 0, 23.6 0, 57.55 0 M0 0 C20.18 0, 40.35 0, 57.55 0 M57.55 0 C57.55 17.17, 57.55 34.33, 57.55 53.19 M57.55 0 C57.55 18.67, 57.55 37.35, 57.55 53.19 M57.55 53.19 C37.86 53.19, 18.17 53.19, 0 53.19 M57.55 53.19 C42.85 53.19, 28.14 53.19, 0 53.19 M0 53.19 C0 37.97, 0 22.74, 0 0 M0 53.19 C0 32.85, 0 12.5, 0 0" stroke="#000000" stroke-width="1" fill="none"></path></g><g stroke-linecap="round" transform="translate(650.08 478.75) rotate(0 28.77600000000001 26.596000000000004)"><path d="M0 0 C13.28 0, 26.55 0, 57.55 0 M0 0 C18.58 0, 37.15 0, 57.55 0 M57.55 0 C57.55 10.93, 57.55 21.85, 57.55 53.19 M57.55 0 C57.55 18.31, 57.55 36.62, 57.55 53.19 M57.55 53.19 C37.11 53.19, 16.67 53.19, 0 53.19 M57.55 53.19 C38.15 53.19, 18.75 53.19, 0 53.19 M0 53.19 C0 34.82, 0 16.44, 0 0 M0 53.19 C0 33.45, 0 13.71, 0 0" stroke="#000000" stroke-width="1" fill="none"></path></g><g stroke-linecap="round" transform="translate(708.504 479.62200000000007) rotate(0 28.77600000000001 26.596000000000004)"><path d="M0 0 C14.42 0, 28.84 0, 57.55 0 M0 0 C20.98 0, 41.96 0, 57.55 0 M57.55 0 C57.55 14.78, 57.55 29.55, 57.55 53.19 M57.55 0 C57.55 14.81, 57.55 29.62, 57.55 53.19 M57.55 53.19 C43.44 53.19, 29.34 53.19, 0 53.19 M57.55 53.19 C44.9 53.19, 32.24 53.19, 0 53.19 M0 53.19 C0 39.73, 0 26.27, 0 0 M0 53.19 C0 37.14, 0 21.09, 0 0" stroke="#000000" stroke-width="1" fill="none"></path></g><g stroke-linecap="round" transform="translate(767.8000000000001 478.75) rotate(0 28.77600000000001 26.596000000000004)"><path d="M0 0 C21.93 0, 43.85 0, 57.55 0 M0 0 C18.81 0, 37.63 0, 57.55 0 M57.55 0 C57.55 20.61, 57.55 41.23, 57.55 53.19 M57.55 0 C57.55 20.95, 57.55 41.91, 57.55 53.19 M57.55 53.19 C45.53 53.19, 33.51 53.19, 0 53.19 M57.55 53.19 C42.56 53.19, 27.58 53.19, 0 53.19 M0 53.19 C0 31.99, 0 10.79, 0 0 M0 53.19 C0 32.67, 0 12.15, 0 0" stroke="#000000" stroke-width="1" fill="none"></path></g><g transform="translate(1026.612 517) rotate(0 9 -9.5)" stroke="none"><path fill="#c92a2a" d="M -2.22,-1.48 Q -2.22,-1.48 -1.66,-2.35 -1.11,-3.23 0.28,-4.57 1.69,-5.91 2.85,-6.68 4.01,-7.46 4.91,-8.38 5.81,-9.29 7.02,-10.06 8.24,-10.82 8.93,-11.70 9.62,-12.59 11.08,-13.90 12.54,-15.21 13.68,-16.88 14.81,-18.55 14.76,-19.05 14.71,-19.54 14.88,-20.05 15.05,-20.56 15.38,-20.99 15.71,-21.42 16.15,-21.72 16.60,-22.02 17.12,-22.17 17.64,-22.31 18.18,-22.28 18.72,-22.25 19.22,-22.05 19.72,-21.85 20.13,-21.50 20.54,-21.15 20.82,-20.69 21.10,-20.22 21.21,-19.70 21.32,-19.17 21.27,-18.63 21.21,-18.10 20.98,-17.61 20.75,-17.12 20.38,-16.73 20.01,-16.34 19.53,-16.08 19.05,-15.83 18.52,-15.75 17.99,-15.66 17.46,-15.75 16.92,-15.84 16.45,-16.09 15.97,-16.35 15.60,-16.74 15.23,-17.13 15.01,-17.62 14.78,-18.11 14.72,-18.65 14.67,-19.18 14.78,-19.71 14.90,-20.24 15.18,-20.70 15.46,-21.16 15.87,-21.51 16.28,-21.86 16.78,-22.05 17.29,-22.25 17.82,-22.28 18.36,-22.31 18.88,-22.16 19.40,-22.02 19.85,-21.71 20.29,-21.41 20.62,-20.98 20.94,-20.55 21.12,-20.04 21.29,-19.53 21.29,-18.99 21.28,-18.45 21.28,-18.45 21.28,-18.45 19.89,-16.12 18.50,-13.79 18.01,-12.83 17.51,-11.87 16.17,-10.48 14.83,-9.09 13.36,-7.45 11.90,-5.81 10.12,-4.91 8.34,-4.01 7.00,-3.28 5.65,-2.55 4.53,-1.38 3.41,-0.21 2.81,0.63 2.22,1.48 2.01,1.72 1.80,1.96 1.54,2.15 1.27,2.34 0.97,2.46 0.68,2.58 0.36,2.62 0.04,2.66 -0.27,2.63 -0.59,2.60 -0.89,2.49 -1.20,2.38 -1.47,2.20 -1.73,2.02 -1.95,1.78 -2.17,1.55 -2.32,1.26 -2.48,0.98 -2.56,0.67 -2.64,0.36 -2.65,0.04 -2.65,-0.27 -2.58,-0.59 -2.51,-0.90 -2.36,-1.19 -2.22,-1.48 -2.22,-1.48 L -2.22,-1.48 Z"></path></g><g transform="translate(1023.612 496) rotate(0 13.5 12.5)" stroke="none"><path fill="#c92a2a" d="M 2.38,-1.19 Q 2.38,-1.19 2.95,-0.04 3.53,1.10 4.40,2.95 5.26,4.80 6.35,5.53 7.44,6.26 8.10,7.28 8.76,8.31 10.45,9.08 12.14,9.86 13.32,10.89 14.50,11.93 15.85,12.84 17.20,13.76 18.20,14.24 19.20,14.73 20.13,16.00 21.05,17.27 22.06,17.74 23.08,18.21 24.34,19.00 25.60,19.79 27.75,21.44 29.90,23.10 30.12,23.61 30.35,24.12 30.40,24.68 30.45,25.24 30.32,25.79 30.20,26.33 29.90,26.81 29.60,27.28 29.17,27.64 28.73,28.00 28.21,28.19 27.68,28.39 27.12,28.41 26.56,28.44 26.03,28.28 25.49,28.12 25.03,27.80 24.57,27.47 24.24,27.02 23.90,26.57 23.73,26.03 23.56,25.50 23.57,24.94 23.58,24.38 23.77,23.85 23.96,23.32 24.31,22.88 24.65,22.44 25.12,22.13 25.59,21.82 26.13,21.68 26.68,21.54 27.24,21.58 27.80,21.62 28.31,21.84 28.83,22.05 29.25,22.42 29.67,22.79 29.96,23.28 30.24,23.76 30.35,24.31 30.46,24.86 30.39,25.42 30.32,25.98 30.08,26.48 29.83,26.99 29.44,27.39 29.05,27.79 28.55,28.04 28.05,28.30 27.49,28.38 26.94,28.46 26.39,28.36 25.83,28.26 25.34,27.99 24.85,27.72 24.47,27.31 24.09,26.89 24.09,26.89 24.09,26.89 22.53,25.90 20.96,24.90 19.83,23.81 18.70,22.72 16.95,21.32 15.19,19.92 14.08,19.32 12.97,18.73 11.49,17.69 10.01,16.66 9.13,15.71 8.24,14.76 7.12,14.12 5.99,13.49 5.06,12.85 4.12,12.21 3.63,11.26 3.14,10.31 2.27,9.38 1.41,8.44 0.67,6.89 -0.06,5.34 -0.64,4.41 -1.23,3.49 -1.80,2.34 -2.38,1.19 -2.48,0.88 -2.59,0.58 -2.62,0.26 -2.66,-0.05 -2.61,-0.37 -2.57,-0.68 -2.45,-0.98 -2.33,-1.28 -2.14,-1.54 -1.95,-1.80 -1.71,-2.01 -1.46,-2.22 -1.18,-2.36 -0.89,-2.50 -0.58,-2.57 -0.26,-2.64 0.05,-2.64 0.37,-2.63 0.68,-2.55 0.99,-2.46 1.27,-2.31 1.55,-2.16 1.79,-1.94 2.02,-1.72 2.20,-1.45 2.38,-1.19 2.38,-1.19 L 2.38,-1.19 Z"></path></g><g transform="translate(1079.612 516) rotate(0 9.5 -8.5)" stroke="none"><path fill="#c92a2a" d="M -1.57,-2.10 Q -1.57,-2.10 -0.42,-2.94 0.72,-3.78 1.72,-4.79 2.73,-5.80 3.23,-6.85 3.73,-7.90 4.41,-9.55 5.09,-11.21 7.15,-12.54 9.21,-13.87 10.14,-14.81 11.08,-15.75 12.04,-16.25 13.00,-16.76 14.55,-17.75 16.11,-18.74 16.47,-19.15 16.82,-19.57 17.29,-19.85 17.76,-20.13 18.29,-20.25 18.82,-20.36 19.36,-20.30 19.91,-20.24 20.40,-20.01 20.89,-19.78 21.29,-19.40 21.68,-19.03 21.94,-18.55 22.19,-18.06 22.28,-17.52 22.37,-16.99 22.28,-16.45 22.19,-15.91 21.93,-15.43 21.67,-14.95 21.28,-14.57 20.88,-14.20 20.38,-13.97 19.89,-13.74 19.35,-13.69 18.80,-13.63 18.27,-13.75 17.74,-13.87 17.27,-14.15 16.81,-14.43 16.45,-14.85 16.10,-15.27 15.90,-15.77 15.70,-16.28 15.67,-16.82 15.65,-17.37 15.79,-17.89 15.94,-18.42 16.25,-18.87 16.55,-19.32 16.99,-19.65 17.42,-19.98 17.94,-20.15 18.46,-20.32 19.00,-20.32 19.55,-20.32 20.07,-20.14 20.58,-19.97 21.02,-19.64 21.45,-19.31 21.75,-18.85 22.06,-18.40 22.20,-17.88 22.35,-17.35 22.32,-16.81 22.28,-16.26 22.08,-15.76 21.88,-15.25 21.88,-15.25 21.88,-15.25 19.81,-13.59 17.73,-11.94 16.57,-11.39 15.40,-10.84 14.15,-9.78 12.89,-8.72 11.30,-8.03 9.70,-7.34 9.13,-6.35 8.57,-5.37 7.88,-4.25 7.20,-3.13 6.27,-2.24 5.35,-1.36 4.61,-0.51 3.87,0.33 2.72,1.21 1.57,2.10 1.30,2.25 1.02,2.41 0.72,2.50 0.41,2.59 0.10,2.60 -0.21,2.61 -0.52,2.55 -0.83,2.48 -1.11,2.35 -1.40,2.21 -1.65,2.01 -1.89,1.81 -2.08,1.56 -2.27,1.31 -2.39,1.01 -2.52,0.72 -2.57,0.41 -2.62,0.10 -2.59,-0.21 -2.57,-0.52 -2.47,-0.82 -2.37,-1.12 -2.20,-1.39 -2.03,-1.66 -1.80,-1.88 -1.57,-2.10 -1.57,-2.10 L -1.57,-2.10 Z"></path></g><g transform="translate(1080.612 496) rotate(0 11.5 10.5)" stroke="none"><path fill="#c92a2a" d="M 2.38,-1.19 Q 2.38,-1.19 2.95,-0.04 3.53,1.10 4.41,2.60 5.29,4.10 6.37,5.15 7.46,6.20 8.44,7.14 9.43,8.09 10.73,8.96 12.03,9.83 13.24,10.71 14.45,11.59 15.85,12.72 17.25,13.85 18.21,14.34 19.17,14.83 20.53,16.06 21.89,17.30 23.02,17.58 24.15,17.86 24.62,18.13 25.09,18.39 25.45,18.80 25.81,19.20 26.03,19.70 26.24,20.19 26.28,20.73 26.33,21.27 26.19,21.80 26.06,22.32 25.77,22.78 25.48,23.23 25.06,23.57 24.64,23.91 24.13,24.09 23.62,24.28 23.08,24.29 22.54,24.31 22.02,24.15 21.51,23.99 21.07,23.67 20.63,23.35 20.31,22.91 20.00,22.47 19.84,21.96 19.68,21.44 19.70,20.90 19.71,20.36 19.90,19.85 20.09,19.35 20.43,18.92 20.77,18.50 21.22,18.21 21.68,17.92 22.20,17.79 22.73,17.66 23.27,17.71 23.81,17.75 24.30,17.97 24.80,18.18 25.20,18.54 25.60,18.91 25.87,19.38 26.13,19.85 26.23,20.38 26.34,20.91 26.26,21.45 26.19,21.98 25.95,22.47 25.71,22.95 25.32,23.33 24.94,23.71 24.46,23.95 23.97,24.19 23.43,24.26 22.90,24.34 22.37,24.23 21.84,24.13 21.84,24.13 21.84,24.13 19.77,22.80 17.71,21.47 16.35,20.56 14.99,19.65 14.04,19.15 13.10,18.66 12.12,17.79 11.15,16.93 10.11,16.26 9.08,15.59 8.13,14.72 7.18,13.85 6.13,13.14 5.09,12.42 4.10,11.35 3.12,10.29 2.09,9.06 1.07,7.83 0.51,6.60 -0.05,5.37 -0.64,4.43 -1.23,3.49 -1.80,2.34 -2.38,1.19 -2.49,0.88 -2.59,0.58 -2.63,0.26 -2.66,-0.05 -2.61,-0.37 -2.57,-0.68 -2.45,-0.98 -2.33,-1.28 -2.14,-1.54 -1.95,-1.80 -1.71,-2.01 -1.47,-2.22 -1.18,-2.36 -0.89,-2.51 -0.58,-2.58 -0.26,-2.65 0.05,-2.64 0.37,-2.63 0.68,-2.55 0.99,-2.47 1.27,-2.31 1.55,-2.16 1.79,-1.94 2.02,-1.72 2.20,-1.45 2.38,-1.19 2.38,-1.19 L 2.38,-1.19 Z"></path></g><g transform="translate(1130.612 517) rotate(0 15.5 -7.5)" stroke="none"><path fill="#c92a2a" d="M 0,-2.67 Q 0,-2.67 1.12,-2.68 2.24,-2.69 3.38,-3.15 4.53,-3.60 5.98,-4.15 7.43,-4.69 8.39,-5.21 9.34,-5.74 10.32,-6.27 11.30,-6.80 12.29,-7.33 13.28,-7.86 14.27,-8.53 15.26,-9.21 16.33,-9.71 17.39,-10.22 18.39,-10.73 19.38,-11.24 21.55,-12.50 23.72,-13.75 24.74,-14.20 25.76,-14.65 27.13,-15.99 28.50,-17.33 28.94,-17.67 29.38,-18.00 29.90,-18.18 30.42,-18.36 30.98,-18.36 31.53,-18.37 32.05,-18.19 32.58,-18.02 33.02,-17.69 33.46,-17.36 33.77,-16.90 34.09,-16.45 34.24,-15.92 34.39,-15.38 34.36,-14.83 34.33,-14.28 34.13,-13.77 33.93,-13.25 33.58,-12.83 33.22,-12.41 32.75,-12.12 32.28,-11.83 31.74,-11.71 31.20,-11.59 30.65,-11.64 30.10,-11.70 29.60,-11.93 29.09,-12.16 28.69,-12.54 28.29,-12.91 28.03,-13.40 27.77,-13.89 27.67,-14.43 27.58,-14.98 27.67,-15.52 27.75,-16.07 28.01,-16.56 28.26,-17.05 28.66,-17.43 29.06,-17.81 29.56,-18.05 30.06,-18.28 30.61,-18.34 31.16,-18.41 31.70,-18.29 32.24,-18.17 32.72,-17.89 33.19,-17.61 33.55,-17.19 33.91,-16.77 34.12,-16.26 34.33,-15.75 34.36,-15.20 34.39,-14.65 34.25,-14.11 34.10,-13.58 33.79,-13.12 33.49,-12.66 33.49,-12.66 33.49,-12.66 31.70,-11.43 29.90,-10.20 28.88,-9.38 27.87,-8.57 26.76,-8.18 25.65,-7.80 24.37,-6.75 23.10,-5.70 22.03,-5.19 20.97,-4.69 19.05,-3.74 17.13,-2.80 16.09,-2.31 15.05,-1.83 14.03,-1.35 13.01,-0.88 11.97,-0.41 10.93,0.05 9.82,0.53 8.71,1.01 6.76,1.52 4.81,2.02 3.58,2.36 2.35,2.69 1.17,2.68 0,2.67 -0.31,2.63 -0.63,2.59 -0.94,2.47 -1.24,2.36 -1.50,2.18 -1.77,1.99 -1.98,1.75 -2.19,1.51 -2.34,1.23 -2.49,0.94 -2.57,0.63 -2.65,0.32 -2.65,-0.00 -2.65,-0.32 -2.57,-0.63 -2.49,-0.94 -2.34,-1.23 -2.19,-1.51 -1.98,-1.75 -1.77,-1.99 -1.50,-2.18 -1.24,-2.36 -0.94,-2.47 -0.63,-2.59 -0.31,-2.63 0.00,-2.67 0.00,-2.67 L 0,-2.67 Z"></path></g><g transform="translate(1144.612 504) rotate(0 8 8.5)" stroke="none"><path fill="#c92a2a" d="M 2.57,-0.64 Q 2.57,-0.64 2.87,0.50 3.17,1.65 3.64,3.14 4.11,4.64 5.14,6.22 6.16,7.80 7.33,8.99 8.49,10.17 9.13,11.15 9.77,12.14 11.10,12.87 12.42,13.60 14.26,13.70 16.09,13.80 16.60,13.90 17.11,13.99 17.56,14.25 18.01,14.51 18.35,14.89 18.70,15.28 18.90,15.76 19.10,16.23 19.14,16.75 19.18,17.26 19.06,17.77 18.93,18.27 18.65,18.70 18.37,19.14 17.97,19.46 17.56,19.79 17.07,19.96 16.59,20.14 16.07,20.15 15.55,20.16 15.06,20.01 14.56,19.86 14.14,19.55 13.73,19.25 13.42,18.83 13.12,18.41 12.97,17.91 12.82,17.42 12.84,16.90 12.85,16.38 13.03,15.90 13.21,15.41 13.54,15.01 13.87,14.61 14.30,14.33 14.74,14.05 15.24,13.93 15.75,13.81 16.26,13.85 16.78,13.89 17.25,14.10 17.73,14.30 18.11,14.65 18.50,15.00 18.75,15.45 19.00,15.90 19.10,16.41 19.19,16.92 19.12,17.43 19.05,17.94 18.82,18.41 18.59,18.87 18.22,19.24 17.85,19.60 17.39,19.83 16.92,20.06 16.41,20.13 15.90,20.19 15.90,20.19 15.90,20.19 12.57,19.59 9.24,18.99 7.88,18.02 6.53,17.05 5.30,15.67 4.07,14.30 3.03,13.07 2.00,11.84 1.34,10.54 0.68,9.25 -0.21,7.96 -1.11,6.67 -1.57,4.81 -2.02,2.94 -2.30,1.79 -2.57,0.64 -2.61,0.32 -2.65,0.00 -2.61,-0.30 -2.58,-0.62 -2.46,-0.92 -2.35,-1.22 -2.17,-1.49 -1.99,-1.75 -1.75,-1.96 -1.51,-2.18 -1.23,-2.32 -0.94,-2.47 -0.63,-2.55 -0.32,-2.63 -0.00,-2.63 0.31,-2.63 0.62,-2.56 0.93,-2.48 1.21,-2.33 1.50,-2.19 1.74,-1.97 1.98,-1.76 2.16,-1.50 2.34,-1.24 2.46,-0.94 2.57,-0.64 2.57,-0.64 L 2.57,-0.64 Z"></path></g><g transform="translate(1193.612 516) rotate(0 6.5 -8)" stroke="none"><path fill="#c92a2a" d="M -2.53,-0.84 Q -2.53,-0.84 -2.27,-1.72 -2.01,-2.60 -1.50,-3.56 -0.98,-4.52 0.22,-6.09 1.43,-7.66 2.11,-9.06 2.78,-10.46 3.66,-11.25 4.53,-12.04 5.31,-12.82 6.09,-13.59 7.04,-14.57 8.00,-15.55 9.35,-16.92 10.70,-18.29 11.13,-18.60 11.56,-18.90 12.06,-19.05 12.56,-19.21 13.08,-19.19 13.61,-19.18 14.10,-19.00 14.59,-18.82 15.00,-18.49 15.41,-18.16 15.69,-17.72 15.97,-17.27 16.10,-16.76 16.23,-16.26 16.18,-15.73 16.14,-15.21 15.93,-14.73 15.73,-14.25 15.37,-13.86 15.02,-13.47 14.57,-13.21 14.11,-12.95 13.59,-12.85 13.08,-12.75 12.56,-12.83 12.04,-12.90 11.57,-13.13 11.10,-13.36 10.73,-13.73 10.36,-14.11 10.13,-14.58 9.89,-15.05 9.82,-15.57 9.75,-16.09 9.85,-16.60 9.95,-17.12 10.21,-17.57 10.47,-18.03 10.86,-18.38 11.25,-18.73 11.73,-18.94 12.22,-19.14 12.74,-19.18 13.26,-19.23 13.77,-19.10 14.28,-18.97 14.72,-18.69 15.16,-18.41 15.49,-18.00 15.82,-17.59 16.00,-17.09 16.18,-16.60 16.19,-16.08 16.21,-15.55 16.05,-15.05 15.90,-14.55 15.59,-14.13 15.28,-13.70 15.29,-13.70 15.29,-13.70 13.90,-12.34 12.52,-10.98 11.47,-10.00 10.43,-9.01 9.16,-8.12 7.88,-7.23 7.13,-6.15 6.37,-5.07 5.56,-4.18 4.75,-3.29 3.96,-2.06 3.16,-0.84 2.85,0.00 2.53,0.84 2.39,1.13 2.26,1.42 2.05,1.67 1.85,1.92 1.59,2.12 1.33,2.31 1.04,2.44 0.74,2.56 0.42,2.62 0.10,2.67 -0.21,2.64 -0.53,2.62 -0.83,2.51 -1.14,2.41 -1.41,2.24 -1.69,2.07 -1.91,1.84 -2.13,1.60 -2.29,1.32 -2.46,1.04 -2.55,0.73 -2.64,0.43 -2.65,0.10 -2.66,-0.21 -2.60,-0.53 -2.53,-0.84 -2.53,-0.84 L -2.53,-0.84 Z"></path></g><g transform="translate(1194.612 493) rotate(0 15 13)" stroke="none"><path fill="#c92a2a" d="M 2.52,-0.84 Q 2.52,-0.84 2.84,0.00 3.16,0.84 4.30,2.52 5.45,4.21 6.07,5.30 6.68,6.39 7.11,7.66 7.54,8.94 8.63,10.01 9.71,11.07 10.69,12.03 11.68,12.98 12.65,13.94 13.62,14.91 14.37,15.70 15.12,16.49 16.48,17.47 17.84,18.45 19.01,18.96 20.17,19.46 22.08,20.44 23.98,21.43 25.22,22.00 26.45,22.57 28.27,22.67 30.09,22.77 30.61,22.87 31.12,22.97 31.57,23.22 32.03,23.48 32.38,23.87 32.72,24.26 32.93,24.74 33.13,25.23 33.17,25.75 33.21,26.27 33.09,26.78 32.96,27.28 32.68,27.72 32.39,28.16 31.98,28.49 31.58,28.81 31.08,28.99 30.59,29.17 30.07,29.18 29.55,29.20 29.05,29.04 28.55,28.88 28.13,28.58 27.70,28.27 27.40,27.85 27.09,27.42 26.94,26.92 26.79,26.42 26.81,25.90 26.82,25.37 27.01,24.88 27.19,24.39 27.52,23.99 27.85,23.58 28.29,23.30 28.73,23.02 29.24,22.90 29.74,22.77 30.27,22.82 30.79,22.86 31.27,23.07 31.75,23.28 32.13,23.63 32.52,23.98 32.78,24.44 33.03,24.89 33.13,25.41 33.23,25.92 33.15,26.44 33.08,26.95 32.85,27.42 32.61,27.89 32.24,28.26 31.87,28.63 31.40,28.86 30.93,29.09 30.41,29.16 29.90,29.22 29.90,29.22 29.90,29.22 27.43,29.01 24.96,28.80 23.04,27.96 21.13,27.13 20.15,26.66 19.18,26.19 17.41,25.34 15.65,24.49 14.08,23.44 12.50,22.39 11.53,21.78 10.55,21.17 9.72,20.39 8.90,19.60 7.90,18.57 6.91,17.55 5.88,16.40 4.86,15.26 4.23,14.22 3.61,13.18 2.64,11.70 1.67,10.21 1.00,8.78 0.33,7.35 -0.32,5.93 -0.97,4.52 -1.49,3.56 -2.01,2.60 -2.27,1.72 -2.52,0.84 -2.59,0.52 -2.65,0.21 -2.64,-0.10 -2.63,-0.42 -2.54,-0.73 -2.45,-1.04 -2.29,-1.32 -2.13,-1.60 -1.90,-1.83 -1.68,-2.06 -1.41,-2.23 -1.14,-2.40 -0.83,-2.51 -0.53,-2.61 -0.21,-2.63 0.10,-2.66 0.42,-2.61 0.74,-2.56 1.03,-2.43 1.33,-2.30 1.59,-2.11 1.84,-1.92 2.05,-1.67 2.25,-1.42 2.39,-1.13 2.52,-0.84 2.52,-0.84 L 2.52,-0.84 Z"></path></g><g transform="translate(1252.612 516) rotate(0 12.5 -10)" stroke="none"><path fill="#c92a2a" d="M -1.88,-1.88 Q -1.88,-1.88 -1.02,-2.76 -0.15,-3.64 0.76,-4.25 1.67,-4.86 2.47,-5.65 3.28,-6.44 4.21,-7.42 5.15,-8.40 6.98,-9.46 8.82,-10.52 9.41,-11.44 10.00,-12.36 10.94,-12.93 11.88,-13.49 12.88,-14.85 13.87,-16.22 14.83,-16.86 15.78,-17.50 16.90,-18.52 18.01,-19.55 18.99,-20.13 19.96,-20.72 21.85,-21.91 23.75,-23.11 24.28,-23.23 24.81,-23.34 25.35,-23.29 25.89,-23.23 26.38,-23.00 26.87,-22.77 27.27,-22.40 27.66,-22.03 27.92,-21.55 28.17,-21.07 28.26,-20.54 28.35,-20.00 28.26,-19.47 28.18,-18.93 27.92,-18.45 27.67,-17.97 27.28,-17.60 26.88,-17.22 26.39,-16.99 25.90,-16.76 25.36,-16.71 24.82,-16.65 24.29,-16.76 23.76,-16.88 23.29,-17.16 22.83,-17.44 22.48,-17.85 22.12,-18.26 21.92,-18.76 21.72,-19.27 21.69,-19.81 21.66,-20.35 21.80,-20.88 21.95,-21.40 22.25,-21.85 22.56,-22.30 22.99,-22.63 23.42,-22.96 23.93,-23.13 24.45,-23.30 24.99,-23.30 25.53,-23.31 26.05,-23.13 26.56,-22.96 26.99,-22.63 27.43,-22.31 27.73,-21.86 28.04,-21.41 28.18,-20.89 28.33,-20.36 28.30,-19.82 28.27,-19.28 28.07,-18.77 27.87,-18.27 27.52,-17.86 27.17,-17.44 26.71,-17.16 26.24,-16.88 26.24,-16.88 26.24,-16.88 25.24,-16.33 24.25,-15.77 23.19,-15.08 22.13,-14.39 21.27,-13.51 20.41,-12.62 19.15,-11.86 17.89,-11.10 17.05,-10.02 16.21,-8.93 14.77,-7.91 13.33,-6.90 11.77,-5.95 10.22,-5.00 9.25,-4.07 8.28,-3.14 7.09,-2.13 5.91,-1.11 4.75,-0.46 3.60,0.19 2.74,1.04 1.88,1.88 1.63,2.08 1.38,2.28 1.08,2.41 0.79,2.55 0.47,2.60 0.16,2.66 -0.16,2.64 -0.48,2.62 -0.78,2.53 -1.09,2.43 -1.37,2.26 -1.64,2.10 -1.87,1.87 -2.10,1.64 -2.26,1.37 -2.43,1.09 -2.53,0.78 -2.62,0.48 -2.64,0.15 -2.66,-0.16 -2.60,-0.47 -2.54,-0.79 -2.41,-1.08 -2.28,-1.38 -2.08,-1.63 -1.88,-1.88 -1.88,-1.88 L -1.88,-1.88 Z"></path></g><g transform="translate(1254.612 499) rotate(0 14 10)" stroke="none"><path fill="#c92a2a" d="M 2.19,-1.46 Q 2.19,-1.46 2.79,-0.61 3.38,0.23 4.36,1.24 5.33,2.26 6.21,3.50 7.08,4.74 8.26,5.76 9.43,6.78 10.80,7.92 12.17,9.05 13.53,9.96 14.90,10.87 16.26,11.97 17.62,13.08 19.29,13.95 20.96,14.81 22.05,15.18 23.14,15.55 24.17,16.09 25.20,16.64 26.68,16.68 28.17,16.72 28.69,16.84 29.21,16.95 29.66,17.22 30.11,17.50 30.46,17.90 30.80,18.30 31.00,18.80 31.20,19.29 31.22,19.82 31.25,20.35 31.11,20.86 30.97,21.37 30.67,21.81 30.38,22.25 29.95,22.57 29.53,22.89 29.03,23.06 28.53,23.23 28.00,23.23 27.47,23.23 26.96,23.06 26.46,22.89 26.04,22.57 25.62,22.25 25.32,21.81 25.02,21.37 24.88,20.86 24.74,20.35 24.77,19.82 24.79,19.29 24.99,18.80 25.19,18.31 25.53,17.90 25.87,17.50 26.33,17.22 26.78,16.95 27.30,16.84 27.82,16.72 28.34,16.78 28.87,16.84 29.35,17.06 29.83,17.28 30.22,17.65 30.60,18.01 30.85,18.48 31.10,18.95 31.19,19.47 31.27,19.99 31.19,20.52 31.10,21.04 30.85,21.51 30.61,21.98 30.22,22.34 29.84,22.71 29.35,22.93 28.87,23.15 28.35,23.21 27.82,23.27 27.82,23.27 27.82,23.27 25.49,23.03 23.16,22.80 21.83,22.09 20.50,21.38 18.95,20.70 17.40,20.02 16.22,19.35 15.04,18.68 13.96,17.54 12.89,16.40 11.55,15.59 10.21,14.77 9.19,14.09 8.16,13.40 7.12,12.41 6.08,11.41 4.99,10.55 3.91,9.69 3.23,8.84 2.56,7.99 1.85,7.03 1.14,6.06 0.02,4.64 -1.08,3.21 -1.64,2.34 -2.19,1.46 -2.33,1.17 -2.47,0.89 -2.54,0.58 -2.62,0.27 -2.61,-0.04 -2.60,-0.35 -2.52,-0.66 -2.44,-0.97 -2.29,-1.25 -2.14,-1.53 -1.92,-1.76 -1.71,-1.99 -1.45,-2.17 -1.18,-2.35 -0.88,-2.46 -0.58,-2.56 -0.27,-2.60 0.04,-2.63 0.35,-2.59 0.67,-2.54 0.96,-2.42 1.26,-2.31 1.52,-2.12 1.77,-1.94 1.98,-1.70 2.19,-1.46 2.19,-1.46 L 2.19,-1.46 Z"></path></g><g transform="translate(1315.612 516) rotate(0 10 -6)" stroke="none"><path fill="#c92a2a" d="M -1.19,-2.38 Q -1.19,-2.38 -0.04,-2.96 1.10,-3.53 2.60,-4.41 4.10,-5.29 5.97,-6.84 7.84,-8.39 8.85,-8.89 9.86,-9.40 10.92,-10.04 11.99,-10.69 12.75,-11.47 13.52,-12.24 14.32,-12.99 15.12,-13.75 17.34,-14.52 19.57,-15.30 20.11,-15.28 20.65,-15.27 21.15,-15.08 21.66,-14.89 22.07,-14.55 22.49,-14.20 22.78,-13.75 23.07,-13.29 23.19,-12.77 23.32,-12.24 23.27,-11.71 23.22,-11.17 23.01,-10.67 22.79,-10.18 22.43,-9.78 22.07,-9.38 21.59,-9.12 21.12,-8.86 20.59,-8.76 20.06,-8.66 19.53,-8.74 18.99,-8.81 18.51,-9.06 18.03,-9.30 17.65,-9.68 17.27,-10.07 17.04,-10.55 16.80,-11.04 16.73,-11.57 16.66,-12.11 16.77,-12.64 16.87,-13.17 17.14,-13.63 17.41,-14.10 17.81,-14.46 18.22,-14.82 18.72,-15.03 19.21,-15.24 19.75,-15.28 20.29,-15.32 20.81,-15.18 21.33,-15.05 21.79,-14.75 22.24,-14.46 22.57,-14.04 22.91,-13.62 23.09,-13.11 23.27,-12.60 23.28,-12.06 23.30,-11.52 23.13,-11.01 22.97,-10.49 22.65,-10.06 22.34,-9.62 21.90,-9.31 21.46,-9.00 20.94,-8.84 20.42,-8.69 20.42,-8.69 20.42,-8.69 19.31,-8.61 18.20,-8.54 17.33,-7.71 16.46,-6.87 14.51,-5.48 12.56,-4.09 11.24,-3.77 9.91,-3.46 8.85,-2.26 7.79,-1.05 6.58,-0.50 5.38,0.05 4.43,0.64 3.49,1.23 2.34,1.81 1.19,2.38 0.89,2.49 0.58,2.60 0.26,2.63 -0.05,2.66 -0.37,2.62 -0.68,2.57 -0.98,2.45 -1.28,2.33 -1.54,2.14 -1.80,1.96 -2.01,1.71 -2.22,1.47 -2.36,1.18 -2.51,0.89 -2.58,0.58 -2.65,0.26 -2.64,-0.05 -2.64,-0.37 -2.55,-0.68 -2.47,-0.99 -2.32,-1.27 -2.16,-1.55 -1.94,-1.79 -1.72,-2.03 -1.46,-2.20 -1.19,-2.38 -1.19,-2.38 L -1.19,-2.38 Z"></path></g><g transform="translate(1308.612 505) rotate(0 15 6.5)" stroke="none"><path fill="#c92a2a" d="M 1.18,-2.36 Q 1.18,-2.36 2.33,-1.79 3.48,-1.22 4.42,-0.62 5.37,-0.03 6.56,0.80 7.75,1.64 9.39,1.88 11.04,2.12 12.53,2.97 14.03,3.83 15.02,4.29 16.02,4.75 17.38,5.43 18.75,6.10 20.19,6.35 21.62,6.61 22.78,7.10 23.93,7.58 25.38,7.95 26.83,8.32 29.05,9.09 31.27,9.85 31.74,10.14 32.21,10.42 32.56,10.84 32.91,11.26 33.11,11.77 33.31,12.29 33.34,12.83 33.37,13.38 33.22,13.91 33.07,14.44 32.76,14.89 32.44,15.34 32.01,15.67 31.57,16.00 31.05,16.18 30.52,16.35 29.97,16.34 29.43,16.34 28.91,16.16 28.39,15.98 27.95,15.65 27.52,15.31 27.21,14.86 26.91,14.40 26.76,13.87 26.62,13.34 26.65,12.79 26.68,12.25 26.89,11.74 27.10,11.23 27.46,10.81 27.81,10.39 28.29,10.11 28.76,9.83 29.30,9.72 29.83,9.60 30.38,9.67 30.92,9.73 31.42,9.96 31.92,10.20 32.31,10.58 32.71,10.96 32.96,11.44 33.22,11.93 33.30,12.47 33.39,13.02 33.30,13.56 33.20,14.10 32.94,14.58 32.68,15.07 32.28,15.44 31.88,15.82 31.38,16.04 30.88,16.27 30.34,16.33 29.79,16.38 29.25,16.26 28.72,16.14 28.72,16.14 28.72,16.14 27.50,15.61 26.28,15.09 24.78,14.63 23.27,14.17 22.08,13.74 20.89,13.31 19.59,13.15 18.30,13.00 16.60,11.91 14.90,10.82 13.62,10.36 12.35,9.90 10.74,9.25 9.13,8.59 8.00,7.71 6.88,6.83 5.37,5.96 3.87,5.09 2.49,4.30 1.11,3.52 -0.03,2.94 -1.18,2.36 -1.44,2.18 -1.71,2.01 -1.93,1.77 -2.14,1.54 -2.30,1.26 -2.45,0.98 -2.53,0.67 -2.61,0.37 -2.62,0.05 -2.63,-0.26 -2.56,-0.57 -2.49,-0.88 -2.34,-1.17 -2.20,-1.45 -1.99,-1.70 -1.79,-1.94 -1.53,-2.13 -1.27,-2.31 -0.97,-2.43 -0.68,-2.55 -0.36,-2.59 -0.05,-2.64 0.26,-2.61 0.58,-2.57 0.88,-2.47 1.18,-2.36 1.18,-2.36 L 1.18,-2.36 Z"></path></g><g transform="translate(1372.612 518) rotate(0 6.5 -8.5)" stroke="none"><path fill="#c92a2a" d="M -2.57,-0.64 Q -2.57,-0.64 -2.30,-1.80 -2.02,-2.96 -1.53,-4.05 -1.03,-5.14 -0.51,-6.16 0.00,-7.18 0.61,-8.36 1.22,-9.55 1.78,-10.57 2.34,-11.59 3.52,-12.92 4.70,-14.24 5.45,-15.02 6.21,-15.80 7.23,-16.37 8.26,-16.93 9.08,-17.67 9.90,-18.40 10.20,-18.86 10.51,-19.31 10.94,-19.65 11.38,-19.99 11.90,-20.17 12.42,-20.35 12.97,-20.35 13.52,-20.36 14.04,-20.19 14.56,-20.01 15.00,-19.68 15.45,-19.36 15.76,-18.90 16.07,-18.45 16.22,-17.92 16.37,-17.39 16.35,-16.84 16.32,-16.29 16.12,-15.78 15.92,-15.26 15.57,-14.84 15.22,-14.42 14.75,-14.13 14.28,-13.84 13.74,-13.72 13.21,-13.60 12.66,-13.65 12.11,-13.71 11.61,-13.94 11.11,-14.16 10.71,-14.54 10.30,-14.91 10.04,-15.40 9.78,-15.88 9.69,-16.42 9.59,-16.97 9.68,-17.51 9.76,-18.06 10.02,-18.54 10.27,-19.03 10.67,-19.41 11.06,-19.80 11.56,-20.03 12.06,-20.27 12.61,-20.33 13.15,-20.39 13.69,-20.28 14.23,-20.17 14.70,-19.89 15.18,-19.61 15.54,-19.19 15.90,-18.77 16.10,-18.26 16.31,-17.75 16.35,-17.20 16.38,-16.65 16.24,-16.12 16.09,-15.59 16.09,-15.59 16.09,-15.59 14.22,-13.69 12.35,-11.78 10.82,-11.25 9.30,-10.73 8.47,-9.52 7.65,-8.31 6.76,-6.94 5.87,-5.56 5.23,-4.49 4.59,-3.43 3.88,-2.53 3.17,-1.63 2.87,-0.49 2.57,0.64 2.46,0.94 2.34,1.24 2.16,1.50 1.98,1.76 1.74,1.98 1.50,2.19 1.21,2.33 0.93,2.48 0.62,2.56 0.31,2.63 -0.00,2.63 -0.32,2.63 -0.63,2.55 -0.95,2.48 -1.23,2.33 -1.51,2.18 -1.75,1.96 -1.99,1.75 -2.17,1.49 -2.35,1.22 -2.46,0.92 -2.58,0.62 -2.61,0.30 -2.65,-0.00 -2.61,-0.32 -2.57,-0.64 -2.57,-0.64 L -2.57,-0.64 Z"></path></g><g transform="translate(1359.612 505) rotate(0 12.5 5.5)" stroke="none"><path fill="#c92a2a" d="M 1.47,-2.21 Q 1.47,-2.21 2.35,-1.66 3.23,-1.10 4.22,-0.54 5.21,0.01 6.99,0.48 8.78,0.94 10.37,1.73 11.97,2.53 13.05,3.03 14.12,3.54 15.91,4.06 17.71,4.58 18.91,5.14 20.10,5.69 22.75,6.64 25.39,7.59 25.92,7.74 26.46,7.90 26.91,8.21 27.37,8.53 27.70,8.97 28.03,9.41 28.21,9.94 28.38,10.46 28.38,11.02 28.37,11.57 28.19,12.10 28.01,12.62 27.67,13.06 27.33,13.50 26.87,13.81 26.41,14.11 25.88,14.26 25.34,14.40 24.79,14.37 24.23,14.33 23.72,14.13 23.21,13.92 22.79,13.56 22.37,13.19 22.09,12.72 21.80,12.24 21.69,11.70 21.57,11.16 21.64,10.61 21.70,10.05 21.94,9.55 22.17,9.05 22.56,8.65 22.94,8.25 23.43,8.00 23.92,7.74 24.47,7.66 25.02,7.57 25.57,7.66 26.11,7.76 26.60,8.02 27.09,8.28 27.47,8.69 27.84,9.09 28.07,9.60 28.30,10.10 28.36,10.65 28.41,11.21 28.29,11.75 28.17,12.29 27.88,12.76 27.59,13.23 27.16,13.59 26.74,13.94 26.22,14.14 25.71,14.35 25.15,14.37 24.60,14.40 24.60,14.40 24.60,14.40 21.85,13.65 19.09,12.90 17.67,11.94 16.26,10.98 15.22,10.49 14.19,10.01 12.83,9.59 11.47,9.17 10.76,8.35 10.05,7.54 9.09,7.04 8.14,6.54 7.00,6.20 5.87,5.85 4.49,5.58 3.11,5.31 1.66,4.36 0.21,3.40 -0.63,2.81 -1.47,2.21 -1.72,2.00 -1.96,1.79 -2.15,1.53 -2.33,1.27 -2.45,0.97 -2.57,0.67 -2.61,0.36 -2.66,0.04 -2.62,-0.27 -2.59,-0.59 -2.48,-0.89 -2.37,-1.19 -2.20,-1.46 -2.02,-1.73 -1.78,-1.95 -1.54,-2.16 -1.26,-2.32 -0.98,-2.47 -0.67,-2.55 -0.36,-2.63 -0.04,-2.64 0.27,-2.64 0.59,-2.57 0.90,-2.50 1.19,-2.36 1.47,-2.21 1.47,-2.21 L 1.47,-2.21 Z"></path></g><g transform="translate(27.611999999999966 520) rotate(0 8.5 -12.5)" stroke="none"><path fill="#000000" d="M -1.42,-2.13 Q -1.42,-2.13 0.38,-3.16 2.18,-4.19 3.12,-4.95 4.07,-5.71 5.22,-6.89 6.38,-8.06 7.34,-9.12 8.31,-10.17 9.16,-11.50 10.02,-12.82 10.88,-14.23 11.74,-15.63 12.21,-16.83 12.68,-18.03 12.76,-19.17 12.84,-20.31 13.36,-22.82 13.87,-25.33 14.01,-25.82 14.14,-26.31 14.43,-26.73 14.71,-27.15 15.11,-27.46 15.52,-27.77 16.00,-27.93 16.48,-28.10 16.99,-28.10 17.50,-28.10 17.98,-27.94 18.46,-27.77 18.87,-27.47 19.27,-27.16 19.56,-26.74 19.85,-26.32 19.98,-25.83 20.12,-25.34 20.09,-24.83 20.07,-24.32 19.88,-23.85 19.69,-23.38 19.36,-22.99 19.03,-22.60 18.60,-22.34 18.16,-22.08 17.67,-21.97 17.17,-21.86 16.66,-21.91 16.16,-21.97 15.70,-22.18 15.23,-22.39 14.86,-22.74 14.50,-23.09 14.26,-23.54 14.02,-23.99 13.94,-24.49 13.85,-24.99 13.93,-25.49 14.02,-26.00 14.25,-26.44 14.49,-26.89 14.86,-27.24 15.23,-27.59 15.69,-27.81 16.15,-28.02 16.66,-28.08 17.16,-28.13 17.66,-28.02 18.16,-27.92 18.59,-27.65 19.03,-27.39 19.36,-27.01 19.69,-26.62 19.87,-26.15 20.06,-25.67 20.09,-25.17 20.12,-24.66 20.12,-24.66 20.12,-24.66 19.56,-22.75 19.01,-20.83 18.86,-19.45 18.71,-18.06 18.00,-15.95 17.29,-13.84 16.33,-12.47 15.37,-11.09 14.48,-9.70 13.59,-8.32 12.87,-7.32 12.15,-6.31 11.00,-5.31 9.85,-4.31 8.38,-3.14 6.91,-1.98 5.81,-1.19 4.71,-0.40 3.06,0.86 1.42,2.13 1.14,2.27 0.87,2.41 0.56,2.48 0.26,2.54 -0.04,2.54 -0.35,2.53 -0.64,2.46 -0.94,2.38 -1.21,2.23 -1.49,2.08 -1.71,1.87 -1.94,1.66 -2.11,1.41 -2.28,1.15 -2.39,0.86 -2.49,0.57 -2.53,0.26 -2.56,-0.04 -2.52,-0.34 -2.47,-0.65 -2.36,-0.94 -2.25,-1.22 -2.07,-1.47 -1.89,-1.73 -1.65,-1.93 -1.42,-2.13 -1.42,-2.13 L -1.42,-2.13 Z"></path></g><g transform="translate(16.611999999999966 500) rotate(0 27 13)" stroke="none"><path fill="#000000" d="M 1.69,-1.69 Q 1.69,-1.69 2.57,-0.85 3.46,-0.01 4.82,0.98 6.18,1.97 7.89,3.40 9.60,4.83 10.55,5.76 11.50,6.70 13.55,8.11 15.59,9.52 17.13,10.51 18.67,11.49 20.13,12.17 21.59,12.85 22.71,13.46 23.83,14.07 25.30,14.90 26.77,15.73 28.19,16.34 29.62,16.95 31.08,17.50 32.54,18.05 34.03,18.57 35.51,19.09 37.00,19.60 38.49,20.11 39.55,20.24 40.61,20.38 42.10,20.77 43.59,21.16 44.69,21.64 45.79,22.13 47.43,22.21 49.07,22.29 50.29,22.64 51.52,22.99 52.89,23.13 54.27,23.26 54.70,23.38 55.13,23.50 55.50,23.74 55.87,23.99 56.14,24.34 56.41,24.69 56.55,25.11 56.70,25.53 56.70,25.97 56.71,26.42 56.57,26.84 56.43,27.26 56.16,27.62 55.90,27.97 55.53,28.23 55.17,28.48 54.74,28.60 54.31,28.72 53.87,28.70 53.43,28.68 53.01,28.52 52.60,28.36 52.26,28.07 51.92,27.79 51.68,27.41 51.45,27.03 51.35,26.60 51.26,26.16 51.30,25.72 51.35,25.28 51.53,24.88 51.71,24.47 52.01,24.15 52.32,23.82 52.71,23.61 53.10,23.40 53.54,23.33 53.97,23.25 54.41,23.32 54.85,23.39 55.25,23.59 55.64,23.80 55.95,24.12 56.26,24.44 56.44,24.84 56.63,25.24 56.69,25.68 56.74,26.12 56.64,26.56 56.55,26.99 56.33,27.37 56.10,27.76 55.76,28.05 55.43,28.34 55.02,28.50 54.60,28.67 54.16,28.70 53.72,28.73 53.72,28.73 53.72,28.73 51.74,28.39 49.75,28.04 48.27,27.62 46.79,27.19 44.55,26.45 42.32,25.71 41.06,25.34 39.79,24.97 38.42,24.67 37.06,24.37 35.54,23.86 34.03,23.34 32.50,22.82 30.98,22.29 29.42,21.72 27.86,21.15 26.24,20.49 24.61,19.83 22.17,18.47 19.73,17.11 18.02,16.41 16.32,15.72 14.47,14.82 12.62,13.92 11.31,13.08 10.00,12.24 8.86,11.42 7.72,10.59 6.79,9.70 5.87,8.80 4.58,7.57 3.28,6.34 1.63,4.90 -0.01,3.46 -0.85,2.57 -1.69,1.69 -1.87,1.46 -2.04,1.23 -2.16,0.97 -2.28,0.71 -2.33,0.42 -2.38,0.14 -2.37,-0.14 -2.35,-0.43 -2.26,-0.70 -2.18,-0.98 -2.03,-1.22 -1.88,-1.47 -1.68,-1.68 -1.47,-1.88 -1.22,-2.03 -0.98,-2.18 -0.70,-2.26 -0.43,-2.35 -0.14,-2.37 0.14,-2.38 0.42,-2.33 0.71,-2.28 0.97,-2.16 1.23,-2.04 1.46,-1.87 1.69,-1.69 1.69,-1.69 L 1.69,-1.69 Z"></path></g><g transform="translate(83.61199999999997 520) rotate(0 11 -6.5)" stroke="none"><path fill="#000000" d="M -1.19,-2.39 Q -1.19,-2.39 -0.04,-2.96 1.10,-3.54 2.34,-4.17 3.57,-4.80 4.43,-5.64 5.29,-6.48 6.36,-7.18 7.44,-7.88 8.27,-8.71 9.10,-9.55 10.56,-10.58 12.01,-11.62 13.12,-12.22 14.23,-12.83 15.27,-13.38 16.31,-13.93 18.26,-14.89 20.22,-15.85 20.72,-16.06 21.22,-16.27 21.76,-16.31 22.31,-16.35 22.83,-16.21 23.36,-16.07 23.82,-15.77 24.27,-15.47 24.61,-15.05 24.94,-14.62 25.12,-14.10 25.31,-13.59 25.32,-13.05 25.32,-12.50 25.16,-11.98 24.99,-11.47 24.67,-11.03 24.35,-10.59 23.90,-10.28 23.46,-9.96 22.93,-9.81 22.41,-9.66 21.87,-9.68 21.32,-9.70 20.81,-9.89 20.31,-10.09 19.88,-10.43 19.46,-10.78 19.18,-11.24 18.89,-11.70 18.76,-12.23 18.64,-12.76 18.69,-13.30 18.74,-13.84 18.96,-14.34 19.18,-14.84 19.55,-15.24 19.92,-15.64 20.39,-15.90 20.87,-16.17 21.41,-16.26 21.94,-16.36 22.48,-16.28 23.02,-16.20 23.50,-15.95 23.99,-15.70 24.37,-15.32 24.75,-14.93 24.99,-14.44 25.22,-13.94 25.29,-13.40 25.36,-12.86 25.25,-12.33 25.14,-11.80 24.87,-11.33 24.59,-10.86 24.18,-10.50 23.77,-10.14 23.77,-10.14 23.77,-10.14 22.09,-9.14 20.40,-8.14 19.25,-7.96 18.10,-7.78 16.25,-6.88 14.39,-5.97 13.35,-5.00 12.30,-4.03 10.73,-3.06 9.16,-2.09 7.88,-1.06 6.59,-0.04 5.04,0.60 3.49,1.24 2.34,1.81 1.19,2.39 0.89,2.49 0.58,2.60 0.26,2.63 -0.05,2.67 -0.37,2.62 -0.69,2.58 -0.98,2.46 -1.28,2.34 -1.54,2.15 -1.81,1.96 -2.01,1.71 -2.22,1.47 -2.37,1.18 -2.51,0.89 -2.58,0.58 -2.65,0.26 -2.65,-0.05 -2.64,-0.37 -2.56,-0.68 -2.47,-0.99 -2.32,-1.27 -2.16,-1.56 -1.95,-1.79 -1.73,-2.03 -1.46,-2.21 -1.19,-2.39 -1.19,-2.39 L -1.19,-2.39 Z"></path></g><g transform="translate(77.61199999999997 503) rotate(0 21.5 9)" stroke="none"><path fill="#000000" d="M 0.42,-2.52 Q 0.42,-2.52 2.13,-2.17 3.84,-1.82 5.07,-1.73 6.30,-1.63 7.68,-1.28 9.05,-0.92 10.23,-0.47 11.41,-0.03 12.50,0.44 13.59,0.91 14.52,1.47 15.44,2.03 16.68,2.52 17.93,3.02 19.20,3.89 20.47,4.76 22.20,5.72 23.93,6.68 24.90,7.18 25.86,7.68 26.85,8.17 27.83,8.67 28.83,9.17 29.82,9.66 30.82,10.16 31.82,10.66 32.82,11.16 33.81,11.65 35.35,12.18 36.89,12.70 37.80,13.27 38.72,13.83 40.96,14.35 43.20,14.88 43.69,14.99 44.19,15.10 44.62,15.37 45.05,15.64 45.37,16.03 45.69,16.41 45.87,16.89 46.06,17.36 46.08,17.86 46.10,18.37 45.96,18.85 45.82,19.34 45.53,19.76 45.24,20.17 44.83,20.47 44.43,20.77 43.95,20.93 43.46,21.09 42.96,21.08 42.45,21.07 41.98,20.91 41.50,20.74 41.10,20.43 40.70,20.12 40.42,19.70 40.14,19.27 40.01,18.79 39.88,18.30 39.92,17.79 39.95,17.29 40.14,16.82 40.34,16.35 40.67,15.97 41.00,15.59 41.44,15.33 41.87,15.08 42.37,14.97 42.86,14.87 43.36,14.93 43.87,14.99 44.32,15.21 44.78,15.43 45.14,15.78 45.51,16.13 45.74,16.58 45.97,17.03 46.04,17.53 46.12,18.03 46.03,18.53 45.95,19.03 45.70,19.47 45.46,19.92 45.09,20.26 44.72,20.60 44.26,20.81 43.80,21.02 43.29,21.07 42.79,21.11 42.79,21.11 42.79,21.11 40.92,20.90 39.05,20.69 37.68,20.19 36.31,19.69 35.41,18.93 34.51,18.17 32.87,17.51 31.22,16.86 30.22,16.35 29.22,15.85 28.22,15.35 27.22,14.84 26.22,14.33 25.21,13.83 24.21,13.31 23.21,12.80 22.19,12.27 21.18,11.74 20.15,11.17 19.12,10.60 18.05,9.93 16.98,9.27 15.67,8.47 14.35,7.68 12.86,6.68 11.38,5.69 10.42,5.22 9.46,4.75 7.64,4.01 5.82,3.27 4.43,3.12 3.05,2.97 1.31,2.74 -0.42,2.52 -0.71,2.43 -1.01,2.35 -1.27,2.19 -1.54,2.04 -1.76,1.82 -1.98,1.61 -2.15,1.34 -2.31,1.08 -2.41,0.79 -2.51,0.50 -2.53,0.19 -2.55,-0.11 -2.50,-0.41 -2.45,-0.72 -2.33,-1.00 -2.21,-1.28 -2.02,-1.53 -1.83,-1.78 -1.59,-1.97 -1.35,-2.16 -1.07,-2.30 -0.80,-2.43 -0.49,-2.49 -0.19,-2.55 0.11,-2.53 0.42,-2.52 0.42,-2.52 L 0.42,-2.52 Z"></path></g><g transform="translate(133.61199999999997 519) rotate(0 17 -10)" stroke="none"><path fill="#000000" d="M -0.82,-2.46 Q -0.82,-2.46 0.91,-2.94 2.65,-3.43 3.91,-4.27 5.16,-5.10 6.75,-6.28 8.33,-7.45 9.70,-8.99 11.07,-10.54 12.21,-11.25 13.35,-11.96 14.30,-12.52 15.25,-13.07 16.23,-13.91 17.20,-14.74 18.58,-15.26 19.96,-15.78 21.56,-16.93 23.15,-18.08 24.14,-18.59 25.13,-19.11 26.27,-19.64 27.40,-20.18 28.38,-20.68 29.35,-21.18 31.10,-22.15 32.84,-23.12 33.37,-23.22 33.89,-23.32 34.43,-23.25 34.96,-23.18 35.45,-22.94 35.93,-22.70 36.31,-22.32 36.69,-21.95 36.93,-21.46 37.17,-20.98 37.25,-20.45 37.32,-19.92 37.22,-19.39 37.12,-18.86 36.86,-18.39 36.60,-17.92 36.20,-17.56 35.80,-17.20 35.30,-16.98 34.81,-16.77 34.27,-16.72 33.73,-16.68 33.21,-16.81 32.69,-16.93 32.23,-17.22 31.78,-17.51 31.44,-17.93 31.10,-18.35 30.92,-18.85 30.73,-19.36 30.71,-19.90 30.70,-20.43 30.85,-20.95 31.01,-21.47 31.32,-21.90 31.63,-22.34 32.07,-22.66 32.51,-22.97 33.02,-23.13 33.54,-23.29 34.07,-23.28 34.61,-23.27 35.12,-23.08 35.62,-22.90 36.05,-22.56 36.47,-22.22 36.76,-21.77 37.05,-21.32 37.18,-20.80 37.31,-20.27 37.27,-19.74 37.23,-19.20 37.02,-18.71 36.80,-18.21 36.45,-17.81 36.09,-17.41 35.62,-17.14 35.15,-16.87 35.15,-16.87 35.15,-16.87 34.13,-16.31 33.12,-15.76 32.00,-15.23 30.89,-14.70 29.93,-14.15 28.97,-13.61 27.71,-13.05 26.44,-12.50 25.08,-11.58 23.72,-10.67 21.86,-9.71 20.00,-8.76 18.54,-7.82 17.08,-6.88 15.77,-6.39 14.46,-5.91 13.74,-4.82 13.02,-3.74 11.92,-3.24 10.82,-2.75 9.77,-1.97 8.72,-1.20 7.55,-0.68 6.37,-0.15 5.31,0.49 4.24,1.13 2.53,1.79 0.82,2.46 0.51,2.52 0.20,2.58 -0.10,2.57 -0.41,2.56 -0.71,2.47 -1.01,2.38 -1.28,2.22 -1.55,2.07 -1.78,1.85 -2.01,1.63 -2.17,1.37 -2.34,1.11 -2.44,0.81 -2.54,0.51 -2.56,0.20 -2.59,-0.10 -2.54,-0.41 -2.49,-0.72 -2.36,-1.01 -2.24,-1.29 -2.05,-1.54 -1.87,-1.79 -1.62,-1.99 -1.38,-2.19 -1.10,-2.32 -0.82,-2.46 -0.82,-2.46 L -0.82,-2.46 Z"></path></g><g transform="translate(133.61199999999997 498) rotate(0 18 12)" stroke="none"><path fill="#000000" d="M 1.28,-2.13 Q 1.28,-2.13 4.07,-0.27 6.87,1.57 8.41,2.66 9.94,3.74 10.96,4.46 11.99,5.17 13.72,6.21 15.46,7.26 16.81,8.13 18.16,9.01 19.59,10.09 21.02,11.18 22.01,11.57 23.01,11.95 24.61,12.84 26.22,13.72 27.83,14.86 29.44,16.00 31.18,16.89 32.93,17.79 34.14,18.85 35.35,19.90 36.63,20.66 37.92,21.41 38.29,21.79 38.65,22.16 38.87,22.63 39.09,23.11 39.15,23.62 39.22,24.14 39.11,24.65 39.00,25.16 38.73,25.61 38.47,26.06 38.07,26.40 37.68,26.74 37.20,26.94 36.71,27.14 36.19,27.17 35.67,27.20 35.17,27.07 34.67,26.93 34.23,26.64 33.80,26.35 33.48,25.94 33.16,25.53 32.99,25.04 32.82,24.54 32.81,24.02 32.81,23.50 32.97,23.00 33.13,22.51 33.45,22.09 33.76,21.67 34.19,21.38 34.62,21.08 35.12,20.94 35.62,20.79 36.14,20.82 36.66,20.84 37.15,21.03 37.63,21.22 38.03,21.55 38.43,21.89 38.71,22.33 38.98,22.78 39.10,23.29 39.21,23.79 39.16,24.31 39.11,24.83 38.89,25.31 38.68,25.78 38.32,26.16 37.97,26.55 37.51,26.79 37.05,27.04 36.54,27.13 36.02,27.22 35.51,27.14 34.99,27.06 34.53,26.82 34.07,26.58 34.07,26.58 34.07,26.58 32.58,25.60 31.10,24.63 30.16,23.74 29.21,22.84 27.99,22.08 26.77,21.32 25.07,20.13 23.37,18.94 22.44,18.41 21.52,17.88 20.42,17.27 19.33,16.67 18.32,16.00 17.32,15.33 16.36,14.40 15.40,13.48 14.42,12.81 13.45,12.14 12.39,11.13 11.34,10.11 10.30,9.40 9.26,8.69 8.42,7.96 7.58,7.23 6.10,6.27 4.62,5.32 1.67,3.72 -1.28,2.13 -1.51,1.95 -1.75,1.76 -1.94,1.53 -2.12,1.29 -2.24,1.02 -2.37,0.74 -2.42,0.45 -2.48,0.15 -2.46,-0.14 -2.44,-0.44 -2.36,-0.72 -2.27,-1.01 -2.11,-1.27 -1.96,-1.52 -1.75,-1.74 -1.54,-1.95 -1.28,-2.11 -1.02,-2.26 -0.74,-2.35 -0.45,-2.44 -0.15,-2.46 0.14,-2.48 0.43,-2.43 0.73,-2.37 1.00,-2.25 1.28,-2.13 1.28,-2.13 L 1.28,-2.13 Z"></path></g><g transform="translate(197.61199999999997 520) rotate(0 9 -10.5)" stroke="none"><path fill="#000000" d="M -1.59,-2.12 Q -1.59,-2.12 -0.44,-2.96 0.70,-3.80 1.43,-4.89 2.17,-5.99 3.17,-7.13 4.18,-8.27 5.13,-9.29 6.08,-10.31 6.59,-11.27 7.09,-12.23 8.03,-12.87 8.97,-13.51 9.91,-14.88 10.85,-16.25 11.88,-17.40 12.91,-18.54 13.79,-20.02 14.68,-21.50 14.84,-22.01 15.01,-22.53 15.33,-22.97 15.66,-23.40 16.10,-23.71 16.55,-24.02 17.07,-24.18 17.59,-24.33 18.13,-24.30 18.68,-24.28 19.18,-24.09 19.69,-23.89 20.11,-23.55 20.53,-23.20 20.81,-22.74 21.10,-22.27 21.22,-21.75 21.34,-21.22 21.29,-20.68 21.24,-20.14 21.02,-19.64 20.80,-19.14 20.43,-18.75 20.06,-18.35 19.58,-18.09 19.10,-17.83 18.57,-17.73 18.03,-17.64 17.50,-17.72 16.96,-17.80 16.48,-18.05 16.00,-18.30 15.62,-18.69 15.24,-19.08 15.01,-19.57 14.77,-20.06 14.71,-20.60 14.64,-21.14 14.75,-21.67 14.86,-22.20 15.14,-22.67 15.41,-23.14 15.82,-23.49 16.23,-23.85 16.73,-24.06 17.23,-24.26 17.78,-24.30 18.32,-24.34 18.84,-24.20 19.37,-24.06 19.82,-23.76 20.27,-23.46 20.61,-23.03 20.94,-22.60 21.12,-22.09 21.30,-21.58 21.31,-21.03 21.31,-20.49 21.31,-20.49 21.31,-20.49 20.39,-18.56 19.46,-16.63 18.56,-15.30 17.67,-13.98 16.65,-12.98 15.64,-11.98 15.07,-11.02 14.50,-10.06 12.99,-9.05 11.48,-8.04 10.42,-6.60 9.36,-5.17 8.34,-4.21 7.33,-3.26 6.38,-2.33 5.44,-1.41 4.67,-0.52 3.89,0.35 2.74,1.24 1.59,2.12 1.31,2.28 1.04,2.44 0.73,2.53 0.42,2.62 0.10,2.64 -0.21,2.65 -0.53,2.58 -0.84,2.52 -1.13,2.38 -1.42,2.24 -1.67,2.04 -1.92,1.84 -2.11,1.58 -2.30,1.32 -2.43,1.03 -2.55,0.73 -2.60,0.42 -2.65,0.10 -2.63,-0.21 -2.60,-0.53 -2.50,-0.83 -2.40,-1.14 -2.23,-1.41 -2.06,-1.68 -1.82,-1.90 -1.59,-2.12 -1.59,-2.12 L -1.59,-2.12 Z"></path></g><g transform="translate(193.61199999999997 497) rotate(0 16 11)" stroke="none"><path fill="#000000" d="M 1.88,-1.88 Q 1.88,-1.88 2.75,-1.03 3.61,-0.17 5.18,0.91 6.74,2.01 7.98,3.08 9.21,4.14 10.93,4.99 12.65,5.84 13.91,6.87 15.17,7.91 16.35,8.52 17.54,9.13 18.66,9.42 19.78,9.71 21.11,10.61 22.45,11.51 23.39,12.07 24.32,12.62 25.31,13.11 26.31,13.59 28.40,15.18 30.50,16.77 31.38,17.62 32.26,18.48 33.57,19.37 34.87,20.26 35.08,20.77 35.28,21.27 35.31,21.82 35.34,22.36 35.19,22.88 35.05,23.41 34.74,23.86 34.43,24.31 34.00,24.64 33.57,24.96 33.05,25.14 32.54,25.31 31.99,25.31 31.45,25.31 30.94,25.14 30.42,24.96 29.99,24.64 29.55,24.31 29.25,23.86 28.94,23.41 28.80,22.88 28.65,22.36 28.68,21.82 28.71,21.27 28.91,20.77 29.12,20.26 29.47,19.85 29.82,19.43 30.29,19.15 30.75,18.87 31.28,18.76 31.81,18.64 32.35,18.70 32.89,18.76 33.39,18.99 33.88,19.21 34.28,19.59 34.67,19.96 34.93,20.44 35.18,20.92 35.27,21.46 35.36,22.00 35.27,22.53 35.18,23.07 34.92,23.55 34.67,24.03 34.28,24.40 33.88,24.78 33.39,25.01 32.89,25.23 32.35,25.29 31.81,25.35 31.28,25.23 30.75,25.12 30.28,24.84 29.82,24.56 29.47,24.14 29.11,23.73 29.11,23.73 29.12,23.73 28.28,23.02 27.45,22.31 26.64,21.53 25.83,20.75 23.93,19.75 22.03,18.75 20.59,17.91 19.16,17.08 17.68,15.97 16.19,14.86 14.99,14.22 13.79,13.58 12.53,13.12 11.28,12.67 10.14,11.61 9.01,10.56 7.67,10.00 6.33,9.45 5.28,8.39 4.22,7.32 3.14,6.29 2.05,5.26 0.94,4.44 -0.16,3.62 -1.02,2.75 -1.88,1.88 -2.08,1.63 -2.28,1.37 -2.41,1.08 -2.54,0.79 -2.60,0.47 -2.66,0.16 -2.64,-0.15 -2.62,-0.48 -2.52,-0.78 -2.43,-1.09 -2.26,-1.36 -2.09,-1.64 -1.87,-1.87 -1.64,-2.09 -1.36,-2.26 -1.09,-2.43 -0.78,-2.52 -0.48,-2.62 -0.15,-2.64 0.16,-2.66 0.47,-2.60 0.79,-2.54 1.08,-2.41 1.37,-2.28 1.63,-2.08 1.88,-1.88 1.88,-1.88 L 1.88,-1.88 Z"></path></g><g transform="translate(789.612 521) rotate(0 8 -9.5)" stroke="none"><path fill="#c92a2a" d="M -2.53,-0.84 Q -2.53,-0.84 -2.28,-1.71 -2.02,-2.58 -1.49,-4.11 -0.96,-5.64 0.06,-6.95 1.10,-8.26 2.42,-9.24 3.74,-10.23 4.54,-11.10 5.35,-11.97 6.18,-12.80 7.02,-13.63 8.34,-14.52 9.65,-15.42 10.27,-16.50 10.89,-17.58 11.88,-18.94 12.88,-20.31 13.17,-20.77 13.46,-21.23 13.88,-21.58 14.31,-21.93 14.82,-22.12 15.33,-22.31 15.88,-22.33 16.43,-22.35 16.95,-22.19 17.48,-22.04 17.92,-21.72 18.37,-21.40 18.69,-20.96 19.01,-20.52 19.18,-20.00 19.34,-19.48 19.33,-18.93 19.32,-18.38 19.14,-17.87 18.95,-17.35 18.61,-16.92 18.27,-16.49 17.81,-16.20 17.35,-15.90 16.82,-15.76 16.29,-15.63 15.75,-15.67 15.20,-15.71 14.70,-15.92 14.19,-16.13 13.78,-16.49 13.37,-16.86 13.10,-17.33 12.83,-17.81 12.72,-18.34 12.61,-18.88 12.68,-19.42 12.75,-19.96 12.99,-20.46 13.23,-20.95 13.62,-21.34 14.00,-21.73 14.49,-21.97 14.98,-22.22 15.52,-22.30 16.06,-22.38 16.60,-22.28 17.14,-22.18 17.62,-21.91 18.10,-21.65 18.46,-21.24 18.83,-20.84 19.05,-20.34 19.27,-19.83 19.32,-19.29 19.37,-18.74 19.24,-18.21 19.11,-17.68 19.11,-17.68 19.11,-17.68 17.93,-15.84 16.75,-14.00 15.66,-12.90 14.56,-11.80 13.52,-10.85 12.48,-9.90 11.47,-8.94 10.47,-7.97 9.28,-7.31 8.10,-6.64 7.24,-5.86 6.38,-5.09 5.50,-4.22 4.63,-3.36 3.90,-2.11 3.17,-0.86 2.85,-0.00 2.53,0.84 2.39,1.13 2.26,1.42 2.05,1.67 1.85,1.92 1.59,2.12 1.33,2.31 1.04,2.44 0.74,2.56 0.42,2.62 0.10,2.67 -0.21,2.64 -0.53,2.62 -0.83,2.51 -1.14,2.41 -1.41,2.24 -1.69,2.07 -1.91,1.84 -2.13,1.60 -2.29,1.32 -2.46,1.04 -2.54,0.73 -2.63,0.43 -2.65,0.10 -2.66,-0.21 -2.60,-0.53 -2.53,-0.84 -2.53,-0.84 L -2.53,-0.84 Z"></path></g><g transform="translate(788.612 503) rotate(0 8.5 9)" stroke="none"><path fill="#c92a2a" d="M 2.56,0.64 Q 2.56,0.64 2.28,1.73 2.01,2.82 2.28,3.96 2.54,5.10 4.53,6.37 6.52,7.64 7.78,8.80 9.05,9.97 10.47,10.34 11.89,10.72 12.98,11.75 14.07,12.77 15.36,13.52 16.65,14.26 17.86,14.65 19.07,15.03 19.52,15.28 19.96,15.53 20.31,15.91 20.65,16.29 20.85,16.76 21.05,17.22 21.10,17.73 21.14,18.24 21.02,18.74 20.90,19.23 20.62,19.66 20.35,20.09 19.95,20.41 19.56,20.74 19.08,20.91 18.60,21.09 18.09,21.11 17.58,21.12 17.09,20.97 16.60,20.82 16.19,20.53 15.77,20.23 15.47,19.82 15.17,19.40 15.02,18.92 14.87,18.43 14.88,17.92 14.90,17.41 15.07,16.93 15.25,16.45 15.56,16.05 15.88,15.65 16.31,15.38 16.74,15.10 17.24,14.98 17.73,14.85 18.24,14.89 18.75,14.93 19.22,15.13 19.69,15.33 20.07,15.67 20.45,16.01 20.70,16.46 20.95,16.90 21.05,17.40 21.15,17.90 21.08,18.41 21.01,18.91 20.79,19.37 20.56,19.83 20.20,20.19 19.84,20.55 19.39,20.78 18.93,21.01 18.42,21.08 17.92,21.15 17.42,21.05 16.92,20.96 16.92,20.96 16.92,20.96 15.55,20.29 14.19,19.63 13.36,18.95 12.52,18.27 11.22,17.65 9.91,17.03 8.93,16.27 7.95,15.51 6.59,14.95 5.23,14.38 3.98,13.15 2.73,11.93 1.93,11.23 1.13,10.52 0.06,9.72 -1.00,8.92 -1.96,6.67 -2.93,4.42 -3.04,3.09 -3.16,1.77 -2.86,0.56 -2.56,-0.64 -2.44,-0.93 -2.33,-1.23 -2.15,-1.49 -1.96,-1.75 -1.73,-1.96 -1.49,-2.17 -1.20,-2.32 -0.92,-2.47 -0.61,-2.54 -0.30,-2.62 0.00,-2.61 0.32,-2.61 0.63,-2.54 0.94,-2.46 1.22,-2.31 1.50,-2.16 1.74,-1.95 1.98,-1.74 2.16,-1.48 2.34,-1.21 2.45,-0.92 2.56,-0.62 2.60,-0.30 2.63,0.00 2.59,0.32 2.56,0.64 2.56,0.64 L 2.56,0.64 Z"></path></g><g transform="translate(729.612 521) rotate(0 10 -10)" stroke="none"><path fill="#c92a2a" d="M -0.84,-2.54 Q -0.84,-2.54 0.00,-2.86 0.85,-3.18 2.37,-4.19 3.88,-5.21 5.52,-6.99 7.17,-8.76 8.19,-9.71 9.21,-10.65 10.27,-10.93 11.33,-11.21 11.96,-12.25 12.58,-13.28 13.75,-14.42 14.91,-15.56 15.82,-18.21 16.73,-20.87 16.96,-21.37 17.18,-21.87 17.56,-22.27 17.93,-22.67 18.41,-22.93 18.89,-23.19 19.43,-23.28 19.97,-23.38 20.51,-23.29 21.05,-23.21 21.53,-22.95 22.02,-22.70 22.40,-22.31 22.78,-21.91 23.01,-21.42 23.24,-20.93 23.31,-20.38 23.37,-19.84 23.26,-19.30 23.14,-18.77 22.87,-18.30 22.59,-17.83 22.17,-17.47 21.76,-17.11 21.25,-16.91 20.75,-16.70 20.20,-16.67 19.66,-16.63 19.13,-16.77 18.60,-16.92 18.14,-17.22 17.69,-17.52 17.36,-17.96 17.02,-18.39 16.84,-18.91 16.66,-19.42 16.66,-19.97 16.66,-20.52 16.83,-21.04 17.00,-21.55 17.32,-21.99 17.65,-22.43 18.10,-22.74 18.55,-23.05 19.08,-23.20 19.60,-23.35 20.15,-23.33 20.70,-23.30 21.21,-23.10 21.72,-22.90 22.13,-22.55 22.55,-22.20 22.84,-21.74 23.13,-21.27 23.25,-20.74 23.37,-20.20 23.31,-19.66 23.26,-19.12 23.26,-19.12 23.26,-19.12 22.61,-17.18 21.96,-15.24 21.34,-14.09 20.72,-12.94 19.62,-11.44 18.52,-9.93 17.36,-9.16 16.20,-8.40 14.70,-7.13 13.21,-5.87 12.03,-4.82 10.85,-3.77 10.10,-2.97 9.35,-2.16 7.79,-1.13 6.24,-0.10 4.41,0.96 2.59,2.03 1.71,2.28 0.84,2.54 0.53,2.60 0.21,2.67 -0.10,2.65 -0.43,2.64 -0.74,2.55 -1.05,2.46 -1.33,2.30 -1.61,2.14 -1.84,1.91 -2.07,1.69 -2.25,1.42 -2.42,1.14 -2.52,0.84 -2.62,0.53 -2.65,0.21 -2.67,-0.10 -2.62,-0.42 -2.57,-0.74 -2.44,-1.04 -2.32,-1.34 -2.12,-1.59 -1.93,-1.85 -1.68,-2.06 -1.43,-2.26 -1.13,-2.40 -0.84,-2.54 -0.84,-2.54 L -0.84,-2.54 Z"></path></g><g transform="translate(725.612 508) rotate(0 9.5 6)" stroke="none"><path fill="#c92a2a" d="M 1.47,-2.21 Q 1.47,-2.21 2.35,-1.66 3.23,-1.11 4.71,-0.14 6.19,0.82 7.34,1.49 8.50,2.16 9.83,3.09 11.17,4.01 12.13,4.81 13.10,5.60 14.12,6.07 15.13,6.54 16.35,7.17 17.57,7.80 18.79,8.28 20.01,8.77 20.50,9.01 20.99,9.26 21.37,9.65 21.76,10.04 22.00,10.53 22.24,11.03 22.31,11.57 22.38,12.11 22.27,12.65 22.16,13.19 21.89,13.66 21.62,14.13 21.21,14.50 20.80,14.86 20.29,15.07 19.79,15.28 19.24,15.33 18.69,15.37 18.16,15.23 17.63,15.09 17.18,14.79 16.72,14.50 16.38,14.07 16.04,13.64 15.85,13.12 15.67,12.61 15.66,12.06 15.65,11.51 15.81,10.99 15.98,10.47 16.30,10.03 16.62,9.58 17.07,9.27 17.51,8.95 18.04,8.80 18.56,8.64 19.11,8.66 19.66,8.68 20.17,8.87 20.68,9.06 21.11,9.41 21.53,9.75 21.82,10.22 22.11,10.68 22.24,11.21 22.37,11.75 22.32,12.29 22.27,12.84 22.05,13.34 21.83,13.84 21.46,14.24 21.09,14.65 20.62,14.91 20.14,15.18 19.60,15.28 19.06,15.38 18.52,15.30 17.98,15.22 17.98,15.22 17.98,15.22 15.16,13.56 12.35,11.89 11.31,11.32 10.28,10.75 8.88,9.84 7.48,8.93 6.66,8.06 5.83,7.19 4.55,6.42 3.27,5.66 1.74,4.53 0.21,3.41 -0.63,2.81 -1.47,2.21 -1.72,2.00 -1.96,1.79 -2.15,1.53 -2.33,1.27 -2.45,0.97 -2.57,0.67 -2.62,0.36 -2.66,0.04 -2.63,-0.27 -2.59,-0.59 -2.48,-0.89 -2.37,-1.20 -2.20,-1.46 -2.02,-1.73 -1.78,-1.95 -1.54,-2.16 -1.26,-2.32 -0.98,-2.47 -0.67,-2.55 -0.36,-2.64 -0.04,-2.64 0.27,-2.65 0.59,-2.57 0.90,-2.50 1.19,-2.36 1.47,-2.21 1.47,-2.21 L 1.47,-2.21 Z"></path></g><g transform="translate(669.612 524) rotate(0 10.5 -14.5)" stroke="none"><path fill="#c92a2a" d="M -2.55,-0.63 Q -2.55,-0.63 -2.28,-1.80 -2.00,-2.96 -1.51,-4.04 -1.02,-5.13 -0.10,-6.66 0.82,-8.19 1.74,-9.32 2.67,-10.44 3.87,-11.81 5.07,-13.18 6.10,-13.91 7.14,-14.64 8.03,-15.85 8.92,-17.06 9.78,-17.94 10.65,-18.82 11.83,-20.07 13.02,-21.32 13.98,-21.94 14.94,-22.56 15.37,-23.70 15.79,-24.84 16.24,-25.90 16.69,-26.97 17.49,-28.82 18.28,-30.66 18.62,-31.05 18.96,-31.44 19.40,-31.70 19.85,-31.97 20.35,-32.07 20.85,-32.18 21.37,-32.12 21.88,-32.06 22.34,-31.83 22.81,-31.61 23.18,-31.26 23.55,-30.90 23.79,-30.44 24.02,-29.98 24.10,-29.47 24.18,-28.96 24.09,-28.46 24.00,-27.95 23.76,-27.49 23.51,-27.04 23.13,-26.69 22.76,-26.34 22.29,-26.13 21.82,-25.92 21.30,-25.87 20.79,-25.82 20.29,-25.93 19.79,-26.05 19.35,-26.32 18.91,-26.59 18.58,-26.98 18.25,-27.38 18.06,-27.86 17.88,-28.34 17.85,-28.86 17.83,-29.37 17.97,-29.87 18.12,-30.36 18.41,-30.79 18.70,-31.21 19.12,-31.52 19.53,-31.82 20.02,-31.98 20.51,-32.14 21.03,-32.14 21.54,-32.13 22.03,-31.96 22.52,-31.79 22.92,-31.48 23.33,-31.16 23.61,-30.73 23.90,-30.30 24.03,-29.81 24.17,-29.31 24.13,-28.79 24.10,-28.28 23.90,-27.80 23.71,-27.32 23.71,-27.33 23.71,-27.33 22.86,-25.28 22.02,-23.24 21.16,-21.91 20.31,-20.58 18.82,-18.80 17.33,-17.01 16.14,-15.84 14.95,-14.68 13.67,-13.32 12.40,-11.97 11.43,-10.87 10.46,-9.77 9.34,-8.91 8.22,-8.05 6.98,-6.69 5.74,-5.33 5.15,-4.37 4.56,-3.40 3.86,-2.52 3.15,-1.63 2.85,-0.49 2.55,0.63 2.44,0.93 2.32,1.23 2.14,1.49 1.96,1.75 1.72,1.96 1.48,2.17 1.20,2.31 0.92,2.46 0.61,2.54 0.30,2.61 -0.00,2.61 -0.32,2.61 -0.63,2.53 -0.94,2.46 -1.22,2.31 -1.50,2.16 -1.74,1.95 -1.97,1.74 -2.15,1.47 -2.33,1.21 -2.44,0.91 -2.55,0.62 -2.59,0.30 -2.63,-0.00 -2.59,-0.32 -2.55,-0.63 -2.55,-0.63 L -2.55,-0.63 Z"></path></g><g transform="translate(663.612 505) rotate(0 10 10)" stroke="none"><path fill="#c92a2a" d="M 2.18,-1.31 Q 2.18,-1.31 3.00,0.14 3.81,1.59 5.43,3.34 7.05,5.09 7.84,5.97 8.64,6.85 9.42,7.97 10.20,9.09 11.48,10.47 12.77,11.86 13.98,13.01 15.19,14.17 16.23,15.14 17.26,16.11 18.84,16.55 20.41,16.98 20.88,17.13 21.35,17.27 21.75,17.56 22.15,17.85 22.44,18.25 22.72,18.65 22.87,19.12 23.01,19.59 23.00,20.08 22.98,20.57 22.81,21.03 22.64,21.50 22.33,21.88 22.02,22.26 21.61,22.53 21.19,22.79 20.72,22.91 20.24,23.03 19.75,22.99 19.26,22.95 18.81,22.75 18.35,22.56 17.99,22.23 17.62,21.90 17.38,21.47 17.14,21.04 17.05,20.56 16.95,20.07 17.02,19.59 17.09,19.10 17.31,18.66 17.53,18.22 17.87,17.87 18.22,17.52 18.66,17.30 19.11,17.08 19.59,17.02 20.08,16.95 20.56,17.05 21.05,17.14 21.48,17.38 21.90,17.63 22.23,17.99 22.56,18.36 22.75,18.81 22.95,19.26 22.99,19.75 23.03,20.25 22.91,20.72 22.79,21.20 22.52,21.62 22.26,22.03 21.87,22.34 21.49,22.65 21.03,22.82 20.56,22.98 20.07,23.00 19.58,23.01 19.58,23.01 19.58,23.01 16.40,21.69 13.22,20.36 12.18,19.25 11.15,18.14 9.98,16.84 8.81,15.54 7.94,14.58 7.06,13.62 5.92,11.93 4.79,10.24 3.33,8.35 1.88,6.46 0.75,5.31 -0.36,4.15 -1.27,2.73 -2.18,1.31 -2.31,1.03 -2.43,0.75 -2.49,0.44 -2.54,0.14 -2.52,-0.16 -2.50,-0.46 -2.41,-0.76 -2.32,-1.05 -2.16,-1.31 -2.00,-1.57 -1.78,-1.79 -1.56,-2.01 -1.30,-2.17 -1.03,-2.32 -0.74,-2.41 -0.45,-2.51 -0.14,-2.52 0.16,-2.54 0.46,-2.48 0.76,-2.43 1.04,-2.30 1.32,-2.17 1.56,-1.98 1.80,-1.79 1.99,-1.55 2.18,-1.31 2.18,-1.31 L 2.18,-1.31 Z"></path></g><g transform="translate(614.612 522) rotate(0 11 -13.5)" stroke="none"><path fill="#c92a2a" d="M -2.35,-1.17 Q -2.35,-1.17 -1.78,-2.32 -1.20,-3.48 -0.61,-4.43 -0.01,-5.38 0.56,-6.39 1.15,-7.40 2.18,-8.44 3.20,-9.48 4.60,-10.95 6.00,-12.41 7.35,-13.67 8.70,-14.94 9.86,-16.13 11.02,-17.32 11.95,-18.67 12.87,-20.02 13.95,-20.84 15.02,-21.67 15.93,-23.32 16.83,-24.97 17.97,-26.69 19.11,-28.42 19.41,-28.84 19.72,-29.26 20.14,-29.57 20.56,-29.87 21.06,-30.03 21.55,-30.18 22.07,-30.17 22.59,-30.15 23.08,-29.98 23.57,-29.80 23.98,-29.47 24.38,-29.15 24.66,-28.71 24.94,-28.27 25.07,-27.77 25.20,-27.26 25.16,-26.74 25.12,-26.23 24.91,-25.75 24.71,-25.27 24.36,-24.88 24.01,-24.49 23.56,-24.24 23.11,-23.98 22.60,-23.88 22.09,-23.78 21.57,-23.85 21.06,-23.92 20.59,-24.15 20.13,-24.38 19.76,-24.75 19.39,-25.11 19.16,-25.58 18.92,-26.04 18.85,-26.56 18.78,-27.08 18.88,-27.59 18.98,-28.10 19.23,-28.55 19.49,-29.00 19.87,-29.35 20.26,-29.70 20.74,-29.91 21.21,-30.11 21.73,-30.16 22.25,-30.20 22.75,-30.07 23.26,-29.95 23.70,-29.67 24.14,-29.39 24.46,-28.99 24.79,-28.58 24.97,-28.10 25.15,-27.61 25.17,-27.09 25.18,-26.57 25.03,-26.07 24.88,-25.57 24.88,-25.57 24.88,-25.57 23.43,-23.47 21.98,-21.38 21.25,-20.16 20.52,-18.94 19.57,-17.81 18.62,-16.68 17.70,-15.91 16.77,-15.14 16.04,-14.08 15.30,-13.03 14.05,-11.84 12.80,-10.66 11.91,-9.79 11.02,-8.93 9.76,-8.01 8.50,-7.09 7.66,-6.03 6.81,-4.96 6.10,-4.15 5.39,-3.34 4.45,-2.23 3.50,-1.11 2.93,0.02 2.35,1.17 2.17,1.43 2.00,1.70 1.76,1.91 1.53,2.13 1.25,2.28 0.98,2.43 0.67,2.52 0.36,2.60 0.05,2.60 -0.26,2.61 -0.57,2.54 -0.88,2.47 -1.16,2.33 -1.45,2.19 -1.69,1.98 -1.93,1.78 -2.11,1.52 -2.30,1.26 -2.42,0.97 -2.53,0.67 -2.58,0.36 -2.62,0.05 -2.59,-0.26 -2.56,-0.57 -2.45,-0.87 -2.35,-1.17 -2.35,-1.17 L -2.35,-1.17 Z"></path></g><g transform="translate(613.612 501) rotate(0 8 9.5)" stroke="none"><path fill="#c92a2a" d="M 2.35,-1.17 Q 2.35,-1.17 2.93,-0.02 3.51,1.11 4.05,2.17 4.60,3.23 5.12,4.25 5.65,5.26 6.60,6.08 7.54,6.89 8.44,7.98 9.35,9.06 10.40,9.91 11.46,10.76 12.86,12.30 14.26,13.83 16.09,15.17 17.91,16.50 18.26,16.87 18.60,17.24 18.82,17.71 19.03,18.17 19.08,18.67 19.13,19.18 19.02,19.68 18.91,20.17 18.64,20.61 18.38,21.04 17.99,21.37 17.60,21.69 17.13,21.88 16.66,22.07 16.15,22.09 15.64,22.12 15.15,21.98 14.66,21.84 14.24,21.55 13.82,21.27 13.52,20.86 13.21,20.45 13.05,19.97 12.89,19.49 12.89,18.98 12.90,18.47 13.06,17.99 13.23,17.51 13.54,17.11 13.85,16.70 14.27,16.42 14.69,16.14 15.18,16.00 15.67,15.87 16.18,15.90 16.69,15.93 17.16,16.12 17.63,16.31 18.01,16.64 18.40,16.97 18.66,17.41 18.92,17.85 19.03,18.34 19.13,18.84 19.08,19.35 19.02,19.85 18.80,20.31 18.59,20.77 18.23,21.14 17.88,21.51 17.43,21.74 16.98,21.98 16.48,22.06 15.98,22.14 15.48,22.05 14.98,21.97 14.53,21.73 14.08,21.49 14.08,21.49 14.08,21.49 12.04,19.82 10.01,18.16 9.07,16.86 8.14,15.57 7.07,14.77 6.01,13.96 5.06,12.65 4.11,11.34 3.06,10.44 2.01,9.54 1.41,8.61 0.82,7.69 0.32,6.65 -0.17,5.62 -0.69,4.55 -1.21,3.48 -1.78,2.32 -2.35,1.17 -2.45,0.87 -2.56,0.57 -2.59,0.26 -2.62,-0.05 -2.58,-0.36 -2.53,-0.67 -2.42,-0.97 -2.30,-1.26 -2.11,-1.52 -1.93,-1.78 -1.69,-1.98 -1.44,-2.19 -1.16,-2.33 -0.88,-2.47 -0.57,-2.54 -0.26,-2.61 0.05,-2.60 0.36,-2.60 0.67,-2.51 0.98,-2.43 1.25,-2.28 1.53,-2.13 1.76,-1.91 2.00,-1.70 2.17,-1.43 2.35,-1.17 2.35,-1.17 L 2.35,-1.17 Z"></path></g><g transform="translate(557.612 523) rotate(0 13 -9)" stroke="none"><path fill="#c92a2a" d="M -1.46,-2.19 Q -1.46,-2.19 -0.61,-2.79 0.24,-3.40 1.89,-4.19 3.55,-4.98 5.38,-5.95 7.20,-6.92 8.87,-7.54 10.54,-8.16 11.77,-8.82 12.99,-9.47 14.37,-9.97 15.74,-10.47 16.93,-11.53 18.12,-12.59 19.07,-13.56 20.02,-14.53 20.92,-15.85 21.81,-17.17 22.56,-18.53 23.32,-19.90 23.69,-20.28 24.07,-20.66 24.54,-20.89 25.02,-21.13 25.54,-21.21 26.07,-21.28 26.59,-21.18 27.11,-21.08 27.58,-20.82 28.04,-20.57 28.40,-20.17 28.76,-19.78 28.97,-19.29 29.18,-18.80 29.23,-18.27 29.27,-17.74 29.15,-17.23 29.02,-16.71 28.73,-16.26 28.45,-15.81 28.04,-15.48 27.62,-15.14 27.13,-14.96 26.63,-14.77 26.10,-14.75 25.57,-14.74 25.06,-14.89 24.55,-15.04 24.11,-15.35 23.68,-15.66 23.37,-16.09 23.06,-16.52 22.90,-17.03 22.74,-17.54 22.75,-18.07 22.76,-18.60 22.95,-19.10 23.13,-19.60 23.46,-20.02 23.79,-20.43 24.24,-20.72 24.68,-21.01 25.20,-21.14 25.71,-21.27 26.24,-21.23 26.77,-21.19 27.26,-20.98 27.75,-20.77 28.15,-20.42 28.55,-20.06 28.81,-19.60 29.08,-19.14 29.18,-18.62 29.28,-18.10 29.21,-17.57 29.14,-17.04 28.91,-16.57 28.67,-16.09 28.67,-16.09 28.67,-16.09 27.66,-14.53 26.64,-12.97 25.55,-11.48 24.47,-10.00 23.38,-8.98 22.29,-7.97 20.91,-6.87 19.52,-5.78 17.99,-5.20 16.45,-4.62 14.62,-3.67 12.78,-2.72 11.10,-2.18 9.42,-1.65 7.67,-0.75 5.92,0.14 4.56,0.62 3.20,1.10 2.33,1.64 1.46,2.19 1.18,2.34 0.89,2.48 0.58,2.55 0.27,2.62 -0.04,2.62 -0.36,2.61 -0.66,2.53 -0.97,2.45 -1.25,2.30 -1.53,2.14 -1.76,1.93 -2.00,1.71 -2.18,1.45 -2.35,1.18 -2.46,0.88 -2.57,0.59 -2.60,0.27 -2.63,-0.04 -2.59,-0.35 -2.55,-0.67 -2.43,-0.96 -2.31,-1.26 -2.13,-1.52 -1.94,-1.78 -1.70,-1.98 -1.46,-2.19 -1.46,-2.19 L -1.46,-2.19 Z"></path></g><g transform="translate(559.612 509) rotate(0 16.5 8)" stroke="none"><path fill="#c92a2a" d="M 1.15,-2.31 Q 1.15,-2.31 2.31,-1.74 3.46,-1.18 4.53,-0.66 5.60,-0.15 7.36,0.34 9.11,0.84 10.14,1.37 11.18,1.89 12.78,2.40 14.39,2.91 16.48,3.79 18.58,4.66 20.54,5.19 22.50,5.71 24.38,6.44 26.27,7.18 27.67,8.05 29.07,8.92 30.09,9.40 31.10,9.87 32.22,11.26 33.34,12.64 33.84,12.82 34.33,13.00 34.77,13.29 35.21,13.59 35.54,14.00 35.87,14.42 36.04,14.92 36.22,15.42 36.23,15.95 36.23,16.48 36.07,16.98 35.91,17.49 35.60,17.91 35.28,18.34 34.85,18.64 34.41,18.95 33.90,19.10 33.39,19.25 32.87,19.22 32.34,19.20 31.84,19.01 31.35,18.82 30.94,18.49 30.53,18.15 30.25,17.70 29.97,17.25 29.85,16.73 29.73,16.22 29.78,15.69 29.83,15.16 30.04,14.68 30.26,14.19 30.62,13.81 30.98,13.42 31.44,13.16 31.91,12.91 32.43,12.81 32.95,12.72 33.47,12.80 34.00,12.88 34.47,13.12 34.94,13.36 35.31,13.74 35.68,14.12 35.91,14.60 36.14,15.08 36.20,15.60 36.27,16.13 36.16,16.65 36.05,17.17 35.79,17.62 35.52,18.08 35.12,18.43 34.72,18.78 34.23,18.98 33.74,19.18 33.21,19.22 32.69,19.26 32.17,19.12 31.66,18.99 31.66,18.99 31.66,18.99 29.47,16.87 27.27,14.76 26.21,14.17 25.15,13.58 24.00,12.57 22.85,11.56 20.88,11.05 18.91,10.54 17.59,10.23 16.26,9.92 15.26,9.47 14.26,9.02 12.65,8.25 11.03,7.48 9.22,6.75 7.40,6.02 5.32,5.30 3.25,4.58 2.19,4.03 1.13,3.48 -0.01,2.89 -1.15,2.31 -1.41,2.14 -1.67,1.97 -1.89,1.74 -2.10,1.51 -2.25,1.23 -2.40,0.96 -2.48,0.66 -2.56,0.36 -2.57,0.05 -2.57,-0.26 -2.50,-0.56 -2.43,-0.87 -2.30,-1.15 -2.16,-1.42 -1.95,-1.66 -1.75,-1.90 -1.50,-2.08 -1.24,-2.26 -0.95,-2.38 -0.66,-2.50 -0.35,-2.54 -0.05,-2.59 0.25,-2.55 0.57,-2.52 0.86,-2.42 1.15,-2.31 1.15,-2.31 L 1.15,-2.31 Z"></path></g><g transform="translate(499.61199999999997 517) rotate(0 8.5 -8)" stroke="none"><path fill="#c92a2a" d="M -2.22,-1.48 Q -2.22,-1.48 -1.67,-2.36 -1.12,-3.23 -0.55,-4.19 0.00,-5.15 1.27,-6.04 2.54,-6.92 3.40,-7.71 4.25,-8.50 5.19,-9.46 6.13,-10.43 7.57,-11.48 9.02,-12.54 10.14,-13.31 11.27,-14.07 12.13,-14.83 12.99,-15.58 13.72,-16.78 14.44,-17.98 14.83,-18.33 15.21,-18.69 15.69,-18.90 16.16,-19.12 16.68,-19.17 17.20,-19.22 17.71,-19.10 18.22,-18.99 18.67,-18.71 19.11,-18.44 19.45,-18.03 19.78,-17.63 19.97,-17.14 20.16,-16.66 20.18,-16.13 20.20,-15.61 20.06,-15.11 19.91,-14.61 19.62,-14.18 19.32,-13.75 18.90,-13.44 18.48,-13.12 17.98,-12.96 17.48,-12.80 16.96,-12.81 16.44,-12.81 15.94,-12.98 15.45,-13.16 15.04,-13.48 14.62,-13.80 14.34,-14.23 14.05,-14.67 13.91,-15.17 13.78,-15.68 13.81,-16.20 13.85,-16.72 14.04,-17.21 14.24,-17.69 14.59,-18.09 14.93,-18.48 15.38,-18.75 15.83,-19.01 16.34,-19.12 16.85,-19.22 17.37,-19.16 17.89,-19.10 18.37,-18.88 18.84,-18.65 19.21,-18.29 19.59,-17.92 19.83,-17.46 20.07,-16.99 20.15,-16.48 20.23,-15.96 20.14,-15.44 20.05,-14.93 19.80,-14.47 19.55,-14.01 19.55,-14.01 19.55,-14.01 17.78,-11.89 16.01,-9.77 14.58,-8.85 13.15,-7.92 11.75,-7.01 10.36,-6.09 9.23,-5.08 8.10,-4.07 6.59,-2.98 5.08,-1.88 4.25,-1.05 3.42,-0.21 2.82,0.63 2.22,1.48 2.01,1.73 1.80,1.97 1.54,2.16 1.28,2.35 0.98,2.46 0.68,2.58 0.36,2.63 0.04,2.67 -0.27,2.64 -0.59,2.60 -0.90,2.50 -1.20,2.39 -1.47,2.21 -1.74,2.03 -1.96,1.79 -2.17,1.55 -2.33,1.27 -2.48,0.98 -2.57,0.67 -2.65,0.36 -2.65,0.04 -2.66,-0.28 -2.59,-0.59 -2.51,-0.90 -2.37,-1.19 -2.22,-1.48 -2.22,-1.48 L -2.22,-1.48 Z"></path></g><g transform="translate(498.61199999999997 498) rotate(0 9 7.5)" stroke="none"><path fill="#c92a2a" d="M 2.21,-1.47 Q 2.21,-1.47 2.80,-0.62 3.40,0.22 4.49,1.71 5.59,3.21 6.86,4.49 8.14,5.77 9.55,6.72 10.96,7.67 12.03,8.27 13.10,8.88 14.97,9.85 16.85,10.82 17.70,11.31 18.56,11.80 19.05,11.97 19.55,12.15 19.96,12.47 20.37,12.79 20.66,13.23 20.95,13.67 21.09,14.17 21.22,14.68 21.19,15.21 21.15,15.73 20.95,16.21 20.75,16.70 20.41,17.09 20.07,17.49 19.61,17.76 19.16,18.02 18.65,18.13 18.13,18.23 17.61,18.17 17.09,18.11 16.62,17.88 16.14,17.66 15.77,17.29 15.39,16.93 15.15,16.46 14.91,15.99 14.83,15.48 14.75,14.96 14.84,14.44 14.93,13.92 15.19,13.46 15.44,13.00 15.82,12.65 16.21,12.29 16.69,12.08 17.16,11.86 17.69,11.81 18.21,11.76 18.72,11.88 19.23,12.00 19.68,12.27 20.12,12.55 20.46,12.95 20.79,13.36 20.98,13.85 21.17,14.34 21.19,14.86 21.21,15.38 21.07,15.89 20.92,16.39 20.62,16.82 20.32,17.25 19.90,17.57 19.48,17.88 18.98,18.04 18.48,18.20 17.96,18.19 17.43,18.19 17.43,18.19 17.43,18.19 15.22,16.99 13.01,15.78 11.64,15.27 10.26,14.75 9.47,14.03 8.67,13.30 7.72,12.73 6.77,12.15 5.88,11.26 4.99,10.37 3.78,9.09 2.57,7.80 1.72,7.03 0.88,6.26 -0.10,4.74 -1.10,3.22 -1.65,2.35 -2.21,1.47 -2.35,1.18 -2.49,0.90 -2.57,0.58 -2.64,0.27 -2.63,-0.04 -2.63,-0.36 -2.54,-0.67 -2.46,-0.98 -2.31,-1.26 -2.16,-1.54 -1.94,-1.78 -1.72,-2.01 -1.46,-2.19 -1.19,-2.37 -0.89,-2.48 -0.59,-2.58 -0.27,-2.62 0.04,-2.65 0.36,-2.61 0.67,-2.56 0.97,-2.45 1.27,-2.33 1.53,-2.14 1.79,-1.95 2.00,-1.71 2.21,-1.47 2.21,-1.47 L 2.21,-1.47 Z"></path></g><g transform="translate(48.611999999999966 451) rotate(0 75.5810546875 11.5)"><text x="0" y="0" font-family="Helvetica, Segoe UI Emoji" font-size="20px" fill="#000000" text-anchor="start" style="white-space: pre;" direction="ltr" dominant-baseline="text-before-edge">Memoria anterior</text></g></svg>